<svg width="21" height="21" viewBox="0 0 21 21" fill="none" xmlns="http://www.w3.org/2000/svg">
<path fill-rule="evenodd" clip-rule="evenodd" d="M10.5 18.8996C15.1392 18.8996 18.9 15.1388 18.9 10.4996C18.9 5.86042 15.1392 2.09961 10.5 2.09961C5.86081 2.09961 2.10001 5.86042 2.10001 10.4996C2.10001 15.1388 5.86081 18.8996 10.5 18.8996ZM7.35001 9.44961C7.9299 9.44961 8.40001 8.97951 8.40001 8.39961C8.40001 7.81971 7.9299 7.34961 7.35001 7.34961C6.77011 7.34961 6.30001 7.81971 6.30001 8.39961C6.30001 8.97951 6.77011 9.44961 7.35001 9.44961ZM14.7 8.39961C14.7 8.97951 14.2299 9.44961 13.65 9.44961C13.0701 9.44961 12.6 8.97951 12.6 8.39961C12.6 7.81971 13.0701 7.34961 13.65 7.34961C14.2299 7.34961 14.7 7.81971 14.7 8.39961ZM14.2123 14.2118C14.6224 13.8018 14.6224 13.1369 14.2123 12.7269C13.8023 12.3168 13.1374 12.3168 12.7274 12.7269C11.4972 13.957 9.50277 13.957 8.27262 12.7269C7.86257 12.3168 7.19775 12.3168 6.7877 12.7269C6.37764 13.1369 6.37764 13.8018 6.7877 14.2118C8.83795 16.2621 12.1621 16.2621 14.2123 14.2118Z" fill="#0065FF"/>
</svg>
