<svg width="21" height="21" viewBox="0 0 21 21" fill="none" xmlns="http://www.w3.org/2000/svg">
<path fill-rule="evenodd" clip-rule="evenodd" d="M5.25001 4.19922C3.51031 4.19922 2.10001 5.60952 2.10001 7.34922V13.6492C2.10001 15.3889 3.51031 16.7992 5.25001 16.7992H15.75C17.4897 16.7992 18.9 15.3889 18.9 13.6492V7.34922C18.9 5.60952 17.4897 4.19922 15.75 4.19922H5.25001ZM4.20001 13.6492V12.5992H9.45001V14.6992H5.25001C4.67011 14.6992 4.20001 14.2291 4.20001 13.6492ZM11.55 14.6992H15.75C16.3299 14.6992 16.8 14.2291 16.8 13.6492V12.5992H11.55V14.6992ZM11.55 10.4992H16.8V8.39922H11.55V10.4992ZM9.45001 8.39922H4.20001V10.4992H9.45001V8.39922Z" fill="#0065FF"/>
</svg>
