<svg width="21" height="21" viewBox="0 0 21 21" fill="none" xmlns="http://www.w3.org/2000/svg">
<path fill-rule="evenodd" clip-rule="evenodd" d="M6.3 2.09961C5.1402 2.09961 4.2 3.03981 4.2 4.19961V16.7996C4.2 17.9594 5.1402 18.8996 6.3 18.8996H14.7C15.8598 18.8996 16.8 17.9594 16.8 16.7996V4.19961C16.8 3.03981 15.8598 2.09961 14.7 2.09961H6.3ZM7.35 4.19961C6.7701 4.19961 6.3 4.66971 6.3 5.24961C6.3 5.82951 6.7701 6.29961 7.35 6.29961H13.65C14.2299 6.29961 14.7 5.82951 14.7 5.24961C14.7 4.66971 14.2299 4.19961 13.65 4.19961H7.35ZM13.65 11.5496C14.2299 11.5496 14.7 12.0197 14.7 12.5996V15.7496C14.7 16.3295 14.2299 16.7996 13.65 16.7996C13.0701 16.7996 12.6 16.3295 12.6 15.7496V12.5996C12.6 12.0197 13.0701 11.5496 13.65 11.5496ZM10.5 14.6996C9.9201 14.6996 9.45 15.1697 9.45 15.7496C9.45 16.3295 9.9201 16.7996 10.5 16.7996H10.5105C11.0904 16.7996 11.5605 16.3295 11.5605 15.7496C11.5605 15.1697 11.0904 14.6996 10.5105 14.6996H10.5ZM6.3 15.7496C6.3 15.1697 6.7701 14.6996 7.35 14.6996H7.3605C7.9404 14.6996 8.4105 15.1697 8.4105 15.7496C8.4105 16.3295 7.9404 16.7996 7.3605 16.7996H7.35C6.7701 16.7996 6.3 16.3295 6.3 15.7496ZM7.35 11.5496C6.7701 11.5496 6.3 12.0197 6.3 12.5996C6.3 13.1795 6.7701 13.6496 7.35 13.6496H7.3605C7.9404 13.6496 8.4105 13.1795 8.4105 12.5996C8.4105 12.0197 7.9404 11.5496 7.3605 11.5496H7.35ZM9.45 12.5996C9.45 12.0197 9.9201 11.5496 10.5 11.5496H10.5105C11.0904 11.5496 11.5605 12.0197 11.5605 12.5996C11.5605 13.1795 11.0904 13.6496 10.5105 13.6496H10.5C9.9201 13.6496 9.45 13.1795 9.45 12.5996ZM13.65 8.39961C13.0701 8.39961 12.6 8.86971 12.6 9.44961C12.6 10.0295 13.0701 10.4996 13.65 10.4996H13.6605C14.2404 10.4996 14.7105 10.0295 14.7105 9.44961C14.7105 8.86971 14.2404 8.39961 13.6605 8.39961H13.65ZM9.45 9.44961C9.45 8.86971 9.9201 8.39961 10.5 8.39961H10.5105C11.0904 8.39961 11.5605 8.86971 11.5605 9.44961C11.5605 10.0295 11.0904 10.4996 10.5105 10.4996H10.5C9.9201 10.4996 9.45 10.0295 9.45 9.44961ZM7.35 8.39961C6.7701 8.39961 6.3 8.86971 6.3 9.44961C6.3 10.0295 6.7701 10.4996 7.35 10.4996H7.3605C7.9404 10.4996 8.4105 10.0295 8.4105 9.44961C8.4105 8.86971 7.9404 8.39961 7.3605 8.39961H7.35Z" fill="#0065FF"/>
</svg>
