<svg width="28" height="28" viewBox="0 0 28 28" fill="none" xmlns="http://www.w3.org/2000/svg">
<circle cx="14" cy="14" r="14" fill="#0065FF"/>
<path d="M13 13C14.6569 13 16 11.6569 16 10C16 8.34315 14.6569 7 13 7C11.3431 7 10 8.34315 10 10C10 11.6569 11.3431 13 13 13Z" fill="#E6F0FF"/>
<path d="M13 15C16.3137 15 19 17.6863 19 21H7C7 17.6863 9.68629 15 13 15Z" fill="#E6F0FF"/>
<path d="M21 11C21 10.4477 20.5523 10 20 10C19.4477 10 19 10.4477 19 11V12H18C17.4477 12 17 12.4477 17 13C17 13.5523 17.4477 14 18 14H19V15C19 15.5523 19.4477 16 20 16C20.5523 16 21 15.5523 21 15V14H22C22.5523 14 23 13.5523 23 13C23 12.4477 22.5523 12 22 12H21V11Z" fill="#E6F0FF"/>
</svg>
