<svg width="48" height="47" viewBox="0 0 48 47" fill="none" xmlns="http://www.w3.org/2000/svg">
<path fill-rule="evenodd" clip-rule="evenodd" d="M25.1446 4.91666C24.4356 4.5115 23.5652 4.5115 22.8562 4.91666L6.71244 14.1417C5.60656 14.7736 5.22234 16.1824 5.85428 17.2883C6.27951 18.0324 7.05651 18.4498 7.85627 18.4507V34.594C6.58256 34.594 5.55002 35.6266 5.55002 36.9003C5.55002 38.174 6.58256 39.2065 7.85627 39.2065H40.1438C41.4175 39.2065 42.45 38.174 42.45 36.9003C42.45 35.6266 41.4175 34.594 40.1438 34.594V18.4507C40.9438 18.4501 41.7212 18.0327 42.1465 17.2883C42.7785 16.1824 42.3943 14.7736 41.2884 14.1417L25.1446 4.91666ZM14.775 20.7565C13.5013 20.7565 12.4688 21.7891 12.4688 23.0628V29.9815C12.4688 31.2553 13.5013 32.2878 14.775 32.2878C16.0487 32.2878 17.0813 31.2553 17.0813 29.9815V23.0628C17.0813 21.7891 16.0487 20.7565 14.775 20.7565ZM21.6938 23.0628C21.6938 21.7891 22.7263 20.7565 24 20.7565C25.2737 20.7565 26.3063 21.7891 26.3063 23.0628V29.9815C26.3063 31.2553 25.2737 32.2878 24 32.2878C22.7263 32.2878 21.6938 31.2553 21.6938 29.9815V23.0628ZM33.225 20.7565C31.9513 20.7565 30.9188 21.7891 30.9188 23.0628V29.9815C30.9188 31.2553 31.9513 32.2878 33.225 32.2878C34.4987 32.2878 35.5313 31.2553 35.5313 29.9815V23.0628C35.5313 21.7891 34.4987 20.7565 33.225 20.7565Z" fill="#0065FF"/>
</svg>
