<svg width="15" height="21" viewBox="0 0 15 21" fill="none" xmlns="http://www.w3.org/2000/svg">
<path fill-rule="evenodd" clip-rule="evenodd" d="M12.9712 14.1411L10.6068 13.5266C10.1186 13.4001 9.53666 13.1263 9.53666 12.5425V12.4378C10.2646 12.8387 10.9591 12.9911 12.4745 12.7329C11.8325 12.1569 11.7187 11.2181 11.8073 10.1502C12.1357 10.1424 12.4291 9.90758 12.4951 9.57535L12.865 7.71712C12.8932 7.57586 12.8755 7.43655 12.8238 7.31287L12.8975 6.65735L13.0931 4.89795C13.1677 4.23043 13.09 3.58971 12.8811 3.00594C12.6671 2.40822 12.3153 1.87051 11.8469 1.42354C11.3748 0.973504 10.788 0.613361 10.1231 0.367682C9.47906 0.129819 8.76274 0 8.00943 0H6.97998C6.22526 0 5.50865 0.130098 4.86405 0.367961C4.19939 0.613361 3.61324 0.974063 3.14312 1.42494C2.67866 1.87023 2.3308 2.40794 2.12045 3.00734C1.9149 3.59278 1.84177 4.2335 1.91998 4.89907L2.02332 5.77877L2.1261 6.65847C2.13513 6.7372 2.14417 6.81397 2.15349 6.89242C1.83725 7.01917 1.64158 7.34888 1.70963 7.6906L2.07951 9.54883C2.14219 9.86319 2.40958 10.0888 2.71706 10.1181C2.70181 11.1404 2.55809 12.0718 2.0973 12.7728C3.51695 12.9467 4.25587 12.8649 5.16306 12.3496V12.5698C5.16306 13.1539 4.58085 13.4275 4.09238 13.554L1.72798 14.1679C0.694299 14.4367 0 15.3053 0 16.3287V20.0812L0.150211 20.1195C2.44544 20.7035 4.86772 21 7.34986 21C9.83228 21 12.2546 20.7032 14.5498 20.1195L14.7 20.0812V16.3014C14.6994 15.2773 14.0049 14.4094 12.9712 14.1411ZM5.49623 11.3068L5.4392 11.2686C5.13906 11.0134 4.89285 10.6843 4.7096 10.2979C4.75873 10.3021 4.80814 10.3046 4.85812 10.3043L5.92484 10.2976L5.92568 10.4182C5.92653 10.5366 6.02507 10.6329 6.14535 10.6323L7.42271 10.6242C7.54242 10.6234 7.64012 10.5257 7.63955 10.4076L7.6356 9.82187C7.63503 9.70294 7.53593 9.60662 7.41621 9.60746L6.13858 9.61528C6.01886 9.61611 5.92089 9.71383 5.92173 9.8322L5.9223 9.90702L4.85558 9.91372C4.74659 9.91456 4.64269 9.89613 4.5416 9.87017C4.52918 9.83164 4.51224 9.79674 4.50066 9.75766C4.3801 9.34028 4.27902 8.95725 4.19177 8.58649L4.16551 8.47566L4.16438 8.47538L3.89615 7.18919L3.90519 7.13503C3.92862 6.99321 3.94415 6.89158 3.9546 6.80923C6.17528 6.73245 8.79916 5.98173 9.89214 3.98196C9.87322 4.93369 10.2967 5.50098 10.9061 5.86699C10.9072 5.90245 10.9092 5.93595 10.91 5.97224C10.9196 6.43708 10.9114 6.48482 10.8849 6.64255C10.8821 6.65958 10.879 6.67913 10.8756 6.69895L10.875 6.69867L10.5816 8.50302L10.565 8.57142C10.467 8.97735 10.3462 9.37127 10.2056 9.74258C9.95482 10.4028 9.61939 10.9193 9.20857 11.2778C8.64867 11.6818 7.97837 12.0919 7.24567 12.0919C7.24511 12.0919 7.24398 12.0919 7.24341 12.0919C6.67815 12.0913 6.10413 11.7102 5.49623 11.3068ZM2.72101 3.2117C2.89776 2.70806 3.19197 2.25383 3.58613 1.8761C3.99356 1.48524 4.50405 1.172 5.08513 0.957312C5.65604 0.746251 6.29754 0.630949 6.97913 0.630949H8.00858C8.68876 0.630949 9.32942 0.746251 9.90033 0.957033C10.482 1.172 10.9942 1.4858 11.4047 1.87721C11.8003 2.25495 12.0981 2.70973 12.2791 3.21533C12.4567 3.71143 12.5222 4.25751 12.4587 4.82872L12.4584 4.83123C12.3294 3.89848 11.8175 3.26 10.5111 3.21282C10.4108 3.20304 10.3148 3.19774 10.2199 3.19439C9.56941 2.16477 7.99108 1.33337 4.97671 1.91714C3.27244 2.24741 2.70435 3.41997 2.56346 4.91415L2.55329 4.82732C2.48581 4.25388 2.54708 3.70697 2.72101 3.2117ZM5.5623 12.5701V11.8253C6.11768 12.1851 6.65697 12.4867 7.24285 12.4872C7.24398 12.4872 7.24482 12.4872 7.24567 12.4872C7.95607 12.4872 8.5891 12.1709 9.13657 11.8094V12.5422C9.13657 12.9903 9.37036 13.3569 9.79981 13.6185C9.30316 14.3731 8.55888 15.0367 7.34929 15.4954C6.15044 15.0406 5.4087 14.3845 4.91205 13.6383C5.33303 13.3772 5.5623 13.0135 5.5623 12.5701Z" fill="#0065FF"/>
</svg>
