<svg width="21" height="21" viewBox="0 0 21 21" fill="none" xmlns="http://www.w3.org/2000/svg">
<path d="M2.10001 3.14961C2.10001 2.56971 2.57011 2.09961 3.15001 2.09961H5.41052C5.9238 2.09961 6.36185 2.47069 6.44624 2.97699L7.22251 7.63466C7.29829 8.08934 7.06867 8.54028 6.65637 8.74643L5.03083 9.5592C6.20294 12.4718 8.52777 14.7967 11.4404 15.9688L12.2532 14.3432C12.4593 13.9309 12.9103 13.7013 13.365 13.7771L18.0226 14.5534C18.5289 14.6378 18.9 15.0758 18.9 15.5891V17.8496C18.9 18.4295 18.4299 18.8996 17.85 18.8996H15.75C8.21132 18.8996 2.10001 12.7883 2.10001 5.24961V3.14961Z" fill="#0065FF"/>
</svg>
