<svg width="60" height="40" viewBox="0 0 60 40" fill="none" xmlns="http://www.w3.org/2000/svg">
<path d="M3.39558 4.07464C3.26961 4.29059 3.26984 4.29072 3.27008 4.29086L3.27067 4.29121L3.27223 4.2921L3.27686 4.29473L3.29222 4.30322C3.30518 4.31027 3.32361 4.32003 3.34764 4.33217C3.39571 4.35645 3.4662 4.39022 3.5602 4.4307C3.74821 4.51168 4.03015 4.61947 4.41481 4.73196C5.18423 4.95698 6.36365 5.20054 8.02322 5.28638C11.3418 5.45803 16.5784 4.99899 24.2963 2.50227C29.4803 0.924714 34.2088 0.250013 38.4827 0.250013C49.1917 0.250014 56.3668 4.3624 57.6536 5.09993C57.732 5.14489 57.7886 5.17731 57.8227 5.19549C58.4511 5.61845 58.8323 6.22529 58.8323 6.79108L58.8323 36.219C58.8323 37.0275 58.4332 37.634 57.8118 38.0483C57.2287 38.437 56.4527 38.4449 55.8619 38.072C55.8433 38.0516 55.823 38.0344 55.8069 38.0214C55.7726 37.9939 55.728 37.9632 55.6771 37.9308C55.5738 37.8649 55.425 37.7796 55.2343 37.6795C54.8521 37.4789 54.2909 37.2137 53.5662 36.921C52.1165 36.3354 50.0072 35.6373 47.3586 35.1247C42.0608 34.0993 34.6035 33.8156 25.955 36.6604C8.58114 42.3012 1.87298 38.2236 1.27057 37.8219C0.683567 37.4306 0.474583 36.8507 0.250046 36.1784L0.250049 5.8856C0.250049 5.08926 0.637183 4.48889 1.2427 4.0751C1.86737 3.87617 2.66985 3.89129 3.2569 4.28266L3.26314 4.28681L3.26961 4.29059L3.39558 4.07464ZM4.81442 8.81222L4.50661 8.73527L4.5038 9.05255L4.27743 34.6322L4.27592 34.8031L4.43457 34.8665C6.77511 35.8028 12.727 36.692 24.5256 32.8347L24.5281 32.8339C38.4935 28.1036 49.2971 30.8082 54.4638 32.8299L54.8049 32.9634L54.8049 32.5971L54.8049 8.14929L54.8049 8.00421L54.6789 7.93223C51.4663 6.09643 40.2998 1.54541 25.9534 6.32753C15.1179 9.93935 8.37705 9.70288 4.81442 8.81222Z" fill="white" stroke="#0065FF" stroke-width="0.5"/>
<path d="M29.6541 11.3422C33.817 11.3422 37.1006 14.6258 37.1006 18.7887C37.1006 22.9516 33.817 26.2352 29.6541 26.2352C25.4912 26.2352 22.2076 22.9516 22.2076 18.7887C22.2076 14.6258 25.4912 11.3422 29.6541 11.3422ZM29.6541 22.2079C31.6031 22.2079 33.0733 20.7377 33.0733 18.7887C33.0733 16.8397 31.6031 15.3695 29.6541 15.3695C27.7103 15.3695 26.2428 16.8319 26.235 18.7732C25.9957 20.7669 27.7429 22.2079 29.6541 22.2079Z" fill="white" stroke="#0065FF" stroke-width="0.5"/>
<path d="M43.0336 17.6568C43.0336 15.9196 44.4419 14.5113 46.1791 14.5113C47.9163 14.5113 49.3246 15.9196 49.3246 17.6568C49.3246 19.3941 47.9163 20.8024 46.1791 20.8024C44.4419 20.8024 43.0336 19.3941 43.0336 17.6568Z" fill="white" stroke="#0065FF" stroke-width="0.5"/>
<path d="M10.2101 21.0523C10.2101 19.3151 11.6184 17.9068 13.3556 17.9068C15.0929 17.9068 16.5012 19.3151 16.5012 21.0523C16.5012 22.7896 15.0929 24.1979 13.3556 24.1979C11.6184 24.1979 10.2101 22.7896 10.2101 21.0523Z" fill="white" stroke="#0065FF" stroke-width="0.5"/>
</svg>
