<svg width="60" height="40" viewBox="0 0 60 40" fill="none" xmlns="http://www.w3.org/2000/svg">
<path d="M1.13189 38.0299C1.81099 38.4827 8.60205 42.5573 26.0324 36.8981C43.2365 31.2389 55.6867 38.03 55.6867 38.2563C56.3659 38.7091 57.2713 38.7091 57.9504 38.2563C58.6295 37.8036 59.0823 37.1245 59.0823 36.219L59.0823 6.79108C59.0823 6.11197 58.6295 5.43286 57.9504 4.98013C57.4977 4.75376 50.0275 1.44672e-05 38.4827 1.34579e-05C34.1817 1.30819e-05 29.428 0.67912 24.2215 2.2637C8.82842 7.24381 3.39558 4.07464 3.39558 4.07464C2.71647 3.62191 1.811 3.62191 1.13189 3.84828C0.452785 4.30101 4.88267e-05 4.98012 4.87475e-05 5.8856L4.60957e-05 36.219C0.226414 36.8981 0.452782 37.5772 1.13189 38.0299ZM4.75379 9.05476C8.37569 9.96023 15.1667 10.1866 26.0324 6.56471C40.2937 1.81096 51.3857 6.33834 54.5549 8.14929L54.5549 32.5971C49.3484 30.5598 38.4827 27.8434 24.4479 32.5971C12.6767 36.4454 6.79111 35.5399 4.52742 34.6344L4.75379 9.05476Z" fill="white"/>
<path d="M16 36H3V7H6.5L21 5.5L36.5 2.5L49.5 4.5L56.5 7V18V34L53 33.5L44.5 33H31L16 36Z" fill="white" stroke="white"/>
<path d="M29.6541 11.0922C33.9551 11.0922 37.3506 14.4877 37.3506 18.7887C37.3506 23.0897 33.9551 26.4852 29.6541 26.4852C25.3531 26.4852 21.9576 23.0897 21.9576 18.7887C21.9576 14.4877 25.3531 11.0922 29.6541 11.0922ZM29.6541 21.9579C31.4651 21.9579 32.8233 20.5996 32.8233 18.7887C32.8233 16.9777 31.4651 15.6195 29.6541 15.6195C27.8432 15.6195 26.4849 16.9777 26.4849 18.7887C26.2586 20.5996 27.8432 21.9579 29.6541 21.9579Z" fill="#0065FF"/>
<path d="M46.1791 14.2613C44.3038 14.2613 42.7836 15.7815 42.7836 17.6568C42.7836 19.5321 44.3038 21.0524 46.1791 21.0524C48.0544 21.0524 49.5746 19.5321 49.5746 17.6568C49.5746 15.7815 48.0544 14.2613 46.1791 14.2613Z" fill="#0065FF"/>
<path d="M13.3556 17.6568C11.4803 17.6568 9.9601 19.177 9.9601 21.0523C9.9601 22.9276 11.4803 24.4479 13.3556 24.4479C15.2309 24.4479 16.7512 22.9276 16.7512 21.0523C16.7512 19.177 15.2309 17.6568 13.3556 17.6568Z" fill="#0065FF"/>
</svg>
