<svg width="17" height="25" viewBox="0 0 17 25" fill="none" xmlns="http://www.w3.org/2000/svg">
<path d="M10.314 0.264998V0.210999V2.776C12.69 3.019 15.093 3.883 16.308 6.232L14.364 7.204C13.473 5.638 11.07 4.801 9.126 4.774C6.912 4.774 3.969 5.638 4.023 8.014C4.05 10.12 6.453 10.66 9.234 11.119C13.014 11.713 16.983 12.307 16.983 16.708C16.956 20.299 13.5 21.946 10.287 22.135V24.808H8.1V22.189C5.211 22 2.268 20.839 0.972 18.112L3.024 17.14C3.969 19.138 6.804 20.083 9.072 20.083C11.448 20.083 14.607 19.192 14.607 16.681C14.634 14.332 11.799 13.711 8.964 13.252C5.319 12.685 1.728 12.037 1.674 8.068C1.62 4.558 5.022 3.073 8.1 2.83V0.264998H10.314Z" fill="#090F18"/>
</svg>
