<svg width="82" height="82" viewBox="0 0 82 82" fill="none" xmlns="http://www.w3.org/2000/svg">
<path fill-rule="evenodd" clip-rule="evenodd" d="M73.8 41.0002C73.8 59.1151 59.115 73.8002 41 73.8002C22.8851 73.8002 8.20001 59.1151 8.20001 41.0002C8.20001 22.8853 22.8851 8.2002 41 8.2002C59.115 8.2002 73.8 22.8853 73.8 41.0002ZM49.2 28.7002C49.2 33.2289 45.5287 36.9002 41 36.9002C36.4713 36.9002 32.8 33.2289 32.8 28.7002C32.8 24.1715 36.4713 20.5002 41 20.5002C45.5287 20.5002 49.2 24.1715 49.2 28.7002ZM40.9997 45.1002C32.7278 45.1002 25.6002 49.9995 22.3603 57.0546C26.8715 62.2875 33.5489 65.6002 40.9999 65.6002C48.4509 65.6002 55.1281 62.2877 59.6393 57.055C56.3995 49.9997 49.2718 45.1002 40.9997 45.1002Z" fill="#0065FF"/>
</svg>
