<svg width="50" height="50" viewBox="0 0 50 50" fill="none" xmlns="http://www.w3.org/2000/svg">
<path fill-rule="evenodd" clip-rule="evenodd" d="M45 24.9999C45 36.0456 36.0457 44.9999 25 44.9999C13.9543 44.9999 5 36.0456 5 24.9999C5 13.9542 13.9543 4.99988 25 4.99988C36.0457 4.99988 45 13.9542 45 24.9999ZM30 17.4999C30 20.2613 27.7614 22.4999 25 22.4999C22.2386 22.4999 20 20.2613 20 17.4999C20 14.7385 22.2386 12.4999 25 12.4999C27.7614 12.4999 30 14.7385 30 17.4999ZM24.9998 27.4999C19.956 27.4999 15.6099 30.4873 13.6343 34.7892C16.3851 37.98 20.4566 39.9999 25 39.9999C29.5432 39.9999 33.6147 37.98 36.3654 34.7894C34.3899 30.4874 30.0438 27.4999 24.9998 27.4999Z" fill="#243757"/>
</svg>
