<svg width="88" height="88" viewBox="0 0 88 88" fill="none" xmlns="http://www.w3.org/2000/svg">
<path fill-rule="evenodd" clip-rule="evenodd" d="M36.3306 13.6341C39.6948 7.65321 48.306 7.6532 51.6703 13.6341L76.2236 57.2845C79.5233 63.1506 75.2842 70.3988 68.5538 70.3988H19.4471C12.7166 70.3988 8.47753 63.1506 11.7772 57.2845L36.3306 13.6341ZM48.4001 57.1993C48.4001 59.6294 46.4301 61.5993 44 61.5993C41.57 61.5993 39.6 59.6294 39.6 57.1993C39.6 54.7693 41.57 52.7993 44 52.7993C46.4301 52.7993 48.4001 54.7693 48.4001 57.1993ZM44 21.9993C41.57 21.9993 39.6 23.9693 39.6 26.3993V39.5993C39.6 42.0294 41.57 43.9993 44 43.9993C46.4301 43.9993 48.4 42.0294 48.4 39.5993V26.3993C48.4 23.9693 46.4301 21.9993 44 21.9993Z" fill="#0065FF"/>
</svg>
