<svg width="237" height="237" viewBox="0 0 237 237" fill="none" xmlns="http://www.w3.org/2000/svg">
<path d="M118.5 109.385C127.514 109.385 136.326 106.711 143.821 101.703C151.316 96.6954 157.158 89.5772 160.607 81.2491C164.057 72.921 164.96 63.757 163.201 54.916C161.442 46.0749 157.102 37.9539 150.728 31.5798C144.353 25.2058 136.232 20.865 127.391 19.1064C118.55 17.3478 109.386 18.2504 101.058 21.7C92.7302 25.1496 85.612 30.9913 80.604 38.4864C75.5959 45.9815 72.9229 54.7933 72.9229 63.8076C72.9229 75.8953 77.7247 87.488 86.272 96.0353C94.8194 104.583 106.412 109.385 118.5 109.385ZM118.5 36.4614C123.908 36.4614 129.195 38.0653 133.692 41.0701C138.19 44.0749 141.695 48.3458 143.764 53.3427C145.834 58.3395 146.376 63.8379 145.32 69.1426C144.265 74.4472 141.661 79.3198 137.836 83.1442C134.012 86.9687 129.139 89.5731 123.835 90.6283C118.53 91.6835 113.032 91.1419 108.035 89.0721C103.038 87.0024 98.7671 83.4974 95.7623 79.0003C92.7574 74.5033 91.1536 69.2162 91.1536 63.8076C91.1536 56.5549 94.0347 49.5993 99.1631 44.4709C104.292 39.3425 111.247 36.4614 118.5 36.4614Z" fill="#003E9C"/>
<path d="M182.308 191.423V200.538C182.308 202.956 183.268 205.275 184.977 206.984C186.687 208.693 189.005 209.654 191.423 209.654C193.84 209.654 196.159 208.693 197.869 206.984C199.578 205.275 200.538 202.956 200.538 200.538V191.423C200.538 151.224 164.077 118.5 118.5 118.5C72.923 118.5 36.4614 151.224 36.4614 191.423V200.538C36.4614 202.956 37.4218 205.275 39.1313 206.984C40.8407 208.693 43.1593 209.654 45.5768 209.654C47.9944 209.654 50.3129 208.693 52.0224 206.984C53.7318 205.275 54.6922 202.956 54.6922 200.538V191.423C54.6922 161.251 83.3145 136.731 118.5 136.731C153.685 136.731 182.308 161.251 182.308 191.423Z" fill="#003E9C"/>
<path d="M9.11538 72.9231C11.5329 72.9231 13.8515 71.9627 15.5609 70.2532C17.2704 68.5438 18.2308 66.2252 18.2308 63.8077V18.2308H63.8077C66.2252 18.2308 68.5438 17.2704 70.2532 15.5609C71.9627 13.8515 72.9231 11.5329 72.9231 9.11538C72.9231 6.69783 71.9627 4.3793 70.2532 2.66983C68.5438 0.960368 66.2252 0 63.8077 0H18.2308C13.3957 0 8.7586 1.92074 5.33967 5.33967C1.92074 8.7586 0 13.3957 0 18.2308V63.8077C0 66.2252 0.960368 68.5438 2.66983 70.2532C4.3793 71.9627 6.69783 72.9231 9.11538 72.9231Z" fill="#003E9C"/>
<path d="M218.769 0H173.193C170.775 0 168.456 0.960368 166.747 2.66983C165.038 4.3793 164.077 6.69783 164.077 9.11538C164.077 11.5329 165.038 13.8515 166.747 15.5609C168.456 17.2704 170.775 18.2308 173.193 18.2308H218.769V63.8077C218.769 66.2252 219.73 68.5438 221.439 70.2532C223.149 71.9627 225.467 72.9231 227.885 72.9231C230.302 72.9231 232.621 71.9627 234.33 70.2532C236.04 68.5438 237 66.2252 237 63.8077V18.2308C237 13.3957 235.079 8.7586 231.661 5.33967C228.242 1.92074 223.605 0 218.769 0Z" fill="#003E9C"/>
<path d="M227.885 164.077C225.467 164.077 223.149 165.037 221.439 166.747C219.73 168.456 218.769 170.775 218.769 173.192V218.769H173.193C170.775 218.769 168.456 219.73 166.747 221.439C165.038 223.149 164.077 225.467 164.077 227.885C164.077 230.302 165.038 232.621 166.747 234.33C168.456 236.04 170.775 237 173.193 237H218.769C223.605 237 228.242 235.079 231.661 231.66C235.079 228.241 237 223.604 237 218.769V173.192C237 170.775 236.04 168.456 234.33 166.747C232.621 165.037 230.302 164.077 227.885 164.077Z" fill="#003E9C"/>
<path d="M63.8077 218.769H18.2308V173.192C18.2308 170.775 17.2704 168.456 15.5609 166.747C13.8515 165.037 11.5329 164.077 9.11538 164.077C6.69783 164.077 4.3793 165.037 2.66983 166.747C0.960368 168.456 0 170.775 0 173.192V218.769C0 223.604 1.92074 228.241 5.33967 231.66C8.7586 235.079 13.3957 237 18.2308 237H63.8077C66.2252 237 68.5438 236.04 70.2532 234.33C71.9627 232.621 72.9231 230.302 72.9231 227.885C72.9231 225.467 71.9627 223.149 70.2532 221.439C68.5438 219.73 66.2252 218.769 63.8077 218.769Z" fill="#003E9C"/>
</svg>
