<svg width="21" height="21" viewBox="0 0 21 21" fill="none" xmlns="http://www.w3.org/2000/svg">
<path d="M7.25448 10.5497C7.25448 8.75323 8.70998 7.29653 10.5059 7.29653C12.3018 7.29653 13.7581 8.75323 13.7581 10.5497C13.7581 12.3461 12.3018 13.8028 10.5059 13.8028C8.70998 13.8028 7.25448 12.3461 7.25448 10.5497ZM5.4964 10.5497C5.4964 13.3172 7.73915 15.5606 10.5059 15.5606C13.2727 15.5606 15.5154 13.3172 15.5154 10.5497C15.5154 7.78212 13.2727 5.53872 10.5059 5.53872C7.73915 5.53872 5.4964 7.78212 5.4964 10.5497ZM14.543 5.34004C14.5429 5.57165 14.6115 5.79808 14.7401 5.99071C14.8686 6.18334 15.0514 6.33351 15.2653 6.42223C15.4792 6.51095 15.7146 6.53423 15.9417 6.48914C16.1688 6.44404 16.3774 6.33259 16.5412 6.16889C16.705 6.00518 16.8166 5.79657 16.8619 5.56942C16.9071 5.34228 16.884 5.10682 16.7955 4.8928C16.707 4.67879 16.557 4.49583 16.3645 4.36708C16.1721 4.23833 15.9458 4.16956 15.7142 4.16947H15.7137C15.4034 4.16961 15.1058 4.29297 14.8863 4.51245C14.6667 4.73193 14.5433 5.02958 14.543 5.34004ZM6.56455 18.493C5.61339 18.4497 5.09641 18.2912 4.75285 18.1573C4.29737 17.9799 3.97238 17.7687 3.63069 17.4274C3.289 17.086 3.07749 16.7613 2.90095 16.3057C2.76702 15.9622 2.60859 15.4449 2.56535 14.4934C2.51806 13.4648 2.50861 13.1558 2.50861 10.5498C2.50861 7.94373 2.51884 7.63559 2.56535 6.60609C2.60867 5.65466 2.76827 5.13838 2.90095 4.79386C3.07828 4.33825 3.28947 4.01317 3.63069 3.67138C3.97191 3.3296 4.29659 3.11803 4.75285 2.94144C5.09625 2.80747 5.61339 2.64899 6.56455 2.60574C7.59289 2.55843 7.9018 2.54898 10.5059 2.54898C13.11 2.54898 13.4192 2.55921 14.4484 2.60574C15.3996 2.64907 15.9157 2.80872 16.2601 2.94144C16.7156 3.11803 17.0406 3.33006 17.3823 3.67138C17.724 4.0127 17.9347 4.33825 18.112 4.79386C18.246 5.13737 18.4044 5.65466 18.4476 6.60609C18.4949 7.63559 18.5044 7.94373 18.5044 10.5498C18.5044 13.1558 18.4949 13.4639 18.4476 14.4934C18.4043 15.4449 18.2451 15.962 18.112 16.3057C17.9347 16.7613 17.7235 17.0863 17.3823 17.4274C17.0411 17.7684 16.7156 17.9799 16.2601 18.1573C15.9167 18.2913 15.3996 18.4498 14.4484 18.493C13.4201 18.5403 13.1112 18.5498 10.5059 18.5498C7.90063 18.5498 7.59258 18.5403 6.56455 18.493ZM6.48377 0.850114C5.4452 0.897424 4.73552 1.06215 4.11575 1.30338C3.47389 1.5525 2.93053 1.88672 2.38756 2.42899C1.84459 2.97126 1.51133 3.51564 1.26228 4.15768C1.02112 4.77802 0.856439 5.48751 0.809142 6.52638C0.761066 7.56689 0.750061 7.89954 0.750061 10.5497C0.750061 13.1998 0.761066 13.5325 0.809142 14.573C0.856439 15.6119 1.02112 16.3213 1.26228 16.9417C1.51133 17.5833 1.84467 18.1283 2.38756 18.6704C2.93045 19.2124 3.47389 19.5462 4.11575 19.796C4.73669 20.0372 5.4452 20.2019 6.48377 20.2493C7.52452 20.2966 7.85653 20.3083 10.5059 20.3083C13.1553 20.3083 13.4878 20.2973 14.5281 20.2493C15.5667 20.2019 16.2759 20.0372 16.8961 19.796C17.5375 19.5462 18.0813 19.2126 18.6243 18.6704C19.1672 18.1281 19.4998 17.5833 19.7495 16.9417C19.9907 16.3213 20.1562 15.6119 20.2027 14.573C20.25 13.5317 20.261 13.1998 20.261 10.5497C20.261 7.89954 20.25 7.56689 20.2027 6.52638C20.1554 5.48743 19.9907 4.77763 19.7495 4.15768C19.4998 3.51603 19.1664 2.97212 18.6243 2.42899C18.0821 1.88586 17.5375 1.5525 16.8969 1.30338C16.2759 1.06215 15.5666 0.896643 14.5288 0.850114C13.4886 0.802804 13.1561 0.791016 10.5067 0.791016C7.85732 0.791016 7.52452 0.802023 6.48377 0.850114Z" fill="#0065FF"/>
</svg>
