<svg width="54" height="70" viewBox="0 0 54 70" fill="none" xmlns="http://www.w3.org/2000/svg">
<path d="M23.8837 19.4263L23.1479 23.7207L27.0009 21.6931C27.1117 21.6348 27.2334 21.6056 27.3552 21.6056C27.477 21.6056 27.5986 21.6348 27.7095 21.6931L31.5624 23.7207L30.8266 19.4263C30.7843 19.1793 30.8662 18.9271 31.0455 18.752L34.1627 15.7107L29.8549 15.0844C29.6069 15.0483 29.3925 14.8924 29.2817 14.6676L27.3552 10.7605L25.4287 14.6676C25.3177 14.8926 25.1034 15.0483 24.8554 15.0844L20.5476 15.7107L23.6648 18.752C23.8441 18.9271 23.926 19.1793 23.8837 19.4263Z" fill="white"/>
<path d="M12.8909 31.1355H8.32318V35.7072H12.8909V31.1355Z" fill="white"/>
<path d="M12.8909 43.3265H8.32318V47.8982H12.8909V43.3265Z" fill="white"/>
<path d="M12.8909 55.5178H8.32318V60.0895H12.8909V55.5178Z" fill="white"/>
<path d="M48.9096 3.60932L43.7972 0.76709L38.6856 3.60932C38.4557 3.73702 38.1762 3.73702 37.9463 3.60932L32.8344 0.76709L27.7229 3.60932C27.493 3.73702 27.2133 3.73702 26.9835 3.60932L21.8721 0.76709L16.7615 3.60932C16.5315 3.73702 16.2519 3.73702 16.022 3.60932L10.9114 0.76709L5.8 3.60932C5.5701 3.73702 5.2904 3.73702 5.06065 3.60932L0.710388 1.19043V69.2329H54V1.19028L49.6488 3.60932C49.4191 3.73702 49.1395 3.73702 48.9096 3.60932ZM14.4134 60.8515C14.4134 61.2724 14.0725 61.6134 13.6521 61.6134H7.56191C7.14153 61.6134 6.80063 61.2724 6.80063 60.8515V54.7559C6.80063 54.335 7.14153 53.9939 7.56191 53.9939H13.6521C14.0725 53.9939 14.4134 54.335 14.4134 54.7559V60.8515ZM14.4134 48.6603C14.4134 49.0812 14.0725 49.4222 13.6521 49.4222H7.56191C7.14153 49.4222 6.80063 49.0812 6.80063 48.6603V42.5647C6.80063 42.1438 7.14153 41.8027 7.56191 41.8027H13.6521C14.0725 41.8027 14.4134 42.1438 14.4134 42.5647V48.6603ZM14.4134 36.4691C14.4134 36.89 14.0725 37.231 13.6521 37.231H7.56191C7.14153 37.231 6.80063 36.89 6.80063 36.4691V30.3734C6.80063 29.9525 7.14153 29.6115 7.56191 29.6115H13.6521C14.0725 29.6115 14.4134 29.9525 14.4134 30.3734V36.4691ZM18.1877 14.9433C18.2772 14.6674 18.5155 14.4664 18.8024 14.4248L24.2405 13.634L26.6725 8.70174C26.8007 8.44161 27.0654 8.27703 27.3552 8.27703C27.6449 8.27703 27.9097 8.44161 28.0379 8.70174L30.4699 13.634L35.908 14.4248C36.1949 14.4664 36.433 14.6675 36.5227 14.9433C36.6122 15.2192 36.5376 15.522 36.3301 15.7243L32.395 19.5635L33.3239 24.9846C33.373 25.2704 33.2554 25.5593 33.0211 25.7298C32.8885 25.8263 32.7313 25.8753 32.5736 25.8753C32.4524 25.8753 32.3308 25.8465 32.2195 25.7879L27.3552 23.2283L22.4911 25.7879C22.2347 25.9229 21.9238 25.9003 21.6893 25.7298C21.4548 25.5594 21.3374 25.2704 21.3864 24.9846L22.3154 19.5635L18.3803 15.7243C18.1728 15.522 18.0982 15.2192 18.1877 14.9433ZM48.671 60.0895H19.7424C19.322 60.0895 18.9811 59.7485 18.9811 59.3276C18.9811 58.9067 19.322 58.5656 19.7424 58.5656H48.671C49.0914 58.5656 49.4323 58.9067 49.4323 59.3276C49.4323 59.7485 49.0914 60.0895 48.671 60.0895ZM48.671 47.8983H19.7424C19.322 47.8983 18.9811 47.5573 18.9811 47.1364C18.9811 46.7155 19.322 46.3744 19.7424 46.3744H48.671C49.0914 46.3744 49.4323 46.7155 49.4323 47.1364C49.4323 47.5573 49.0914 47.8983 48.671 47.8983ZM48.671 35.7071H19.7424C19.322 35.7071 18.9811 35.3661 18.9811 34.9452C18.9811 34.5243 19.322 34.1832 19.7424 34.1832H48.671C49.0914 34.1832 49.4323 34.5243 49.4323 34.9452C49.4323 35.3661 49.0914 35.7071 48.671 35.7071Z" fill="white"/>
</svg>
