<svg width="21" height="21" viewBox="0 0 21 21" fill="none" xmlns="http://www.w3.org/2000/svg">
<path fill-rule="evenodd" clip-rule="evenodd" d="M11.0211 2.23795C10.6983 2.05349 10.302 2.05349 9.97924 2.23795L2.62924 6.43795C2.12575 6.72566 1.95082 7.36706 2.23853 7.87055C2.43213 8.20936 2.78589 8.39939 3.15001 8.39979V15.7496C2.57011 15.7496 2.10001 16.2197 2.10001 16.7996C2.10001 17.3795 2.57011 17.8496 3.15001 17.8496H17.85C18.4299 17.8496 18.9 17.3795 18.9 16.7996C18.9 16.2197 18.4299 15.7496 17.85 15.7496V8.39979C18.2143 8.39951 18.5682 8.20947 18.7618 7.87055C19.0496 7.36706 18.8746 6.72566 18.3711 6.43795L11.0211 2.23795ZM6.30001 9.44961C5.72011 9.44961 5.25001 9.91971 5.25001 10.4996V13.6496C5.25001 14.2295 5.72011 14.6996 6.30001 14.6996C6.8799 14.6996 7.35001 14.2295 7.35001 13.6496V10.4996C7.35001 9.91971 6.8799 9.44961 6.30001 9.44961ZM9.45001 10.4996C9.45001 9.91971 9.92011 9.44961 10.5 9.44961C11.0799 9.44961 11.55 9.91971 11.55 10.4996V13.6496C11.55 14.2295 11.0799 14.6996 10.5 14.6996C9.92011 14.6996 9.45001 14.2295 9.45001 13.6496V10.4996ZM14.7 9.44961C14.1201 9.44961 13.65 9.91971 13.65 10.4996V13.6496C13.65 14.2295 14.1201 14.6996 14.7 14.6996C15.2799 14.6996 15.75 14.2295 15.75 13.6496V10.4996C15.75 9.91971 15.2799 9.44961 14.7 9.44961Z" fill="#0065FF"/>
</svg>
