<svg width="21" height="21" viewBox="0 0 21 21" fill="none" xmlns="http://www.w3.org/2000/svg">
<path d="M13.2151 4.81468C14.0352 3.99458 15.3648 3.99458 16.1849 4.81468C17.005 5.63479 17.005 6.96443 16.1849 7.78453L13.0349 10.9345C12.2148 11.7546 10.8852 11.7546 10.0651 10.9345C9.65501 10.5245 8.99019 10.5245 8.58014 10.9345C8.17009 11.3446 8.17009 12.0094 8.58014 12.4195C10.2203 14.0597 12.8796 14.0597 14.5198 12.4195L17.6698 9.26946C19.31 7.62926 19.31 4.96996 17.6698 3.32976C16.0296 1.68956 13.3703 1.68956 11.7301 3.32976L10.1551 4.90476C9.74509 5.31481 9.74509 5.97963 10.1551 6.38968C10.5652 6.79974 11.23 6.79974 11.6401 6.38968L13.2151 4.81468Z" fill="#0065FF"/>
<path d="M7.96508 10.0647C8.78518 9.24458 10.1148 9.24458 10.9349 10.0647C11.345 10.4747 12.0098 10.4747 12.4199 10.0647C12.8299 9.65463 12.8299 8.98981 12.4199 8.57976C10.7797 6.93956 8.12036 6.93956 6.48016 8.57976L3.33016 11.7298C1.68996 13.37 1.68996 16.0293 3.33016 17.6695C4.97036 19.3097 7.62965 19.3097 9.26985 17.6695L10.8449 16.0945C11.2549 15.6844 11.2549 15.0196 10.8449 14.6095C10.4348 14.1995 9.76998 14.1995 9.35993 14.6095L7.78493 16.1845C6.96483 17.0046 5.63518 17.0046 4.81508 16.1845C3.99498 15.3644 3.99498 14.0348 4.81508 13.2147L7.96508 10.0647Z" fill="#0065FF"/>
</svg>
