<svg width="14" height="13" viewBox="0 0 14 13" fill="none" xmlns="http://www.w3.org/2000/svg">
<path d="M3.93409 12.7818V4.40783H1.15317V12.7818H3.93438H3.93409ZM2.54421 3.2647C3.51377 3.2647 4.11739 2.62168 4.11739 1.81808C4.09924 0.996171 3.51377 0.371094 2.56265 0.371094C1.61088 0.371094 0.989258 0.996171 0.989258 1.81801C0.989258 2.62161 1.59266 3.26463 2.52599 3.26463H2.54399L2.54421 3.2647ZM5.47336 12.7818H8.25406V8.10591C8.25406 7.85597 8.27221 7.60537 8.34567 7.42685C8.54661 6.9266 9.00417 6.40876 9.77257 6.40876C10.7786 6.40876 11.1813 7.17662 11.1813 8.30245V12.7818H13.9619V7.98043C13.9619 5.40841 12.5901 4.21151 10.7606 4.21151C9.26057 4.21151 8.60178 5.05064 8.23577 5.62217H8.25428V4.40812H5.47351C5.50981 5.1937 5.47329 12.7821 5.47329 12.7821L5.47336 12.7818Z" fill="#0065FF"/>
</svg>
