<svg width="21" height="21" viewBox="0 0 21 21" fill="none" xmlns="http://www.w3.org/2000/svg">
<path fill-rule="evenodd" clip-rule="evenodd" d="M3.14999 3.15039C3.72989 3.15039 4.2 3.62049 4.19999 4.20039L4.19999 16.8004C4.19999 17.3803 3.72989 17.8504 3.14999 17.8504C2.57009 17.8504 2.09999 17.3803 2.09999 16.8004L2.09999 4.20039C2.09999 3.62049 2.5701 3.15039 3.14999 3.15039ZM11.2425 6.60793C11.6525 7.01798 11.6525 7.6828 11.2425 8.09285L9.88492 9.45039L17.85 9.45039C18.4299 9.45039 18.9 9.92049 18.9 10.5004C18.9 11.0803 18.4299 11.5504 17.85 11.5504L9.88492 11.5504L11.2425 12.9079C11.6525 13.318 11.6525 13.9828 11.2425 14.3929C10.8324 14.8029 10.1676 14.8029 9.75753 14.3929L6.60753 11.2429C6.41062 11.0459 6.29999 10.7789 6.29999 10.5004C6.29999 10.2219 6.41062 9.95484 6.60753 9.75793L9.75753 6.60793C10.1676 6.19788 10.8324 6.19788 11.2425 6.60793Z" fill="#EF4438"/>
</svg>
