<svg width="27" height="27" viewBox="0 0 27 27" fill="none" xmlns="http://www.w3.org/2000/svg">
<g clip-path="url(#clip0_78_11267)">
<path d="M13.5 27C20.9558 27 27 20.9558 27 13.5C27 6.04416 20.9558 0 13.5 0C6.04416 0 0 6.04416 0 13.5C0 20.9558 6.04416 27 13.5 27Z" fill="#F0F0F0"/>
<path d="M0 13.5001C0 19.3047 3.66356 24.253 8.80437 26.1605V0.839844C3.66356 2.74725 0 7.69563 0 13.5001Z" fill="#6DA544"/>
<path d="M27 13.5001C27 7.69563 23.3364 2.74725 18.1956 0.839844V26.1605C23.3364 24.253 27 19.3047 27 13.5001Z" fill="#6DA544"/>
</g>
<circle cx="13.5" cy="13.5" r="13.25" stroke="#0065FF" stroke-width="0.5"/>
<defs>
<clipPath id="clip0_78_11267">
<rect width="27" height="27" fill="white"/>
</clipPath>
</defs>
</svg>
