<svg width="40" height="40" viewBox="0 0 40 40" fill="none" xmlns="http://www.w3.org/2000/svg">
<path d="M20.0001 4.00012C13.3726 4.00012 8.00006 9.37271 8.00006 16.0001V23.1717L6.58584 24.5859C6.01385 25.1579 5.84274 26.0181 6.1523 26.7655C6.46186 27.5128 7.19113 28.0001 8.00006 28.0001H32.0001C32.809 28.0001 33.5383 27.5128 33.8478 26.7655C34.1574 26.0181 33.9863 25.1579 33.4143 24.5859L32.0001 23.1717V16.0001C32.0001 9.37271 26.6275 4.00012 20.0001 4.00012Z" fill="#243757"/>
<path d="M20 36.0001C16.6863 36.0001 14 33.3138 14 30.0001H26C26 33.3138 23.3137 36.0001 20 36.0001Z" fill="#243757"/>
</svg>
