<svg width="411" height="445" viewBox="0 0 411 445" fill="none" xmlns="http://www.w3.org/2000/svg">
<g clip-path="url(#clip0_241_9298)">
<g opacity="0.3">
<path d="M348.6 244.755L335.941 257.416L348.6 270.078L361.26 257.416L348.6 244.755Z" stroke="black" stroke-linecap="round" stroke-linejoin="round"/>
<path d="M75.54 20.9634L62.8804 33.6246L75.54 46.2859L88.1996 33.6246L75.54 20.9634Z" stroke="black" stroke-linecap="round" stroke-linejoin="round"/>
<path d="M52.5279 284.992L44.7001 292.82L52.5279 300.649L60.3558 292.82L52.5279 284.992Z" stroke="black" stroke-linecap="round" stroke-linejoin="round"/>
<path d="M8.28587 157.925L0.458008 165.754L8.28587 173.583L16.1137 165.754L8.28587 157.925Z" stroke="black" stroke-linecap="round" stroke-linejoin="round"/>
<path d="M328.345 67.3103L320.517 75.1391L328.345 82.968L336.173 75.1391L328.345 67.3103Z" stroke="black" stroke-linecap="round" stroke-linejoin="round"/>
<path d="M70.0946 293.697L58.9625 304.83L70.0946 315.964L81.2267 304.83L70.0946 293.697Z" stroke="black" stroke-linecap="round" stroke-linejoin="round"/>
<path d="M292.101 281.826L284.273 289.655L292.101 297.484L299.929 289.655L292.101 281.826Z" stroke="black" stroke-linecap="round" stroke-linejoin="round"/>
<path d="M352.145 51.3197L337.165 66.302L352.145 81.2844L367.126 66.302L352.145 51.3197Z" stroke="black" stroke-linecap="round" stroke-linejoin="round"/>
<path d="M191.599 405.111L183.772 412.94L191.599 420.768L199.427 412.94L191.599 405.111Z" stroke="black" stroke-linecap="round" stroke-linejoin="round"/>
<path d="M35.7141 168.913C41.997 168.913 47.0904 163.819 47.0904 157.535C47.0904 151.251 41.997 146.157 35.7141 146.157C29.4312 146.157 24.3379 151.251 24.3379 157.535C24.3379 163.819 29.4312 168.913 35.7141 168.913Z" stroke="black" stroke-linecap="round" stroke-linejoin="round"/>
<path d="M365.662 203.686C371.597 203.686 376.408 198.874 376.408 192.938C376.408 187.003 371.597 182.191 365.662 182.191C359.727 182.191 354.916 187.003 354.916 192.938C354.916 198.874 359.727 203.686 365.662 203.686Z" stroke="black" stroke-linecap="round" stroke-linejoin="round"/>
<path d="M404.222 125.294C407.715 125.294 410.546 122.462 410.546 118.97C410.546 115.477 407.715 112.646 404.222 112.646C400.73 112.646 397.899 115.477 397.899 118.97C397.899 122.462 400.73 125.294 404.222 125.294Z" stroke="black" stroke-linecap="round" stroke-linejoin="round"/>
<path d="M277.804 36.1638C277.804 34.0681 276.108 32.3712 274.012 32.3712C271.917 32.3712 270.22 34.0681 270.22 36.1638C270.22 38.2594 271.917 39.9563 274.012 39.9563C276.108 39.9563 277.804 38.2594 277.804 36.1638Z" stroke="black" stroke-linecap="round" stroke-linejoin="round"/>
<path d="M118.519 256.151C120.613 256.151 122.311 254.453 122.311 252.358C122.311 250.264 120.613 248.566 118.519 248.566C116.424 248.566 114.727 250.264 114.727 252.358C114.727 254.453 116.424 256.151 118.519 256.151Z" stroke="black" stroke-linecap="round" stroke-linejoin="round"/>
<path d="M28.7604 359.83C31.9044 359.83 34.4531 357.281 34.4531 354.136C34.4531 350.992 31.9044 348.443 28.7604 348.443C25.6164 348.443 23.0676 350.992 23.0676 354.136C23.0676 357.281 25.6164 359.83 28.7604 359.83Z" stroke="black" stroke-linecap="round" stroke-linejoin="round"/>
<path d="M373.246 344.659C373.246 341.868 370.984 339.606 368.193 339.606C365.402 339.606 363.14 341.868 363.14 344.659C363.14 347.451 365.402 349.713 368.193 349.713C370.984 349.713 373.246 347.451 373.246 344.659Z" stroke="black" stroke-linecap="round" stroke-linejoin="round"/>
<path d="M332.794 17.8315C332.794 15.0404 330.532 12.7779 327.741 12.7779C324.95 12.7779 322.688 15.0404 322.688 17.8315C322.688 20.6226 324.95 22.8852 327.741 22.8852C330.532 22.8852 332.794 20.6226 332.794 17.8315Z" stroke="black" stroke-linecap="round" stroke-linejoin="round"/>
</g>
<path d="M130.525 211.901L94.496 231.504" stroke="#263238" stroke-width="3" stroke-linecap="round" stroke-linejoin="round"/>
<path d="M62.2587 105.07L100.819 120.24" stroke="#263238" stroke-width="3" stroke-linecap="round" stroke-linejoin="round"/>
<path d="M108.403 19.0926L133.056 58.9191" stroke="#263238" stroke-width="3" stroke-linecap="round" stroke-linejoin="round"/>
<path d="M192.469 1.3909L191.208 33.0018" stroke="#263238" stroke-width="3" stroke-linecap="round" stroke-linejoin="round"/>
<path d="M264.528 76.6209L296.765 44.3795" stroke="#263238" stroke-width="3" stroke-linecap="round" stroke-linejoin="round"/>
<path d="M309.402 141.734L337.217 132.248" stroke="#263238" stroke-width="3" stroke-linecap="round" stroke-linejoin="round"/>
<path d="M282.857 212.532L306.25 225.81" stroke="#263238" stroke-width="3" stroke-linecap="round" stroke-linejoin="round"/>
<path d="M100.189 75.9903L119.149 90.53" stroke="#263238" stroke-width="3" stroke-linecap="round" stroke-linejoin="round"/>
<path d="M304.349 103.169L284.118 112.655" stroke="#263238" stroke-width="3" stroke-linecap="round" stroke-linejoin="round"/>
<path d="M107.142 172.075L85.6509 178.399" stroke="#263238" stroke-width="3" stroke-linecap="round" stroke-linejoin="round"/>
<path d="M291.712 180.29L301.818 182.822" stroke="#263238" stroke-width="3" stroke-linecap="round" stroke-linejoin="round"/>
<path d="M300.362 142.652C296.793 140.176 283.321 142.374 274.8 149.245C266.28 156.116 264.361 158.592 264.361 158.592C264.361 158.592 260.513 131.655 260.513 130.829C260.513 130.004 255.015 79.4305 253.921 72.0123C252.818 64.5941 251.176 53.5966 249.526 51.1207C247.876 48.6449 241.284 48.376 239.086 49.4702L236.889 50.5737C236.889 50.5737 237.992 31.3327 235.786 26.6592C233.588 21.9857 226.718 24.7397 224.79 27.2063C222.87 29.6821 221.489 33.5303 221.489 33.5303C221.489 33.5303 215.166 31.3327 211.596 38.482C208.027 45.6313 205.273 51.946 204.726 58.8171C204.179 65.6883 201.156 74.4881 201.156 74.4881C201.156 74.4881 197.587 68.7205 193.739 72.0123C189.891 75.3134 185.497 88.2303 184.393 97.5773C183.29 106.924 182.196 131.655 182.196 131.655C182.196 131.655 179.999 142.921 178.895 151.99C177.792 161.059 178.617 198.715 182.743 214.377C186.869 230.048 192.358 239.942 192.358 239.942C192.358 239.942 201.972 271.553 203.354 275.948C204.726 280.344 219.839 340.264 219.839 340.264L264.908 283.098C264.908 283.098 253.643 252.043 251.167 244.894C248.692 237.744 247.041 235.547 247.041 235.547C247.041 235.547 260.782 216.028 268.199 210.26C275.616 204.492 279.464 185.251 281.393 176.73C283.312 168.208 291.285 156.394 295.68 152.546C300.075 148.698 303.923 145.128 300.353 142.652H300.362ZM198.681 129.457C197.856 129.457 198.134 118.738 198.134 105.821C198.134 92.9038 200.331 87.1269 200.331 87.1269C199.228 92.8945 201.434 121.482 201.434 123.411C201.434 125.34 199.515 129.457 198.69 129.457H198.681Z" fill="white" stroke="#091E42" stroke-linecap="round" stroke-linejoin="round"/>
<path d="M240.236 240.248C243.676 238.505 244.297 236.65 244.297 236.65" stroke="#091E42" stroke-linecap="round" stroke-linejoin="round"/>
<path d="M213.246 233.905C213.246 233.905 228.359 243.8 235.786 241.88" stroke="#091E42" stroke-linecap="round" stroke-linejoin="round"/>
<path d="M264.361 158.601C264.361 158.601 258.594 167.67 257.212 170.971C255.84 174.272 255.015 177.017 252.539 178.389C250.064 179.762 246.772 181.691 246.772 181.691" stroke="#091E42" stroke-linecap="round" stroke-linejoin="round"/>
<path d="M247.755 161.281C240.764 164.527 230.927 170.267 225.337 178.658" stroke="#091E42" stroke-linecap="round" stroke-linejoin="round"/>
<path d="M255.84 158.045C255.84 158.045 253.828 158.676 250.769 159.955" stroke="#091E42" stroke-linecap="round" stroke-linejoin="round"/>
<path d="M222.314 182.238C222.314 182.238 217.363 191.306 215.166 198.456" stroke="#091E42" stroke-linecap="round" stroke-linejoin="round"/>
<path d="M221.489 33.5396C221.489 33.5396 220.117 45.0842 218.188 62.3964C216.269 79.7087 215.166 88.2304 215.444 99.2279C215.722 110.225 218.745 119.841 218.466 121.214" stroke="#091E42" stroke-linecap="round" stroke-linejoin="round"/>
<path d="M236.88 50.5829C236.88 50.5829 236.055 57.7322 236.88 67.0699C237.705 76.4168 236.055 93.7291 236.055 100.331C236.055 106.934 236.333 116.818 236.602 119.841C236.87 122.864 238.521 125.062 238.521 125.062" stroke="#091E42" stroke-linecap="round" stroke-linejoin="round"/>
<path d="M242.1 126.712C242.1 126.712 243.472 129.188 252.539 129.457" stroke="#091E42" stroke-linecap="round" stroke-linejoin="round"/>
<path d="M221.211 120.119C221.211 120.119 227.803 121.492 232.207 120.666" stroke="#091E42" stroke-linecap="round" stroke-linejoin="round"/>
<path d="M197.299 131.664C197.299 131.664 197.299 134.409 189.326 136.885" stroke="#091E42" stroke-linecap="round" stroke-linejoin="round"/>
<path d="M212.968 124.237C213.793 123.689 217.094 122.586 217.919 118.738" stroke="#091E42" stroke-linecap="round" stroke-linejoin="round"/>
<path d="M213.441 166.344C213.441 166.344 230.529 160.076 241.349 157.795" stroke="#091E42" stroke-linecap="round" stroke-linejoin="round"/>
<path d="M261.95 444.536H409.683C399.364 430.915 361.703 381.278 359.246 378.83C356.4 375.983 343.864 374.277 343.864 374.277L306.843 343.519L260.708 267.185L216.853 328.135L209.445 298.509L192.923 360.034C192.923 360.034 252.734 432.955 255.006 435.801C255.451 436.358 258.028 439.622 261.941 444.546L261.95 444.536Z" fill="#091E42" stroke="#091E42" stroke-linecap="round" stroke-linejoin="round"/>
<path d="M146.268 230.836C146.268 230.836 134.039 199.513 131.091 193.745C128.143 187.978 112.14 162.932 111.333 156.135C110.527 149.338 108.023 138.034 105.446 133.305C102.868 128.576 110.545 125.479 116.896 131.469C123.238 137.459 127.076 147.205 126.993 150.015C126.909 152.824 141.234 163.321 141.234 163.321L143.839 139.175C143.839 139.175 146.621 79.2822 146.037 70.3432C145.453 61.4043 144.878 42.4229 151.971 41.6904C159.063 40.9578 160.167 46.5678 160.167 46.5678C160.167 46.5678 160.417 32.4269 168.307 33.3356C174.334 34.0311 176.642 39.7153 177.523 42.4507C178.404 45.1862 179.442 48.58 179.442 48.58C179.442 48.58 184.412 45.2047 189.261 53.2442C192.042 57.8621 197.958 72.3832 198.913 76.0738C199.868 79.7643 200.164 81.0996 200.164 81.0996C200.164 81.0996 206.812 80.8863 209.76 87.9058C212.709 94.9253 216.899 113.239 220.951 128.391C225.003 143.542 224.836 157.934 224.836 157.934C224.836 157.934 226.421 206.681 223.158 222.185C219.894 237.689 213.756 250.903 212.495 252.164C211.234 253.425 193.099 306.947 193.099 306.947L130.201 283.626C130.201 283.626 143.302 251.44 145.369 244.421C147.446 237.411 146.268 230.836 146.268 230.836Z" fill="#F5F6F7" stroke="#E6F0FF" stroke-linecap="round" stroke-linejoin="round"/>
<path d="M133.112 185.149C133.242 188.219 133.9 190.064 133.9 190.064" stroke="#E6F0FF" stroke-linecap="round" stroke-linejoin="round"/>
<path d="M139.315 165.992C139.315 165.992 135.764 170.127 133.919 177.509C133.548 178.992 133.325 180.383 133.205 181.663" stroke="#E6F0FF" stroke-linecap="round" stroke-linejoin="round"/>
<path d="M160.167 46.5864C160.167 46.5864 161.261 66.0128 161.984 75.6102C162.716 85.2075 163.069 100.053 163.134 109.808C163.198 119.554 162.012 131.812 161.344 134.474C160.677 137.135 159.193 140.529 159.193 140.529" stroke="#E6F0FF" stroke-linecap="round" stroke-linejoin="round"/>
<path d="M179.433 48.5986C179.433 48.5986 176.327 52.215 177.356 56.8699C178.385 61.5248 183.16 87.5256 183.16 91.2904C183.16 95.0551 183.429 127.769 183.494 129.986C183.568 132.202 182.01 139.657 181.269 142.615" stroke="#E6F0FF" stroke-linecap="round" stroke-linejoin="round"/>
<path d="M200.155 81.1089C200.155 81.1089 196.613 81.4705 197.42 87.0156C198.227 92.5607 199.988 110.578 199.979 115.594C199.979 120.62 201.147 132.211 200.915 143.144C200.683 154.076 203.196 157.841 204.374 160.651" stroke="#E6F0FF" stroke-linecap="round" stroke-linejoin="round"/>
<path d="M145.453 154.03C145.453 154.03 144.192 160.308 145.888 163.553C147.585 166.808 149.94 173.67 149.94 177.444" stroke="#E6F0FF" stroke-linecap="round" stroke-linejoin="round"/>
<path d="M158.155 150.942C158.155 150.942 157.487 156.107 158.22 159.436C158.952 162.765 161.242 166.159 161.242 166.159" stroke="#E6F0FF" stroke-linecap="round" stroke-linejoin="round"/>
<path d="M179.34 159.084C179.34 159.084 178.599 164.545 179.924 168.023C181.25 171.491 182.799 174.078 182.799 174.078" stroke="#E6F0FF" stroke-linecap="round" stroke-linejoin="round"/>
<path d="M150.821 444.536L209.297 312.576C209.297 312.576 184.347 291.972 167.936 281.16C151.526 270.347 131.842 270.672 131.842 270.672C131.842 270.672 106.15 325.428 104.806 328.914C103.452 332.401 85.5397 369.501 85.5397 369.501C85.5397 369.501 77.6681 372.311 74.1727 378.598C71.4376 383.531 51.6984 426.269 43.2891 444.536H150.821Z" fill="#0065FF" stroke="#E6F0FF" stroke-linecap="round" stroke-linejoin="round"/>
<path d="M192.193 321.239C194.785 319.707 195.643 316.363 194.11 313.771C192.578 311.179 189.234 310.32 186.643 311.853C184.051 313.386 183.193 316.73 184.725 319.322C186.258 321.914 189.602 322.772 192.193 321.239Z" fill="#E6F0FF" stroke="#E6F0FF" stroke-linecap="round" stroke-linejoin="round"/>
<path d="M186.479 338.261C185.747 341.182 182.789 342.953 179.869 342.221C176.948 341.488 175.177 338.53 175.91 335.609C176.642 332.688 179.6 330.917 182.52 331.65C185.441 332.382 187.212 335.34 186.479 338.261Z" fill="#E6F0FF" stroke="#E6F0FF" stroke-linecap="round" stroke-linejoin="round"/>
</g>
<defs>
<clipPath id="clip0_241_9298">
<rect width="411" height="445" fill="white"/>
</clipPath>
</defs>
</svg>
