<svg width="335" height="514" viewBox="0 0 335 514" fill="none" xmlns="http://www.w3.org/2000/svg">
<path d="M102.931 323.375C97.8712 315.022 73.6094 315.154 71.4173 318.868C71.4173 318.868 83.4493 357.794 96.8493 353.766C110.249 349.738 102.948 323.375 102.948 323.375H102.931Z" fill="#0065FF"/>
<mask id="mask0_238_9099" style="mask-type:luminance" maskUnits="userSpaceOnUse" x="71" y="316" width="34" height="39">
<path d="M102.931 323.375C97.8712 315.022 73.6094 315.154 71.4173 318.868C71.4173 318.868 83.4493 357.794 96.8493 353.766C110.249 349.738 102.948 323.375 102.948 323.375H102.931Z" fill="white"/>
</mask>
<g mask="url(#mask0_238_9099)">
<path opacity="0.3" d="M102.931 323.375C97.8712 315.022 73.6094 315.154 71.4173 318.868C71.4173 318.868 83.4493 357.794 96.8493 353.766C110.249 349.738 102.948 323.375 102.948 323.375H102.931Z" fill="black"/>
</g>
<path d="M102.931 323.375C97.8712 315.022 73.6094 315.154 71.4173 318.868C71.4173 318.868 83.4493 357.794 96.8493 353.766C110.249 349.738 102.948 323.375 102.948 323.375H102.931Z" stroke="#263238" stroke-linecap="round" stroke-linejoin="round"/>
<path d="M73.9885 343.184C73.9885 343.184 71.4173 346.123 71.4173 350.53C71.4173 354.162 78.3398 426.682 99.6842 451.922C104.151 457.221 109.26 460.44 115.079 460.506C133.143 460.704 141.895 446.343 153.4 413.046C154.834 408.902 156.317 404.445 157.85 399.691C169.025 365.321 182.771 293.627 182.771 293.627C182.771 293.627 158.394 299.29 143.939 313.635C137.626 319.908 131.033 337.72 126.83 350.794C124.754 357.216 123.254 362.499 122.644 364.711C122.446 365.453 122.331 365.85 122.331 365.85C121.77 363.687 120.864 361.492 119.776 359.362C119.776 359.329 119.776 359.312 119.743 359.312C119.694 359.263 119.677 359.197 119.661 359.147C115.293 350.761 108.205 343.366 108.205 343.366L102.948 323.375C102.948 323.375 101.085 327.023 92.6628 328.311C84.2404 329.598 71.4173 318.868 71.4173 318.868L73.9885 343.184Z" fill="#0065FF"/>
<mask id="mask1_238_9099" style="mask-type:luminance" maskUnits="userSpaceOnUse" x="71" y="293" width="112" height="168">
<path d="M73.9885 343.184C73.9885 343.184 71.4173 346.123 71.4173 350.53C71.4173 354.162 78.3398 426.682 99.6842 451.922C104.151 457.221 109.26 460.44 115.079 460.506C133.143 460.704 141.895 446.343 153.4 413.046C154.834 408.902 156.317 404.445 157.85 399.691C169.025 365.321 182.771 293.627 182.771 293.627C182.771 293.627 158.394 299.29 143.939 313.635C137.626 319.908 131.033 337.72 126.83 350.794C124.754 357.216 123.254 362.499 122.644 364.711C122.446 365.453 122.331 365.85 122.331 365.85C121.77 363.687 120.864 361.492 119.776 359.362C119.776 359.329 119.776 359.312 119.743 359.312C119.694 359.263 119.677 359.197 119.661 359.147C115.293 350.761 108.205 343.366 108.205 343.366L102.948 323.375C102.948 323.375 101.085 327.023 92.6628 328.311C84.2404 329.598 71.4173 318.868 71.4173 318.868L73.9885 343.184Z" fill="white"/>
</mask>
<g mask="url(#mask1_238_9099)">
<path opacity="0.3" d="M99.6842 451.922C104.151 457.221 109.26 460.44 115.079 460.506C133.143 460.704 141.895 446.342 153.4 413.046L153.152 335.657C153.152 335.657 139.571 338.298 126.83 350.811C124.754 357.232 123.254 362.515 122.644 364.727C127.72 375.325 136.588 399.691 126.418 425.658C119.825 442.496 109.03 449.347 99.6842 451.922Z" fill="black"/>
</g>
<path d="M73.9885 343.184C73.9885 343.184 71.4173 346.123 71.4173 350.53C71.4173 354.162 78.3398 426.682 99.6842 451.922C104.151 457.221 109.26 460.44 115.079 460.506C133.143 460.704 141.895 446.343 153.4 413.046C154.834 408.902 156.317 404.445 157.85 399.691C169.025 365.321 182.771 293.627 182.771 293.627C182.771 293.627 158.394 299.29 143.939 313.635C137.626 319.908 131.033 337.72 126.83 350.794C124.754 357.216 123.254 362.499 122.644 364.711C122.446 365.453 122.331 365.85 122.331 365.85C121.77 363.687 120.864 361.492 119.776 359.362C119.776 359.329 119.776 359.312 119.743 359.312C119.694 359.263 119.677 359.197 119.661 359.147C115.293 350.761 108.205 343.366 108.205 343.366L102.948 323.375C102.948 323.375 101.085 327.023 92.6628 328.311C84.2404 329.598 71.4173 318.868 71.4173 318.868L73.9885 343.184Z" stroke="#263238" stroke-linecap="round" stroke-linejoin="round"/>
<path d="M131.445 389.489C132.747 396.29 132.797 403.653 129.649 409.975" stroke="#263238" stroke-linecap="round" stroke-linejoin="round"/>
<path d="M122.331 365.866C125.891 371.892 128.676 378.544 130.489 385.313" stroke="#263238" stroke-linecap="round" stroke-linejoin="round"/>
<path d="M133.835 374.417C133.835 374.417 131.297 367.418 124.424 365.85" stroke="#263238" stroke-linecap="round" stroke-linejoin="round"/>
<path d="M98.7777 348.83C100.426 347.938 101.975 346.832 103.376 345.594" stroke="#263238" stroke-linecap="round" stroke-linejoin="round"/>
<path d="M73.9885 343.184C79.3617 348.945 87.7511 352.709 95.5802 350.2" stroke="#263238" stroke-linecap="round" stroke-linejoin="round"/>
<path d="M119.644 359.164C119.644 359.164 119.677 359.213 119.743 359.312C119.693 359.262 119.677 359.197 119.661 359.147L119.644 359.164Z" fill="#0065FF" stroke="#263238" stroke-linecap="round" stroke-linejoin="round"/>
<path d="M278.829 507.009C278.829 507.009 281.895 482.71 283.774 474.786C292.212 439.062 321.93 356.308 317.133 331.827C312.205 306.652 282.076 284.647 233.47 282.22C188.375 279.975 151.208 295.971 142.307 314.592C133.819 332.355 134.165 454.943 136.324 510.261H260.188C269.962 510.261 278.812 507.026 278.812 507.026L278.829 507.009Z" fill="#0065FF"/>
<mask id="mask2_238_9099" style="mask-type:luminance" maskUnits="userSpaceOnUse" x="135" y="282" width="183" height="229">
<path d="M278.829 507.009C278.829 507.009 281.895 482.71 283.774 474.786C292.212 439.062 321.93 356.308 317.133 331.827C312.205 306.652 282.076 284.647 233.47 282.22C188.375 279.975 151.208 295.971 142.307 314.592C133.819 332.355 134.165 454.943 136.324 510.261H260.188C269.962 510.261 278.812 507.026 278.812 507.026L278.829 507.009Z" fill="white"/>
</mask>
<g mask="url(#mask2_238_9099)">
<path opacity="0.3" d="M269.154 359.329C245.799 391.404 220.334 439.393 220.334 439.393L150.779 352.561C150.779 352.561 166.717 462.85 175.403 474.786C184.089 486.721 183.71 492.202 183.71 492.202C183.71 492.202 205.763 515.99 222.295 512.754C236.321 510.014 286.773 453.639 302.497 388.267L269.17 359.329H269.154Z" fill="black"/>
</g>
<path d="M278.829 507.009C278.829 507.009 281.895 482.71 283.774 474.786C292.212 439.062 321.93 356.308 317.133 331.827C312.205 306.652 282.076 284.647 233.47 282.22C188.375 279.975 151.208 295.971 142.307 314.592C133.819 332.355 134.165 454.943 136.324 510.261H260.188C269.961 510.261 278.812 507.026 278.812 507.026L278.829 507.009Z" stroke="#263238" stroke-linecap="round" stroke-linejoin="round"/>
<path d="M253.1 287.107C253.1 287.107 228.855 297.523 202.615 288.89C202.615 288.89 205.994 280.669 206.011 273.884C206.027 270.483 205.17 267.429 202.615 265.976C202.615 265.976 203.802 264.672 205.813 262.609H205.829C215.768 252.473 245.947 223.98 255.77 240.967C255.77 240.967 245.485 241.941 253.1 287.107Z" fill="#F5F6F7" stroke="#263238" stroke-linecap="round" stroke-linejoin="round"/>
<path d="M225.69 255.642C225.69 255.642 221.702 270.285 206.011 273.884C206.027 270.483 205.17 267.429 202.615 265.976C202.615 265.976 203.802 264.672 205.813 262.609H205.829C215.438 258.828 225.69 255.642 225.69 255.642Z" fill="#263238"/>
<path d="M262.61 217.063C273.027 175.496 250.595 161.283 236.47 155.835C213.823 147.103 185.26 157.04 178.568 180.118C171.876 203.213 177.909 208.463 177.595 217.905C177.381 224.525 172.997 227.793 177.826 244.417C181.024 255.378 186.941 267.974 193.847 268.37C212.554 269.46 230.256 258.795 229.267 253.777" fill="#F5F6F7"/>
<path d="M262.61 217.063C273.027 175.496 250.595 161.283 236.47 155.835C213.823 147.103 185.26 157.04 178.568 180.118C171.876 203.213 177.909 208.463 177.595 217.905C177.381 224.525 172.997 227.793 177.826 244.417C181.024 255.378 186.941 267.974 193.847 268.37C212.554 269.46 230.256 258.795 229.267 253.777" stroke="#263238" stroke-linecap="round" stroke-linejoin="round"/>
<path d="M203.835 196.692C203.835 196.692 212.208 193.787 216.675 202.932" stroke="#263238" stroke-linecap="round" stroke-linejoin="round"/>
<path d="M175.387 195.339C175.387 195.339 181.617 190.04 187.847 197.534" stroke="#263238" stroke-linecap="round" stroke-linejoin="round"/>
<path d="M207.577 217.79C208.723 217.79 209.653 216.223 209.653 214.29C209.653 212.357 208.723 210.79 207.577 210.79C206.43 210.79 205.5 212.357 205.5 214.29C205.5 216.223 206.43 217.79 207.577 217.79Z" fill="#263238"/>
<path d="M181.617 212.375C181.617 214.306 182.54 215.875 183.694 215.875C184.848 215.875 185.771 214.306 185.771 212.375C185.771 210.444 184.848 208.875 183.694 208.875C182.54 208.875 181.617 210.444 181.617 212.375Z" fill="#263238"/>
<path d="M187.847 204.369C187.847 204.369 189.133 213.993 188.556 215.875C187.979 217.757 181.485 223.633 181.222 226.242C180.958 228.85 186.661 231.491 186.661 231.491" fill="#F5F6F7"/>
<path d="M187.847 204.369C187.847 204.369 189.133 213.993 188.556 215.875C187.979 217.757 181.485 223.633 181.222 226.242C180.958 228.85 186.661 231.491 186.661 231.491" stroke="#263238" stroke-linecap="round" stroke-linejoin="round"/>
<path d="M183.694 237.021C183.694 237.021 196.682 240.29 207.593 237.021C207.593 237.021 202.451 253.15 192.281 251.515C185.556 250.426 187.27 239.861 187.27 239.861L183.694 237.038V237.021Z" fill="#263238"/>
<path d="M239.288 224.327C239.288 224.327 246.903 210.13 254.847 213.597C262.808 217.063 257.27 234.034 250.348 239.58C243.425 245.127 239.288 239.58 239.288 239.58" fill="#F5F6F7"/>
<path d="M239.288 224.327C239.288 224.327 246.903 210.13 254.847 213.597C262.808 217.063 257.27 234.034 250.348 239.58C243.425 245.127 239.288 239.58 239.288 239.58" stroke="#263238" stroke-linecap="round" stroke-linejoin="round"/>
<g opacity="0.2">
<path d="M226.383 167.556C226.383 167.556 223.548 159.599 214.235 158.988C204.923 158.377 198.231 168.48 198.017 175.529" stroke="white" stroke-linecap="round" stroke-linejoin="round"/>
<path d="M232.679 167.242C232.679 167.242 239.057 162.339 242.766 167.242C249.029 175.529 243.837 195.52 243.837 195.52" stroke="white" stroke-linecap="round" stroke-linejoin="round"/>
<path d="M241.365 161.398C241.365 161.398 248.007 157.321 253.694 165.195C259.38 173.07 258.77 192.219 258.77 192.219" stroke="white" stroke-linecap="round" stroke-linejoin="round"/>
<path d="M233.454 161.398C233.454 161.398 226.993 150.404 207.84 154.085C188.704 157.767 185.82 177.362 185.82 177.362" stroke="white" stroke-linecap="round" stroke-linejoin="round"/>
<path d="M238.217 158.064C238.217 158.064 230.503 147.35 207.082 149.496C183.661 151.642 174.233 172.162 176.607 181.951" stroke="white" stroke-linecap="round" stroke-linejoin="round"/>
</g>
<path d="M46.1996 295.493C46.1996 295.493 74.0709 274.016 86.2183 271.837C98.3656 269.658 140.164 278.803 140.164 278.803V328.377C140.164 328.377 114.007 331.249 102.272 339.85C90.5366 348.45 50.1059 349.837 50.1059 349.837L46.1996 295.493Z" fill="#757575" stroke="#263238" stroke-linecap="round" stroke-linejoin="round"/>
<path d="M72.3568 280.124C72.3568 280.124 72.9996 273.818 73.9721 270.335C74.961 266.851 81.7022 267.231 83.2186 268.453C84.7349 269.674 86.2018 271.82 86.2018 271.82C86.2018 271.82 83.8614 272.497 83.2186 272.728C82.5593 272.943 81.9165 285.571 72.3568 280.124Z" fill="white" stroke="#263238" stroke-linecap="round" stroke-linejoin="round"/>
<path d="M107.949 204.407L80.1804 285.042L120.053 298.817L147.822 218.181L107.949 204.407Z" fill="#92E3A9"/>
<mask id="mask3_238_9099" style="mask-type:luminance" maskUnits="userSpaceOnUse" x="80" y="204" width="68" height="95">
<path d="M107.949 204.407L80.1804 285.042L120.053 298.817L147.822 218.181L107.949 204.407Z" fill="white"/>
</mask>
<g mask="url(#mask3_238_9099)">
<path opacity="0.5" d="M80.1694 285.059L120.04 298.827L147.812 218.202L107.942 204.435L80.1694 285.059ZM143.609 220.249L117.996 294.634L84.3558 283.012L109.969 208.628L143.609 220.249Z" fill="black"/>
<path opacity="0.5" d="M113.875 214.934L110.447 224.888C110.068 226.011 108.848 226.588 107.744 226.209C106.623 225.829 106.046 224.607 106.425 223.501L109.854 213.547C110.233 212.425 111.453 211.847 112.557 212.226C113.678 212.606 114.254 213.828 113.875 214.934Z" fill="black"/>
<path opacity="0.5" d="M121.573 279.761L118.144 289.715C117.765 290.837 116.545 291.415 115.441 291.036C114.32 290.656 113.744 289.434 114.123 288.328L117.551 278.374C117.93 277.251 119.15 276.674 120.254 277.053C121.375 277.433 121.952 278.655 121.573 279.761Z" fill="black"/>
<path opacity="0.5" d="M101.514 247.322C99.1403 254.223 102.799 261.767 109.689 264.144C116.578 266.521 124.111 262.856 126.484 255.956C128.858 249.056 125.199 241.512 118.309 239.134C111.419 236.757 103.887 240.422 101.514 247.322ZM120.946 253.067L121.935 253.414L121.342 255.164L120.353 254.817C119.512 256.237 118.078 256.6 116.232 255.973L115.309 255.659L116.002 253.645L117.056 254.008C118.029 254.338 118.523 254.041 118.754 253.364C118.985 252.687 118.787 252.143 117.815 251.813C116.842 251.482 116.018 251.631 114.403 252.671C112.425 253.942 111.139 254.157 109.59 253.628C107.777 253.001 106.87 251.846 107.052 250.244L106.046 249.898L106.64 248.148L107.645 248.494C108.469 247.091 109.903 246.712 111.733 247.355L112.161 247.504L111.469 249.518L110.909 249.32C109.936 248.99 109.442 249.254 109.211 249.931C108.98 250.607 109.211 251.119 110.183 251.449C111.156 251.78 111.963 251.631 113.595 250.591C115.589 249.336 116.859 249.105 118.408 249.634C120.237 250.261 121.144 251.466 120.946 253.084V253.067Z" fill="black"/>
</g>
<path d="M107.949 204.407L80.1804 285.042L120.053 298.817L147.822 218.181L107.949 204.407Z" stroke="#263238" stroke-linecap="round" stroke-linejoin="round"/>
<path d="M110.596 158.458L88.7267 76.0213L47.9632 86.8693L69.8328 169.306L110.596 158.458Z" fill="#92E3A9"/>
<mask id="mask4_238_9099" style="mask-type:luminance" maskUnits="userSpaceOnUse" x="47" y="76" width="64" height="94">
<path d="M110.596 158.458L88.7267 76.0213L47.9632 86.8693L69.8328 169.306L110.596 158.458Z" fill="white"/>
</mask>
<g mask="url(#mask4_238_9099)">
<path opacity="0.5" d="M88.7236 76.0355L47.9632 86.8812L69.835 169.305L110.595 158.46L88.7236 76.0355ZM72.1755 165.278L52.0013 89.2253L86.3831 80.0799L106.557 156.132L72.1755 165.278Z" fill="black"/>
<path opacity="0.5" d="M99.8326 153.062L97.1295 142.876C96.8328 141.737 97.5086 140.565 98.6459 140.268C99.7831 139.971 100.953 140.648 101.25 141.787L103.953 151.972C104.25 153.111 103.574 154.283 102.437 154.581C101.299 154.878 100.129 154.201 99.8326 153.062Z" fill="black"/>
<path opacity="0.5" d="M57.3086 103.571L54.6055 93.3856C54.3088 92.2465 54.9846 91.0745 56.1219 90.7773C57.2591 90.4802 58.4294 91.157 58.7261 92.2961L61.4291 102.481C61.7258 103.621 61.05 104.793 59.9128 105.09C58.7755 105.387 57.6053 104.71 57.3086 103.571Z" fill="black"/>
<path opacity="0.5" d="M92.053 119.27C90.174 112.205 82.9383 108.012 75.9004 109.877C68.8626 111.742 64.6596 119.006 66.5221 126.055C68.3846 133.104 75.6367 137.313 82.6746 135.448C89.729 133.566 93.9154 126.319 92.053 119.27ZM72.7359 125.362L71.7305 125.626L71.2525 123.843L72.2579 123.579C72.159 121.928 73.1479 120.822 75.0269 120.327L75.9828 120.079L76.5268 122.142L75.4389 122.44C74.45 122.704 74.2193 123.232 74.4006 123.925C74.5819 124.619 75.0598 124.965 76.0488 124.701C77.0377 124.437 77.6475 123.859 78.4057 122.076C79.3287 119.93 80.2847 119.022 81.867 118.593C83.7295 118.098 85.114 118.56 85.8557 119.996L86.8776 119.716L87.3555 121.499L86.3337 121.779C86.4325 123.414 85.4601 124.52 83.5811 125.015L83.1526 125.13L82.6087 123.067L83.1856 122.918C84.1745 122.654 84.4382 122.159 84.2569 121.466C84.0756 120.772 83.5976 120.475 82.6087 120.739C81.6198 121.003 81.0429 121.581 80.2517 123.364C79.2958 125.527 78.3728 126.418 76.7905 126.847C74.9115 127.342 73.494 126.847 72.7688 125.395L72.7359 125.362Z" fill="black"/>
</g>
<path d="M110.596 158.458L88.7267 76.0213L47.9632 86.8693L69.8328 169.306L110.596 158.458Z" stroke="#263238" stroke-linecap="round" stroke-linejoin="round"/>
<path d="M46.1996 295.493C46.1996 295.493 86.6303 281.841 97.4921 279.893C108.354 277.928 140.164 278.803 140.164 278.803V328.377C140.164 328.377 106.969 338.463 101.843 342.507C96.7174 346.552 50.1223 349.837 50.1223 349.837L46.2161 295.493H46.1996Z" fill="#5D6B82" stroke="#263238" stroke-linecap="round" stroke-linejoin="round"/>
<path d="M101.365 301.386C99.2392 312.859 100.772 328.244 93.1738 337.555" stroke="#263238" stroke-linecap="round" stroke-linejoin="round"/>
<path d="M104.893 284.02C104.068 287.767 103.294 291.514 102.552 295.278" stroke="#263238" stroke-linecap="round" stroke-linejoin="round"/>
<path d="M145.126 119.534C145.126 124.536 141.071 128.597 136.077 128.597C131.083 128.597 127.028 124.536 127.028 119.534C127.028 114.532 131.083 110.471 136.077 110.471C141.071 110.471 145.126 114.532 145.126 119.534Z" fill="#BFBFBF" stroke="#263238" stroke-linecap="round" stroke-linejoin="round"/>
<path opacity="0.5" d="M141.12 125.18C144.236 122.39 144.499 117.586 141.697 114.466C138.895 111.346 134.115 111.082 131 113.888C127.885 116.695 127.621 121.482 130.423 124.602C133.225 127.722 138.005 127.986 141.12 125.18ZM132.978 116.876L132.583 116.431L133.374 115.721L133.769 116.167C134.577 115.688 135.418 115.902 136.159 116.744L136.538 117.157L135.632 117.966L135.203 117.487C134.808 117.058 134.478 117.058 134.181 117.339C133.868 117.619 133.819 117.949 134.214 118.379C134.61 118.808 135.055 118.973 136.159 118.907C137.494 118.824 138.203 119.072 138.829 119.765C139.571 120.591 139.686 121.416 139.159 122.175L139.571 122.638L138.78 123.348L138.368 122.885C137.56 123.364 136.736 123.149 135.994 122.308L135.83 122.109L136.736 121.301L136.967 121.548C137.362 121.977 137.676 121.994 137.989 121.713C138.302 121.433 138.318 121.119 137.923 120.673C137.527 120.244 137.082 120.079 135.978 120.145C134.626 120.228 133.934 119.98 133.308 119.287C132.566 118.461 132.451 117.603 132.995 116.843L132.978 116.876Z" fill="black"/>
<path d="M102.239 47.8566C102.239 52.8585 98.1843 56.9195 93.1903 56.9195C88.1962 56.9195 84.1415 52.8585 84.1415 47.8566C84.1415 42.8547 88.1962 38.7937 93.1903 38.7937C98.1843 38.7937 102.239 42.8547 102.239 47.8566Z" fill="#BFBFBF" stroke="#263238" stroke-linecap="round" stroke-linejoin="round"/>
<path opacity="0.5" d="M98.2338 53.5188C101.349 50.729 101.613 45.9252 98.8107 42.8052C96.0252 39.6852 91.2289 39.421 88.1137 42.2274C84.9986 45.0337 84.7349 49.821 87.5369 52.9411C90.3224 56.0611 95.1187 56.3252 98.2338 53.5188ZM90.0916 45.2153L89.696 44.7696L90.4872 44.0598L90.8828 44.5055C91.6904 44.0268 92.531 44.2414 93.2727 45.0833L93.6518 45.496L92.7452 46.3049L92.3167 45.8261C91.9211 45.3969 91.5915 45.3969 91.2948 45.6775C90.9816 45.9582 90.9322 46.2883 91.3278 46.7176C91.7233 47.1468 92.1684 47.3118 93.2727 47.2458C94.6077 47.1633 95.3165 47.4109 95.9428 48.1042C96.6845 48.9296 96.7999 49.755 96.2724 50.5144L96.6845 50.9766L95.8933 51.6865L95.4813 51.2242C94.6737 51.703 93.8495 51.4884 93.1078 50.6464L92.943 50.4484L93.8495 49.6395L94.0803 49.8871C94.4759 50.3163 94.789 50.3328 95.1022 50.0522C95.4153 49.7715 95.4318 49.4579 95.0363 49.0122C94.6407 48.583 94.1957 48.4179 93.0914 48.4839C91.7398 48.5664 91.0476 48.3188 90.4213 47.6255C89.6796 46.8001 89.5642 45.9417 90.1081 45.1823L90.0916 45.2153Z" fill="black"/>
<path d="M60.1929 223.105C55.3307 221.917 52.3639 216.997 53.5671 212.127C54.7538 207.258 59.6655 204.286 64.5277 205.491C69.39 206.68 72.3567 211.599 71.1535 216.469C69.9668 221.339 65.0552 224.31 60.1929 223.105Z" fill="#BFBFBF" stroke="#263238" stroke-linecap="round" stroke-linejoin="round"/>
<path opacity="0.5" d="M55.6768 217.872C57.6382 221.57 62.2367 222.973 65.9287 220.992C69.6207 219.028 71.0217 214.422 69.0438 210.724C67.0824 207.026 62.4839 205.623 58.7919 207.604C55.0999 209.569 53.6989 214.174 55.6768 217.872ZM65.665 211.929L66.1924 211.649L66.6869 212.573L66.1594 212.854C66.4232 213.762 66.0276 214.505 65.0387 215.033L64.5442 215.297L63.9673 214.224L64.5442 213.927C65.0551 213.646 65.1211 213.316 64.9398 212.953C64.742 212.59 64.4453 212.458 63.9179 212.738C63.4069 213.019 63.1432 213.415 62.9454 214.505C62.7147 215.825 62.3026 216.453 61.4785 216.898C60.5061 217.41 59.6655 217.344 59.0721 216.634L58.5282 216.915L58.0337 215.99L58.5777 215.71C58.3139 214.818 58.7095 214.075 59.6984 213.547L59.9292 213.432L60.5061 214.505L60.2094 214.67C59.6984 214.95 59.5995 215.264 59.7973 215.627C59.9951 215.99 60.2918 216.089 60.8192 215.809C61.3302 215.528 61.5939 215.132 61.7917 214.042C62.0389 212.705 62.4345 212.094 63.2586 211.649C64.2475 211.12 65.1046 211.203 65.6979 211.929H65.665Z" fill="black"/>
<path d="M168.777 303.714C166.47 299.521 159.877 301.551 152.18 313.651C144.483 325.752 141.351 339.883 143.214 345.017C145.076 350.151 169.948 356.391 169.948 356.391L175.074 343.366L168.777 303.714Z" fill="#92E3A9"/>
<mask id="mask5_238_9099" style="mask-type:luminance" maskUnits="userSpaceOnUse" x="142" y="301" width="34" height="56">
<path d="M168.777 303.714C166.47 299.521 159.877 301.551 152.18 313.651C144.483 325.752 141.351 339.883 143.214 345.017C145.076 350.151 169.948 356.391 169.948 356.391L175.074 343.366L168.777 303.714Z" fill="white"/>
</mask>
<g mask="url(#mask5_238_9099)">
<path opacity="0.5" d="M168.777 303.714C166.47 299.521 159.877 301.551 152.18 313.651C144.483 325.752 141.351 339.883 143.214 345.017C145.076 350.151 169.948 356.391 169.948 356.391L175.074 343.366L168.777 303.714Z" fill="black"/>
</g>
<path d="M168.777 303.714C166.47 299.521 159.877 301.551 152.18 313.651C144.483 325.752 141.351 339.883 143.214 345.017C145.076 350.151 169.948 356.391 169.948 356.391L175.074 343.366L168.777 303.714Z" stroke="#263238" stroke-linecap="round" stroke-linejoin="round"/>
<path d="M179.293 329.053L165.02 297.771C165.02 297.771 155.724 284.449 153.894 279.364C152.065 274.28 131.61 270.334 126.995 270.334C122.38 270.334 117.485 278.605 117.485 278.605H127.094C127.094 278.605 130.671 282.385 131.132 284.647C131.577 286.908 118.424 298.134 116.545 299.207C114.667 300.28 109.705 301.931 104.481 305.81C99.2557 309.689 87.4874 312.71 85.2788 316.194C83.0867 319.677 84.636 320.321 86.2018 321.13C87.7841 321.922 90.4048 322.12 90.4048 322.12C90.4048 322.12 89.4653 326.065 90.4048 328.145C91.3442 330.209 96.8163 330.027 96.8163 330.027C96.8163 330.027 97.08 332.9 99.7501 333.345C102.42 333.791 104.464 334.6 104.464 334.6C104.464 334.6 115.771 336.515 120.847 335.442C125.924 334.369 141.318 326.148 145.076 326.495C148.834 326.841 159.251 351.025 159.251 351.025C159.251 351.025 177.019 348.005 179.277 329.086L179.293 329.053Z" fill="#F5F6F7" stroke="#263238" stroke-linecap="round" stroke-linejoin="round"/>
<path d="M90.4213 322.087C90.4213 322.087 105.189 318.884 106.178 317.762C107.151 316.639 117.485 313.42 117.485 313.42" stroke="#F5F6F7" stroke-linecap="round" stroke-linejoin="round"/>
<path d="M96.8328 329.994C96.8328 329.994 105.123 328.294 108.008 327.931C110.892 327.551 122.726 322.104 122.726 322.104" stroke="#F5F6F7" stroke-linecap="round" stroke-linejoin="round"/>
<path d="M104.481 334.567C104.481 334.567 116.166 333.577 118.606 332.438C121.045 331.315 128.182 329.053 128.182 329.053" stroke="#F5F6F7" stroke-linecap="round" stroke-linejoin="round"/>
<path d="M277.148 315.269C259.808 326.709 249.326 354.36 249.326 354.36L222.262 404.792C222.262 404.792 199.5 348.665 193.056 347.938L168.761 303.697C168.761 303.697 171.629 329.615 161.509 340.625C151.389 351.636 143.197 345 143.197 345L150.762 365.916L152.641 375.853C152.641 375.853 184.567 471.798 195.017 477.741C205.45 483.684 229.201 486.341 249.342 471.567C269.483 456.792 303.931 400.946 307.195 382.671" fill="#0065FF"/>
<path d="M277.148 315.269C259.808 326.709 249.326 354.36 249.326 354.36L222.262 404.792C222.262 404.792 199.5 348.665 193.056 347.938L168.761 303.697C168.761 303.697 171.629 329.615 161.509 340.625C151.389 351.636 143.197 345 143.197 345L150.762 365.916L152.641 375.853C152.641 375.853 184.567 471.798 195.017 477.741C205.45 483.683 229.201 486.341 249.342 471.567C269.483 456.792 303.931 400.946 307.195 382.671" stroke="#383F4D" stroke-linecap="round" stroke-linejoin="round"/>
<path d="M183.282 354.591C184.155 353.271 184.963 351.917 185.705 350.53" stroke="#263238" stroke-linecap="round" stroke-linejoin="round"/>
<path d="M162.827 367.699C169.783 366.956 176.244 363.324 180.744 357.992" stroke="#263238" stroke-linecap="round" stroke-linejoin="round"/>
<path d="M150.762 365.916C153.466 367.055 156.35 367.699 159.267 367.814" stroke="#263238" stroke-linecap="round" stroke-linejoin="round"/>
<path d="M229.366 427.028C229.481 429.339 229.333 431.65 228.806 433.912" stroke="#263238" stroke-linecap="round" stroke-linejoin="round"/>
<path d="M222.279 404.792C225.46 410.339 227.85 416.562 228.921 422.868" stroke="#263238" stroke-linecap="round" stroke-linejoin="round"/>
<path d="M237.244 413.822C237.244 413.822 232.316 407.648 226.712 404.792" stroke="#263238" stroke-linecap="round" stroke-linejoin="round"/>
<path d="M280.032 340.642C280.032 340.642 264.802 338.595 252.721 352.561" stroke="#263238" stroke-linecap="round" stroke-linejoin="round"/>
<path d="M296.135 383.299C293.218 383.711 290.235 383.266 287.597 381.912" stroke="#263238" stroke-linecap="round" stroke-linejoin="round"/>
<path d="M314.43 362.845C312.04 374.417 305.579 380.294 299.959 382.341" stroke="#263238" stroke-linecap="round" stroke-linejoin="round"/>
<path d="M242.634 297.044C242.634 297.044 217.35 302.921 203.258 293.495" stroke="#263238" stroke-linecap="round" stroke-linejoin="round"/>
<path d="M151.949 451.988C151.949 451.988 165.728 490.947 197.588 497.55" stroke="#263238" stroke-linecap="round" stroke-linejoin="round"/>
<path d="M244.051 505.986C242.42 507.224 240.689 508.363 238.942 509.436" stroke="#263238" stroke-linecap="round" stroke-linejoin="round"/>
<path d="M68.2362 34.1715V68.4255" stroke="#263238" stroke-linecap="round" stroke-linejoin="round"/>
<path d="M68.2362 13.6191V27.3207" stroke="#263238" stroke-linecap="round" stroke-linejoin="round"/>
<path d="M68.2362 0.825409V8.15495" stroke="#263238" stroke-linecap="round" stroke-linejoin="round"/>
<path d="M61.7752 64.4306L68.2362 72.437L74.6972 64.4306" stroke="#263238" stroke-linecap="round" stroke-linejoin="round"/>
<path d="M85.3282 205.673V239.927" stroke="#263238" stroke-linecap="round" stroke-linejoin="round"/>
<path d="M85.3282 185.12V198.822" stroke="#263238" stroke-linecap="round" stroke-linejoin="round"/>
<path d="M85.3282 172.327V179.656" stroke="#263238" stroke-linecap="round" stroke-linejoin="round"/>
<path d="M78.8672 235.915L85.3282 243.922L91.7892 235.915" stroke="#263238" stroke-linecap="round" stroke-linejoin="round"/>
<path d="M119.1 102.597V136.851" stroke="#263238" stroke-linecap="round" stroke-linejoin="round"/>
<path d="M119.1 82.0611V95.7462" stroke="#263238" stroke-linecap="round" stroke-linejoin="round"/>
<path d="M119.1 69.2509V76.5805" stroke="#263238" stroke-linecap="round" stroke-linejoin="round"/>
<path d="M112.656 132.856L119.1 140.863L125.561 132.856" stroke="#263238" stroke-linecap="round" stroke-linejoin="round"/>
<path d="M173.063 156L174.711 189.842L222.509 187.365H264.539L266.187 155.175L254.649 147.746L205.203 141.969L173.063 156Z" fill="#0B111C"/>
</svg>
