<svg width="357" height="373" viewBox="0 0 357 373" fill="none" xmlns="http://www.w3.org/2000/svg">
<g clip-path="url(#clip0_237_8715)">
<path d="M89.065 335.877H242.255C246.159 335.877 248.992 332.702 248.583 328.787L220.971 64.809C220.562 60.8944 217.065 57.7193 213.159 57.7193H59.9714C56.0677 57.7193 53.2344 60.8944 53.6436 64.809L81.2552 328.787C81.6644 332.702 85.1613 335.877 89.0674 335.877H89.065Z" fill="#0065FF"/>
<path d="M93.2471 306.559H231.94L207.887 76.6148H69.1967L93.2471 306.559Z" fill="#D4DFFF"/>
<mask id="mask0_237_8715" style="mask-type:luminance" maskUnits="userSpaceOnUse" x="69" y="76" width="163" height="231">
<path d="M93.2471 306.559H231.94L207.887 76.6148H69.1967L93.2471 306.559Z" fill="white"/>
</mask>
<g mask="url(#mask0_237_8715)">
<path opacity="0.19" d="M89.9238 72.445C89.9238 72.445 115.568 241.381 237.999 266.791L246.513 315.056H79.8184L54.4477 72.5046L89.9238 72.4474V72.445Z" fill="#0065FF"/>
</g>
<path d="M148.496 328.558H181.294C183.535 328.558 185.162 326.736 184.927 324.489L184.365 319.126C184.13 316.879 182.122 315.056 179.881 315.056H147.083C144.843 315.056 143.215 316.879 143.451 319.126L144.012 324.489C144.248 326.736 146.256 328.558 148.496 328.558Z" fill="#003E9C"/>
<path d="M152.781 156.211C152.669 153.678 154.436 151.529 156.682 151.471C175.551 150.975 253.131 149.272 254.159 154.697C255.329 160.875 260.035 243.714 256.821 245.15C253.607 246.586 159.903 245.987 158.157 243.885C156.649 242.072 153.592 174.661 152.781 156.209V156.211Z" fill="#F8B2AD"/>
<path d="M152.619 153.933C152.619 153.933 152.036 151.462 147.757 150.405C143.479 149.348 63.0853 140.711 55.7965 147.588C48.5076 154.465 61.5343 245.686 65.4452 246.669C69.356 247.652 156.099 246.874 159.173 243.778C162.246 240.682 152.619 153.933 152.619 153.933Z" fill="#F8B2AD"/>
<path d="M246.268 162.831C246.268 162.831 157.191 164.193 153.126 163.697C149.06 163.201 63.8918 158.01 62.7476 159.079C61.6009 160.147 149.174 168.187 153.081 167.526C156.987 166.867 251.928 166.357 246.271 162.829L246.268 162.831Z" fill="#EF4438"/>
<path d="M65.3833 164.918C65.3833 164.918 152.797 170.391 153.378 171.648C153.956 172.903 159.684 234.389 157.47 236.178C155.255 237.967 74.1709 238.859 72.9648 237.893C71.7587 236.927 62.1885 170.849 65.3833 164.918Z" fill="#EF4438"/>
<path d="M59.8073 146.011C59.8073 146.011 56.8765 155.26 57.9375 172.352C58.9984 189.444 69.3156 246.92 69.3156 246.92L65.4476 246.667C65.4476 246.667 60.8207 236.013 57.8685 210.551C54.9139 185.088 51.0578 156.264 55.7988 147.585C55.7988 147.585 57.0573 146.075 59.8073 146.011Z" fill="#EF4438"/>
<path d="M251.326 153.179C251.326 153.179 252.843 154.093 253.65 164.611C254.454 175.128 256.352 232.793 255.398 239.124C254.444 245.455 253.628 245.503 253.628 245.503C253.628 245.503 257.349 245.997 257.62 245.002C257.891 244.007 259.135 233.346 258.315 222.189C257.494 211.032 257.366 178.578 256.44 174.878C255.515 171.178 257.413 152.776 251.323 153.179H251.326Z" fill="#EF4438"/>
<path d="M158.669 171.214C158.669 171.214 249.204 169.06 249.515 170.558C249.827 172.056 250.886 183.788 250.341 185.505C249.796 187.223 160.253 188.594 159.351 187.051C158.45 185.508 156.673 172.886 158.669 171.214Z" fill="#EF4438"/>
<path d="M149.422 174.697L149.384 174.301C149.282 174.291 149.151 174.282 148.991 174.267L149.029 173.792C149.327 173.816 149.527 173.833 149.626 173.845L149.821 173.864L149.895 174.651L149.422 174.697Z" fill="#F8B2AD"/>
<path d="M92.3098 235.653H91.7936V235.176H92.9807V235.653H92.3074H92.3098ZM94.1725 235.653V235.176H95.3595V235.651H94.1725V235.653ZM90.6065 235.653H89.4171V235.174H90.6065V235.653ZM96.549 235.648V235.171L97.736 235.166V235.643L96.549 235.648ZM88.2301 235.648L87.0406 235.643V235.166L88.2301 235.171V235.648ZM98.9255 235.641V235.164L100.113 235.159V235.636L98.9255 235.641ZM85.8512 235.639L84.6617 235.632V235.154L85.8536 235.162V235.639H85.8512ZM101.302 235.629V235.152L102.489 235.145V235.622L101.302 235.629ZM83.4699 235.62C83.0608 235.615 82.6635 235.612 82.2805 235.608L82.2852 235.131C82.6682 235.135 83.0631 235.14 83.4723 235.143L83.4675 235.62H83.4699ZM103.678 235.612V235.135L104.863 235.126L104.868 235.603L103.678 235.612ZM106.057 235.593L106.053 235.116L107.242 235.107L107.247 235.584L106.057 235.593ZM81.0934 235.591C80.6771 235.586 80.2799 235.579 79.904 235.572L79.9111 235.095C80.287 235.102 80.6843 235.107 81.0982 235.114L81.0911 235.591H81.0934ZM108.436 235.574L108.431 235.097L109.621 235.085L109.626 235.562L108.436 235.574ZM78.7146 235.55C78.2792 235.541 77.882 235.531 77.5251 235.519L77.5394 235.042C77.8962 235.052 78.2911 235.064 78.7264 235.073L78.7169 235.55H78.7146ZM110.813 235.55L110.808 235.073L111.976 235.061L112 235.3L111.983 235.539L110.815 235.55H110.813ZM113.189 235.524L113.184 235.047L114.376 235.033L114.383 235.51L113.189 235.524ZM115.573 235.493L115.566 235.016L116.755 234.999L116.762 235.477L115.573 235.493ZM76.3309 235.472C75.4745 235.429 75.3247 235.388 75.2462 235.352C75.1343 235.3 75.0725 235.185 75.0321 235.092L75.4674 234.899C75.4674 234.899 75.4769 234.921 75.4817 234.928C75.5554 234.94 75.7719 234.968 76.3571 234.997L76.3333 235.474L76.3309 235.472ZM117.952 235.457L117.945 234.98L119.132 234.961L119.139 235.438L117.952 235.457ZM120.323 235.419L120.316 234.942L121.506 234.923L121.513 235.4L120.323 235.419ZM122.7 235.379L122.69 234.902L123.88 234.88L123.889 235.357L122.7 235.379ZM125.079 235.333L125.069 234.856L126.259 234.832L126.268 235.31L125.079 235.333ZM127.455 235.283L127.446 234.806L128.633 234.78L128.645 235.257L127.455 235.283ZM129.834 235.228L129.822 234.751L131.009 234.723L131.021 235.2L129.832 235.228H129.834ZM132.213 235.169L132.201 234.692L133.391 234.658L133.405 235.135L132.215 235.169H132.213ZM134.59 235.102L134.575 234.625L135.762 234.589L135.777 235.066L134.587 235.102H134.59ZM136.968 235.028L136.952 234.551L138.141 234.51L138.158 234.987L136.968 235.028ZM139.347 234.945L139.331 234.467C139.733 234.453 140.128 234.439 140.518 234.422L140.537 234.899C140.147 234.914 139.749 234.93 139.347 234.945ZM141.726 234.852L141.707 234.374C142.109 234.358 142.506 234.341 142.894 234.322L142.916 234.799C142.525 234.816 142.131 234.835 141.726 234.852ZM144.105 234.744L144.081 234.267C144.486 234.248 144.883 234.227 145.268 234.207L145.294 234.685C144.909 234.706 144.512 234.725 144.105 234.744ZM146.484 234.618L146.455 234.141C146.865 234.117 147.259 234.093 147.642 234.069L147.673 234.546C147.29 234.57 146.893 234.596 146.484 234.618ZM148.863 234.463L148.827 233.988C149.243 233.957 149.638 233.926 150.012 233.895L150.052 234.37C149.676 234.401 149.281 234.434 148.863 234.463ZM151.242 234.258L151.194 233.783C151.632 233.737 152.027 233.69 152.369 233.644L152.433 234.117C152.084 234.164 151.684 234.212 151.242 234.258ZM153.63 233.904L153.518 233.442C153.844 233.363 153.956 233.301 153.989 233.279C153.999 233.239 154.018 233.143 154.032 232.926L154.508 232.955C154.491 233.215 154.467 233.375 154.425 233.477C154.351 233.664 154.12 233.788 153.63 233.904ZM74.7109 233.883C74.6419 233.549 74.5682 233.151 74.4897 232.697L74.9583 232.616C75.0368 233.065 75.1082 233.458 75.1772 233.788L74.7109 233.883ZM154.046 231.753C154.042 231.404 154.03 231.006 154.015 230.562L154.491 230.546C154.508 230.994 154.517 231.395 154.525 231.746L154.049 231.753H154.046ZM74.2946 231.514C74.2351 231.144 74.1757 230.748 74.1138 230.331L74.5848 230.262C74.6467 230.679 74.7062 231.073 74.7632 231.44L74.2922 231.514H74.2946ZM153.963 229.37C153.944 228.995 153.925 228.597 153.901 228.179L154.377 228.153C154.401 228.573 154.42 228.971 154.439 229.348L153.963 229.372V229.37ZM73.9449 229.145C73.8926 228.766 73.8379 228.37 73.7808 227.962L74.2518 227.898C74.3065 228.306 74.3612 228.699 74.4159 229.079L73.9449 229.145ZM153.835 226.987C153.811 226.602 153.787 226.206 153.761 225.796L154.237 225.765C154.263 226.175 154.287 226.574 154.31 226.958L153.835 226.987ZM73.6238 226.777C73.5738 226.393 73.5215 225.997 73.4691 225.591L73.9402 225.531C73.9925 225.935 74.0424 226.331 74.0948 226.715L73.6238 226.777ZM153.682 224.606C153.656 224.219 153.63 223.821 153.602 223.415L154.077 223.382C154.106 223.788 154.132 224.186 154.158 224.572L153.682 224.603V224.606ZM73.3193 224.408C73.2717 224.021 73.2217 223.625 73.1718 223.222L73.6452 223.165C73.6951 223.566 73.7427 223.962 73.7927 224.348L73.3216 224.408H73.3193ZM153.518 222.227L153.433 221.037L153.908 221.001L153.994 222.192L153.518 222.225V222.227ZM73.029 222.039L72.8863 220.853L73.3597 220.796L73.5024 221.979L73.029 222.037V222.039ZM153.345 219.849L153.254 218.659L153.728 218.623L153.818 219.813L153.345 219.849ZM72.746 219.67L72.608 218.485L73.0814 218.43L73.2194 219.615L72.746 219.67ZM153.164 217.471L153.071 216.283L153.544 216.245L153.637 217.435L153.164 217.471ZM72.4748 217.299L72.3416 216.113L72.8149 216.061L72.9482 217.247L72.4748 217.301V217.299ZM152.978 215.095L152.883 213.907L153.356 213.869L153.452 215.059L152.978 215.097V215.095ZM72.2083 214.928L72.0775 213.742L72.5509 213.69L72.6817 214.875L72.2083 214.928ZM152.788 212.717L152.69 211.529L153.164 211.49L153.261 212.678L152.788 212.717ZM71.949 212.554L71.8206 211.369L72.294 211.319L72.4224 212.504L71.949 212.554ZM152.593 210.338L152.495 209.15L152.969 209.11L153.066 210.298L152.593 210.336V210.338ZM71.6945 210.183L71.5684 208.998L72.0418 208.947L72.1679 210.133L71.6945 210.183ZM152.395 207.962L152.296 206.774L152.769 206.734L152.869 207.922L152.395 207.962ZM71.4471 207.81L71.3258 206.624L71.7992 206.576L71.9205 207.762L71.4471 207.812V207.81ZM152.196 205.586L152.093 204.398L152.567 204.358L152.669 205.546L152.196 205.586ZM71.2044 205.441L71.0855 204.255L71.5589 204.207L71.6778 205.393L71.2044 205.441ZM151.993 203.206L151.891 202.018L152.364 201.977L152.467 203.165L151.993 203.206ZM70.9666 203.065L70.85 201.874L71.3234 201.827L71.44 203.017L70.9666 203.065ZM151.789 200.83L151.687 199.646L152.16 199.606L152.262 200.789L151.789 200.83ZM70.7334 200.687L70.6192 199.499L71.0926 199.453L71.2068 200.639L70.7334 200.684V200.687ZM151.582 198.458L151.477 197.27L151.951 197.228L152.055 198.416L151.582 198.458ZM70.5051 198.313L70.3933 197.125L70.8666 197.08L70.9785 198.268L70.5051 198.313ZM151.373 196.083L151.268 194.895L151.741 194.852L151.846 196.04L151.373 196.083ZM70.2838 195.937L70.1744 194.749L70.6478 194.706L70.7572 195.894L70.2838 195.937ZM151.163 193.707L151.056 192.519L151.53 192.476L151.637 193.664L151.163 193.707ZM70.0673 193.561L69.9603 192.373L70.4337 192.33L70.5407 193.518L70.0673 193.561ZM150.951 191.331L150.844 190.143L151.318 190.1L151.425 191.288L150.951 191.331ZM69.858 191.185L69.7557 189.997L70.2291 189.957L70.3314 191.145L69.858 191.185ZM150.737 188.955L150.63 187.767L151.104 187.724L151.211 188.912L150.737 188.955ZM69.6534 188.807L69.5535 187.619L70.0269 187.578L70.1268 188.766L69.6534 188.807ZM150.523 186.579L150.416 185.391L150.89 185.348L150.999 186.536L150.526 186.579H150.523ZM69.4584 186.428C69.4251 186.028 69.3941 185.632 69.3632 185.238L69.8366 185.2C69.8675 185.591 69.8984 185.987 69.9318 186.388L69.4584 186.426V186.428ZM150.307 184.203L150.197 183.015L150.671 182.972L150.78 184.16L150.307 184.203ZM69.2704 184.05C69.2395 183.647 69.2086 183.251 69.18 182.86L69.6534 182.824C69.682 183.215 69.7129 183.611 69.7438 184.012L69.2704 184.048V184.05ZM150.088 181.827L149.978 180.639L150.452 180.596L150.561 181.784L150.088 181.827ZM69.092 181.669C69.0635 181.266 69.0349 180.868 69.0087 180.479L69.4845 180.446C69.5107 180.834 69.5392 181.233 69.5678 181.636L69.092 181.669ZM149.869 179.451L149.76 178.261L150.233 178.215L150.342 179.406L149.869 179.451ZM68.9302 179.289C68.9041 178.881 68.8779 178.485 68.8541 178.096L69.3299 178.067C69.3537 178.454 69.3799 178.852 69.406 179.258L68.9302 179.289ZM149.648 177.073L149.536 175.882L150.009 175.837L150.121 177.03L149.648 177.075V177.073ZM68.7851 176.903C68.7613 176.49 68.7399 176.095 68.7209 175.71L69.1967 175.687C69.2157 176.071 69.2371 176.467 69.2609 176.877L68.7851 176.903ZM68.6662 174.513C68.6495 174.091 68.6353 173.692 68.6234 173.315L69.0991 173.301C69.111 173.676 69.1253 174.074 69.142 174.494L68.6662 174.513ZM148.159 174.2L146.972 174.11L147.007 173.635L148.194 173.726L148.156 174.2H148.159ZM145.782 174.019L144.595 173.931L144.631 173.456L145.82 173.544L145.785 174.019H145.782ZM143.406 173.843L142.219 173.754L142.254 173.28L143.441 173.368L143.406 173.843ZM141.032 173.668L139.844 173.583L139.878 173.108L141.065 173.194L141.029 173.668H141.032ZM138.657 173.497L137.47 173.411L137.504 172.936L138.691 173.022L138.657 173.497ZM136.283 173.325L135.096 173.239L135.13 172.764L136.317 172.85L136.283 173.325ZM133.912 173.156L132.725 173.072L132.758 172.597L133.945 172.681L133.912 173.156ZM131.54 172.986L130.353 172.903L130.386 172.428L131.573 172.511L131.54 172.986ZM129.168 172.819L127.981 172.736L128.014 172.261L129.201 172.344L129.168 172.822V172.819ZM126.796 172.652L125.609 172.569L125.643 172.092L126.83 172.175L126.796 172.652ZM124.425 172.488L123.238 172.407L123.271 171.929L124.458 172.011L124.425 172.488ZM122.053 172.323L120.866 172.242L120.899 171.765L122.086 171.846L122.053 172.323ZM119.681 172.161L118.494 172.08L118.527 171.603L119.714 171.684L119.681 172.161ZM68.5996 172.118C68.5996 171.939 68.5972 171.767 68.5972 171.603C68.5972 171.357 68.5996 171.128 68.6043 170.918L69.0801 170.93C69.0754 171.135 69.073 171.362 69.073 171.603C69.073 171.765 69.073 171.934 69.0754 172.113L68.5996 172.118ZM117.309 172.001L116.122 171.92L116.153 171.443L117.34 171.524L117.309 172.001ZM114.938 171.841L113.751 171.762L113.782 171.285L114.969 171.364L114.938 171.841ZM112.566 171.684L111.379 171.605L111.41 171.128L112.597 171.207L112.566 171.684ZM110.194 171.526L109.002 171.448L109.033 170.97L110.225 171.049L110.194 171.526ZM107.815 171.371L106.628 171.295L106.659 170.818L107.846 170.894L107.815 171.371ZM105.444 171.216L104.261 171.14L104.292 170.663L105.475 170.739L105.444 171.216ZM103.074 171.063L101.887 170.987L101.918 170.51L103.105 170.586L103.074 171.063ZM100.7 170.913L99.5131 170.839L99.5416 170.362L100.729 170.436L100.698 170.913H100.7ZM98.326 170.765L97.1389 170.691L97.1675 170.214L98.3545 170.288L98.326 170.765ZM95.9519 170.62L94.7648 170.548L94.7934 170.071L95.9804 170.143L95.9519 170.62ZM93.5778 170.477L92.3907 170.405L92.4192 169.928L93.6063 170L93.5778 170.477ZM91.2036 170.336L90.0166 170.267L90.0428 169.79L91.2298 169.859L91.2013 170.336H91.2036ZM88.8295 170.2L87.6425 170.133L87.6686 169.656L88.8557 169.723L88.8295 170.2ZM86.4554 170.066L85.2684 170.002L85.2945 169.525L86.4816 169.589L86.4554 170.066ZM84.0813 169.938L82.8942 169.876L82.918 169.398L84.1075 169.46L84.0813 169.938ZM81.7072 169.816L80.5201 169.759L80.5439 169.282L81.7333 169.341L81.7096 169.818L81.7072 169.816ZM69.1634 169.778L68.6947 169.699C68.7447 169.394 68.8137 169.234 68.935 169.15C69.0159 169.093 69.1562 169.029 69.8081 168.993L69.8342 169.47C69.4322 169.491 69.2776 169.522 69.2228 169.539C69.2109 169.57 69.1872 169.639 69.1634 169.778ZM79.3307 169.701C78.9239 169.682 78.529 169.666 78.1412 169.649L78.1627 169.172C78.5504 169.188 78.9453 169.208 79.3521 169.224L79.3307 169.701ZM76.9542 169.599C76.545 169.582 76.1477 169.568 75.7647 169.553L75.7814 169.076C76.1644 169.091 76.5617 169.105 76.9708 169.122L76.9518 169.599H76.9542ZM74.5753 169.511C74.159 169.496 73.7617 169.487 73.3859 169.477L73.3978 169C73.7736 169.01 74.1709 169.022 74.5896 169.036L74.5753 169.513V169.511ZM72.1964 169.451C71.8158 169.446 71.4685 169.441 71.1521 169.441H71.007V168.964H71.1521C71.4709 168.964 71.8206 168.967 72.2036 168.974L72.1964 169.451Z" fill="#F8B2AD"/>
<path d="M160.976 190.491C160.448 190.527 160.048 190.978 160.072 191.507C160.372 198.153 162.253 238.151 164.218 237.934C166.362 237.695 250.576 239.498 251.207 237.96C251.837 236.421 251.299 192.707 248.942 189.408C248.942 189.408 171.874 189.744 160.976 190.491Z" fill="#EF4438"/>
<path d="M152.619 153.933L154.793 174.501C154.793 174.501 152.731 152.76 156.682 151.471C156.682 151.471 153.899 151.419 152.619 153.933Z" fill="#EF4438"/>
<path d="M158.466 244.122C158.466 244.122 159.753 242.402 159.763 239.766C159.772 237.127 159.489 229.696 159.489 229.696C159.489 229.696 161.549 242.449 159.879 244.315L158.466 244.122Z" fill="#EF4438"/>
<path d="M233.322 236.497H232.133V236.02H233.322V236.497ZM234.512 236.497V236.02H235.701V236.495H234.512V236.497ZM230.943 236.497H229.754V236.018H230.946V236.497H230.943ZM236.893 236.493V236.016L238.08 236.011V236.488L236.893 236.493ZM228.562 236.493H227.373V236.013H228.565V236.493H228.562ZM226.179 236.486L224.989 236.481V236.004L226.181 236.008V236.486H226.179ZM239.27 236.483V236.006C239.674 236.006 240.071 236.001 240.457 235.999L240.461 236.476C240.076 236.478 239.679 236.481 239.272 236.483H239.27ZM223.797 236.476L222.608 236.471V235.994L223.8 235.999V236.476H223.797ZM221.414 236.464L220.224 236.457V235.98L221.418 235.987V236.464H221.414ZM241.646 236.464L241.641 235.987C242.053 235.982 242.45 235.977 242.831 235.975L242.835 236.452C242.455 236.457 242.058 236.462 241.646 236.464ZM219.03 236.452L217.841 236.445V235.968L219.035 235.975V236.452H219.03ZM216.646 236.438L215.457 236.431V235.954L216.651 235.961V236.438H216.646ZM244.02 236.435L244.013 235.958C244.434 235.951 244.829 235.944 245.202 235.937L245.212 236.414C244.838 236.421 244.441 236.431 244.02 236.435ZM214.263 236.421L213.073 236.412L213.078 235.934L214.268 235.944V236.421H214.263ZM211.879 236.404L210.69 236.395L210.694 235.918L211.884 235.927L211.879 236.404ZM209.498 236.385L208.304 236.376L208.308 235.899L209.503 235.908L209.498 236.385ZM246.401 236.383L246.387 235.906C246.839 235.892 247.236 235.877 247.572 235.861L247.596 236.338C247.258 236.354 246.858 236.369 246.401 236.383ZM207.112 236.366L205.92 236.357L205.925 235.88L207.117 235.889L207.112 236.366ZM204.731 236.345L203.544 236.333L203.548 235.856L204.735 235.868L204.731 236.345ZM202.357 236.323L201.167 236.311L201.172 235.834L202.361 235.846L202.357 236.323ZM199.975 236.299L198.786 236.288L198.791 235.81L199.98 235.822L199.975 236.299ZM197.594 236.276L196.405 236.264L196.409 235.787L197.599 235.799L197.594 236.276ZM195.213 236.249L194.023 236.237L194.028 235.76L195.218 235.772L195.213 236.249ZM248.814 236.233L248.726 235.787C248.726 235.787 248.716 235.799 248.716 235.801C248.716 235.799 248.721 235.791 248.726 235.782V235.765H248.733C248.759 235.686 248.809 235.474 248.854 234.911L249.327 234.949C249.251 235.913 249.144 236.068 249.032 236.152C248.982 236.19 248.921 236.214 248.814 236.233ZM192.832 236.223L191.642 236.209L191.647 235.732L192.836 235.746L192.832 236.223ZM190.45 236.195L189.261 236.18L189.266 235.703L190.455 235.717L190.45 236.195ZM188.069 236.166L186.88 236.152L186.884 235.674L188.074 235.689L188.069 236.166ZM185.688 236.137L184.496 236.123L184.503 235.646L185.693 235.66L185.688 236.137ZM183.307 236.106L182.115 236.09L182.122 235.612L183.311 235.629L183.304 236.106H183.307ZM180.925 236.075L179.733 236.059L179.741 235.581L180.93 235.598L180.923 236.075H180.925ZM178.544 236.042L177.352 236.025L177.359 235.548L178.551 235.565L178.544 236.042ZM176.163 236.006L174.971 235.987L174.978 235.51L176.17 235.529L176.163 236.006ZM173.779 235.968L172.587 235.949L172.597 235.472L173.789 235.491L173.782 235.968H173.779ZM171.395 235.925L170.204 235.901L170.213 235.424L171.405 235.448L171.395 235.925ZM169.007 235.877C168.529 235.865 168.127 235.856 167.811 235.846L167.825 235.369C168.141 235.379 168.541 235.388 169.019 235.4L169.007 235.877ZM166.569 235.391C166.478 235.143 166.388 234.744 166.295 234.179L166.764 234.1C166.852 234.63 166.937 235.009 167.016 235.228L166.569 235.391ZM249.387 233.745L248.911 233.728C248.923 233.37 248.933 232.972 248.937 232.54L249.413 232.547C249.406 232.981 249.399 233.382 249.387 233.745ZM166.119 232.984C166.072 232.619 166.024 232.218 165.976 231.789L166.45 231.736C166.497 232.163 166.545 232.559 166.593 232.922L166.122 232.984H166.119ZM249.425 231.352H248.949V230.975C248.949 230.71 248.949 230.438 248.949 230.159H249.425C249.425 230.438 249.425 230.71 249.425 230.975V231.352ZM165.853 230.596C165.815 230.214 165.777 229.816 165.739 229.403L166.212 229.36C166.25 229.773 166.288 230.169 166.326 230.55L165.853 230.598V230.596ZM248.937 228.964C248.933 228.578 248.928 228.179 248.921 227.771L249.396 227.764C249.404 228.174 249.408 228.573 249.413 228.959L248.937 228.964ZM165.631 228.21C165.598 227.824 165.565 227.425 165.532 227.018L166.005 226.979C166.038 227.387 166.072 227.783 166.105 228.17L165.631 228.21ZM248.899 226.576C248.892 226.185 248.883 225.789 248.875 225.383L249.351 225.374C249.361 225.779 249.368 226.178 249.377 226.569L248.902 226.579L248.899 226.576ZM165.436 225.825C165.405 225.434 165.377 225.038 165.346 224.632L165.819 224.596C165.85 224.999 165.879 225.398 165.91 225.787L165.436 225.822V225.825ZM248.845 224.188C248.835 223.795 248.823 223.399 248.814 222.996L249.289 222.981C249.301 223.384 249.311 223.783 249.32 224.176L248.845 224.188ZM165.258 223.439C165.229 223.046 165.201 222.65 165.175 222.247L165.651 222.213C165.679 222.614 165.705 223.012 165.734 223.406L165.258 223.439ZM248.778 221.803C248.766 221.409 248.754 221.011 248.74 220.61L249.216 220.596C249.227 220.997 249.242 221.395 249.254 221.791L248.778 221.805V221.803ZM165.094 221.054L165.015 219.861L165.491 219.83L165.57 221.023L165.094 221.054ZM248.702 219.417L248.661 218.225L249.137 218.208L249.178 219.403L248.702 219.42V219.417ZM164.937 218.668L164.863 217.476L165.339 217.447L165.413 218.64L164.937 218.671V218.668ZM248.616 217.029L248.571 215.839L249.047 215.82L249.092 217.01L248.616 217.027V217.029ZM164.789 216.283L164.718 215.09L165.194 215.061L165.265 216.254L164.789 216.283ZM248.523 214.649L248.473 213.454L248.949 213.435L248.999 214.63L248.523 214.649ZM164.647 213.893L164.578 212.7L165.053 212.674L165.122 213.866L164.647 213.895V213.893ZM248.423 212.263L248.371 211.071L248.847 211.049L248.899 212.242L248.423 212.263ZM164.511 211.509L164.444 210.317L164.92 210.29L164.987 211.483L164.511 211.509ZM248.316 209.875L248.259 208.683L248.735 208.659L248.792 209.852L248.316 209.873V209.875ZM164.38 209.122L164.316 207.929L164.792 207.903L164.856 209.095L164.38 209.122ZM248.202 207.49L248.143 206.297L248.618 206.273L248.678 207.466L248.202 207.49ZM164.252 206.734L164.19 205.541L164.666 205.517L164.728 206.71L164.252 206.736V206.734ZM248.078 205.104L248.014 203.912L248.49 203.885L248.554 205.078L248.078 205.104ZM164.128 204.346L164.069 203.151L164.544 203.127L164.604 204.322L164.128 204.346ZM247.948 202.721C247.924 202.318 247.9 201.92 247.879 201.529L248.354 201.5C248.378 201.891 248.402 202.29 248.423 202.693L247.948 202.721ZM164.009 201.958L163.95 200.763L164.425 200.739L164.485 201.934L164.009 201.958ZM247.805 200.336C247.779 199.928 247.755 199.532 247.729 199.143L248.205 199.112C248.231 199.501 248.255 199.897 248.281 200.305L247.805 200.333V200.336ZM163.893 199.568L163.835 198.373L164.311 198.349L164.368 199.544L163.893 199.568ZM247.65 197.953C247.622 197.54 247.593 197.142 247.565 196.762L248.038 196.727C248.067 197.108 248.095 197.507 248.124 197.919L247.648 197.953H247.65ZM163.781 197.175L163.726 195.978L164.202 195.956L164.256 197.154L163.781 197.175ZM247.472 195.57C247.436 195.145 247.403 194.747 247.37 194.379L247.843 194.336C247.876 194.704 247.912 195.104 247.945 195.531L247.472 195.57ZM163.669 194.778L163.614 193.568L164.09 193.547L164.145 194.756L163.669 194.778ZM164.421 193.516L164.314 193.051C164.601 192.984 165.006 192.917 165.517 192.853L165.577 193.325C165.082 193.387 164.692 193.451 164.421 193.516ZM166.757 193.196L166.711 192.721C167.078 192.686 167.475 192.652 167.903 192.616L167.941 193.091C167.516 193.125 167.121 193.16 166.757 193.194V193.196ZM247.251 193.196C247.194 192.686 247.139 192.292 247.091 192.027L247.56 191.939C247.612 192.216 247.667 192.621 247.726 193.144L247.253 193.196H247.251ZM169.128 193.005L169.095 192.528C169.476 192.502 169.873 192.476 170.287 192.449L170.315 192.927C169.902 192.953 169.507 192.979 169.128 193.005ZM171.505 192.857L171.479 192.38C171.864 192.359 172.261 192.337 172.671 192.316L172.694 192.793C172.288 192.814 171.89 192.836 171.505 192.857ZM173.884 192.733L173.86 192.256C174.248 192.237 174.645 192.218 175.049 192.201L175.071 192.678C174.666 192.698 174.269 192.717 173.881 192.733H173.884ZM176.263 192.626L176.244 192.149L177.433 192.099L177.452 192.576L176.263 192.626ZM178.642 192.531L178.623 192.053L179.812 192.008L179.829 192.485L178.639 192.531H178.642ZM181.02 192.442L181.004 191.965L182.193 191.925L182.21 192.402L181.02 192.442ZM183.399 192.364L183.383 191.886L184.572 191.848L184.586 192.325L183.397 192.364H183.399ZM185.778 192.29L185.764 191.812L186.953 191.777L186.968 192.254L185.778 192.29ZM188.157 192.22L188.143 191.743L189.332 191.712L189.344 192.189L188.155 192.22H188.157ZM190.536 192.158L190.524 191.681L191.713 191.65L191.725 192.127L190.536 192.158ZM192.915 192.099L192.903 191.622L194.092 191.593L194.104 192.07L192.915 192.099ZM195.294 192.044L195.284 191.567L196.474 191.541L196.483 192.018L195.294 192.044ZM197.673 191.991L197.663 191.514L198.852 191.49L198.862 191.968L197.673 191.991ZM200.054 191.944L200.044 191.467L201.234 191.443L201.243 191.92L200.054 191.944ZM202.433 191.898L202.423 191.421L203.613 191.4L203.622 191.877L202.433 191.898ZM204.814 191.855L204.807 191.378L206.001 191.359L206.008 191.836L204.814 191.855ZM207.2 191.815L207.193 191.338L208.382 191.319L208.389 191.796L207.2 191.815ZM209.579 191.777L209.572 191.3L210.759 191.283L210.766 191.76L209.579 191.777ZM211.955 191.741L211.948 191.264L213.138 191.247L213.145 191.724L211.955 191.741ZM214.337 191.71L214.329 191.233L215.519 191.219L215.524 191.696L214.334 191.71H214.337ZM246.456 191.693C246.159 191.674 245.761 191.66 245.274 191.643L245.288 191.166C245.781 191.18 246.183 191.197 246.485 191.216L246.456 191.693ZM216.718 191.681L216.713 191.204L217.902 191.19L217.907 191.667L216.718 191.681ZM219.099 191.655L219.094 191.178L220.284 191.166L220.288 191.643L219.099 191.655ZM221.48 191.631L221.476 191.154L222.665 191.142L222.67 191.619L221.48 191.631ZM244.089 191.614C243.723 191.607 243.326 191.6 242.9 191.595L242.907 191.118C243.333 191.125 243.73 191.13 244.099 191.137L244.089 191.614ZM223.862 191.61L223.857 191.133L225.046 191.123L225.051 191.6L223.862 191.61ZM226.243 191.591V191.114L227.43 191.106V191.583L226.243 191.591ZM241.713 191.581C241.332 191.576 240.937 191.574 240.523 191.572V191.094C240.939 191.097 241.337 191.102 241.717 191.104L241.713 191.581ZM228.622 191.576V191.099L229.811 191.092V191.569L228.622 191.576ZM231.003 191.564V191.087L232.192 191.083V191.56L231.003 191.564ZM239.334 191.564L238.144 191.56V191.083L239.336 191.087V191.564H239.334ZM233.382 191.557V191.08H234.571V191.555H233.382V191.557ZM236.953 191.557H235.763V191.08H236.953V191.557Z" fill="#F8B2AD"/>
<path opacity="0.48" d="M74.3041 174.844C74.3041 174.844 76.9827 230.496 78.9215 231.433C80.8603 232.371 149.348 233.809 150.488 230.994C151.625 228.179 148.551 178.349 146.187 177.046C143.82 175.746 74.1542 171.832 74.3065 174.844H74.3041Z" fill="#F8B2AD"/>
<mask id="mask1_237_8715" style="mask-type:luminance" maskUnits="userSpaceOnUse" x="74" y="173" width="77" height="60">
<path d="M74.3041 174.844C74.3041 174.844 76.9827 230.496 78.9215 231.433C80.8603 232.371 149.348 233.809 150.488 230.994C151.625 228.179 148.551 178.349 146.187 177.046C143.82 175.746 74.1542 171.832 74.3065 174.844H74.3041Z" fill="white"/>
</mask>
<g mask="url(#mask1_237_8715)">
<path opacity="0.21" d="M90.8991 171.555L71.2187 203.22L74.021 221.583L95.1002 196.567L78.5885 234.52L100.902 235.205L118.596 194.021L108.346 235.336L141.714 234.615L151.565 195.593L151.342 172.941L144.065 172.562L134.199 211.288L139.276 171.949L113.463 170.462L102.608 199.596L110.011 170.357L90.8991 171.555Z" fill="white"/>
</g>
<path d="M116.146 161.331C116.146 161.331 130.593 130.646 152.774 129.654C174.954 128.661 185.088 163.633 185.088 163.633L153.904 163.826L116.146 161.331Z" fill="#68A9FD"/>
<mask id="mask2_237_8715" style="mask-type:luminance" maskUnits="userSpaceOnUse" x="116" y="129" width="70" height="35">
<path d="M116.146 161.331C116.146 161.331 130.593 130.646 152.774 129.654C174.954 128.661 185.088 163.633 185.088 163.633L153.904 163.826L116.146 161.331Z" fill="white"/>
</mask>
<g mask="url(#mask2_237_8715)">
<path opacity="0.34" d="M144.364 128.867C144.364 128.867 151.801 146.037 155.952 149.678C160.103 153.32 187.774 157.135 187.774 157.135L188.466 167.566C188.466 167.566 149.379 164.549 144.364 164.918C139.35 165.288 112.518 161.991 112.518 161.991C112.518 161.991 118.768 145.341 121.882 142.395C124.996 139.446 144.364 128.867 144.364 128.867Z" fill="#6880E4"/>
</g>
<path d="M152.776 129.654C152.776 129.654 172.147 127.855 184.95 163.251C196.612 195.493 245.119 246.667 253.669 255.531C254.437 256.328 255.624 256.55 256.626 256.082C261.645 253.747 276.318 246.96 277.205 247.07C278.276 247.204 288.976 214.599 291.919 214C294.861 213.401 322.951 202.034 323.22 199.401C323.486 196.767 265.787 133.726 248.623 123.263C231.46 112.8 154.617 127.194 152.776 129.654Z" fill="#7DB9F9"/>
<path d="M160.07 127.426C160.07 127.426 175.38 130.799 186.087 151.08C196.795 171.362 200.363 184.508 216.82 203.187C233.277 221.865 254.218 250.1 257.925 249.105C261.631 248.11 273.39 243.232 273.787 242.239C274.184 241.245 282.969 212.96 284.951 211.369C286.935 209.778 316.359 197.788 315.962 197.015C315.565 196.242 266.586 139.947 263.018 137.562C259.449 135.176 243.875 119.73 231.938 119.659C220.001 119.587 187.786 118.487 160.067 127.428L160.07 127.426Z" fill="#97C7FA"/>
<mask id="mask3_237_8715" style="mask-type:luminance" maskUnits="userSpaceOnUse" x="160" y="119" width="156" height="131">
<path d="M160.07 127.426C160.07 127.426 175.38 130.799 186.087 151.08C196.795 171.362 200.363 184.508 216.82 203.187C233.277 221.865 254.218 250.1 257.925 249.105C261.631 248.11 273.39 243.232 273.787 242.239C274.184 241.245 282.969 212.96 284.951 211.369C286.935 209.778 316.359 197.788 315.962 197.015C315.565 196.242 266.586 139.947 263.018 137.562C259.449 135.176 243.875 119.73 231.938 119.659C220.001 119.587 187.786 118.487 160.067 127.428L160.07 127.426Z" fill="white"/>
</mask>
<g mask="url(#mask3_237_8715)">
<path opacity="0.24" d="M295.164 164.918L274.446 261.333L233.698 258.547L243.159 191.588L225.66 232.643L200.991 202.309L223.074 142.23L192.368 189.408L158.466 140.615L206.536 116.111L257.813 117.853L272.398 134.222L261.131 196.798L278.842 140.615L295.164 164.918Z" fill="#F6F9FF"/>
</g>
<path d="M227.684 143.158C222.774 147.273 222.42 155.207 223.712 161.025C225.06 167.101 228.362 173.003 233.156 177.011C238.037 181.092 245.771 183.876 251.751 180.508C254.356 179.041 256.252 176.469 257.213 173.633C260.139 164.983 255.796 156.097 249.867 149.876C244.517 144.26 236.258 137.039 228.355 142.643C228.122 142.807 227.901 142.979 227.684 143.16V143.158Z" fill="#68A9FD"/>
<path d="M135.151 129.26H13.8783C12.2964 129.26 10.8381 127.974 10.6217 126.386L0.0261529 48.4159C-0.190325 46.8295 0.918231 45.5414 2.50256 45.5414H123.778C125.36 45.5414 126.818 46.8272 127.034 48.4159L137.627 126.383C137.844 127.97 136.735 129.258 135.151 129.258V129.26Z" fill="#FCD199"/>
<path d="M65.2335 67.86H12.5105C11.9919 67.86 11.5137 67.4378 11.4447 66.9178L9.91512 55.6535C9.84376 55.1334 10.2077 54.7112 10.7263 54.7112H63.4493C63.9679 54.7112 64.4461 55.1334 64.515 55.6535L66.0447 66.9178C66.116 67.4378 65.7521 67.86 65.2335 67.86Z" fill="#F8A331"/>
<path d="M17.9414 75.0046L19.4306 77.3781C19.4853 77.464 19.5757 77.5237 19.6709 77.538L22.3328 77.9173C22.5755 77.953 22.7111 78.2465 22.5612 78.4158L20.9222 80.2622C20.8627 80.329 20.8437 80.4268 20.8746 80.5198L21.6739 83.1272C21.7476 83.3657 21.5216 83.547 21.2933 83.4349L18.7907 82.204C18.7003 82.1587 18.598 82.1587 18.5195 82.204L16.3524 83.4349C16.1549 83.547 15.879 83.3657 15.8885 83.1272L15.9813 80.5198C15.9836 80.4244 15.9408 80.329 15.8623 80.2622L13.7213 78.4158C13.5263 78.2465 13.581 77.953 13.8141 77.9173L16.3738 77.538C16.4665 77.5237 16.5403 77.464 16.5712 77.3781L17.4157 75.0046C17.4942 74.7875 17.8011 74.7875 17.9391 75.0046H17.9414Z" fill="#F8A331"/>
<path d="M34.32 75.0046L35.8092 77.3781C35.8639 77.464 35.9543 77.5237 36.0494 77.538L38.7114 77.9173C38.954 77.953 39.0896 78.2465 38.9398 78.4158L37.3007 80.2622C37.2412 80.329 37.2222 80.4268 37.2531 80.5198L38.0524 83.1272C38.1262 83.3657 37.9002 83.547 37.6718 83.4349L35.1692 82.204C35.0788 82.1587 34.9766 82.1587 34.898 82.204L32.7309 83.4349C32.5334 83.547 32.2575 83.3657 32.267 83.1272L32.3598 80.5198C32.3622 80.4244 32.3194 80.329 32.2408 80.2622L30.0999 78.4158C29.9048 78.2465 29.9595 77.953 30.1926 77.9173L32.7523 77.538C32.8451 77.5237 32.9188 77.464 32.9498 77.3781L33.7943 75.0046C33.8728 74.7875 34.1796 74.7875 34.3176 75.0046H34.32Z" fill="#F8A331"/>
<path d="M50.7009 75.0046L52.1901 77.3781C52.2448 77.464 52.3352 77.5237 52.4303 77.538L55.0923 77.9173C55.335 77.953 55.4705 78.2465 55.3207 78.4158L53.6816 80.2622C53.6222 80.329 53.6031 80.4268 53.6341 80.5198L54.4334 83.1272C54.5071 83.3657 54.2811 83.547 54.0527 83.4349L51.5502 82.204C51.4598 82.1587 51.3575 82.1587 51.279 82.204L49.1118 83.4349C48.9144 83.547 48.6384 83.3657 48.6479 83.1272L48.7407 80.5198C48.7431 80.4244 48.7003 80.329 48.6218 80.2622L46.4808 78.4158C46.2857 78.2465 46.3404 77.953 46.5736 77.9173L49.1332 77.538C49.226 77.5237 49.2997 77.464 49.3307 77.3781L50.1752 75.0046C50.2537 74.7875 50.5605 74.7875 50.6985 75.0046H50.7009Z" fill="#F8A331"/>
<path d="M67.0819 75.0046L68.571 77.3781C68.6257 77.464 68.7161 77.5237 68.8113 77.538L71.4733 77.9173C71.7159 77.953 71.8515 78.2465 71.7016 78.4158L70.0626 80.2622C70.0031 80.329 69.9841 80.4268 70.015 80.5198L70.8143 83.1272C70.8881 83.3657 70.6621 83.547 70.4337 83.4349L67.9311 82.204C67.8407 82.1587 67.7384 82.1587 67.6599 82.204L65.4928 83.4349C65.2953 83.547 65.0194 83.3657 65.0289 83.1272L65.1217 80.5198C65.124 80.4244 65.0812 80.329 65.0027 80.2622L62.8617 78.4158C62.6667 78.2465 62.7214 77.953 62.9545 77.9173L65.5142 77.538C65.607 77.5237 65.6807 77.464 65.7116 77.3781L66.5561 75.0046C66.6346 74.7875 66.9415 74.7875 67.0795 75.0046H67.0819Z" fill="#F8A331"/>
<path d="M83.4604 75.0046L84.9496 77.3781C85.0043 77.464 85.0947 77.5237 85.1898 77.538L87.8518 77.9173C88.0968 77.953 88.23 78.2465 88.0802 78.4158L86.4411 80.2622C86.3817 80.329 86.3626 80.4268 86.3935 80.5198L87.1928 83.1272C87.2666 83.3657 87.0406 83.547 86.8122 83.4349L84.3097 82.204C84.2193 82.1587 84.117 82.1587 84.0385 82.204L81.8713 83.4349C81.6739 83.547 81.3979 83.3657 81.4074 83.1272L81.5002 80.5198C81.5026 80.4244 81.4598 80.329 81.3813 80.2622L79.2403 78.4158C79.0452 78.2465 79.0999 77.953 79.333 77.9173L81.8927 77.538C81.9855 77.5237 82.0592 77.464 82.0902 77.3781L82.9347 75.0046C83.0132 74.7875 83.32 74.7875 83.458 75.0046H83.4604Z" fill="white"/>
<path d="M112.699 96.2474H16.1525C15.7529 96.2474 15.3842 95.9229 15.3294 95.5222L14.7395 91.1806C14.6848 90.7798 14.9655 90.4554 15.3651 90.4554H111.912C112.311 90.4554 112.68 90.7798 112.735 91.1806L113.325 95.5222C113.38 95.9229 113.099 96.2474 112.699 96.2474Z" fill="#F8A331"/>
<path d="M114.022 105.973H17.4728C17.0732 105.973 16.7044 105.649 16.6497 105.248L16.0598 100.906C16.005 100.505 16.2858 100.181 16.6854 100.181H113.234C113.634 100.181 114.003 100.505 114.057 100.906L114.647 105.248C114.702 105.649 114.421 105.973 114.022 105.973Z" fill="#F8A331"/>
<path d="M67.9287 115.701H19.0952C18.529 115.701 18.008 115.241 17.9319 114.675L17.4228 110.935C17.3467 110.367 17.7416 109.909 18.3078 109.909H67.1413C67.7075 109.909 68.2285 110.369 68.3046 110.935L68.8137 114.675C68.8898 115.243 68.4949 115.701 67.9287 115.701Z" fill="#F8A331"/>
<path d="M281.58 114.036H165.403C163.657 114.036 162.018 112.617 161.742 110.866L157.36 83.0389C157.084 81.288 158.276 79.8686 160.022 79.8686H276.199C277.945 79.8686 279.584 81.288 279.86 83.0389L284.242 110.866C284.518 112.617 283.326 114.036 281.58 114.036Z" fill="#F9C438"/>
<path d="M175.228 96.1734C174.31 95.5198 173.629 94.5179 173.453 93.3919C173.144 91.4263 174.483 89.8304 176.444 89.8304C178.404 89.8304 180.245 91.4239 180.554 93.3919C180.733 94.5179 180.366 95.5222 179.655 96.1734C183.247 97.0322 186.375 99.8566 187.596 103.394C188.516 101.636 188.885 99.5131 188.523 97.223C187.572 91.1782 181.913 86.276 175.884 86.276C169.856 86.276 165.739 91.1782 166.692 97.223C167.052 99.5131 168.089 101.636 169.564 103.394C169.671 99.8566 171.909 97.0322 175.23 96.1734H175.228Z" fill="#F6AB36"/>
<path d="M179.331 108.17C183.078 108.17 186.085 106.276 187.596 103.394C186.375 99.8566 183.247 97.0322 179.655 96.1734C180.366 95.5198 180.733 94.5179 180.554 93.3919C180.245 91.4263 178.404 89.8304 176.443 89.8304C174.483 89.8304 173.144 91.4239 173.453 93.3919C173.632 94.5179 174.312 95.5222 175.228 96.1734C171.907 97.0322 169.668 99.8566 169.561 103.394C171.981 106.278 175.585 108.17 179.329 108.17H179.331Z" fill="white"/>
<path d="M271.108 95.3814H201.786C200.953 95.3814 200.17 94.7039 200.037 93.8666L198.962 87.037C198.831 86.202 199.4 85.5222 200.232 85.5222H269.555C270.388 85.5222 271.17 86.1997 271.303 87.037L272.379 93.8666C272.51 94.7015 271.941 95.3814 271.108 95.3814Z" fill="#F6AB36"/>
<path d="M273.154 108.382H203.831C202.999 108.382 202.216 107.705 202.083 106.868L201.008 100.038C200.877 99.203 201.445 98.5231 202.278 98.5231H271.601C272.433 98.5231 273.216 99.2006 273.349 100.038L274.425 106.868C274.555 107.702 273.987 108.382 273.154 108.382Z" fill="#F6AB36"/>
<path d="M209.248 90.8514C209.391 91.765 208.77 92.5045 207.861 92.5045C206.953 92.5045 206.096 91.765 205.953 90.8514C205.811 89.9377 206.432 89.1982 207.34 89.1982C208.249 89.1982 209.105 89.9377 209.248 90.8514Z" fill="#F9C438"/>
<path d="M217.286 90.8514C217.429 91.765 216.808 92.5045 215.899 92.5045C214.991 92.5045 214.134 91.765 213.992 90.8514C213.849 89.9377 214.47 89.1982 215.378 89.1982C216.287 89.1982 217.144 89.9377 217.286 90.8514Z" fill="#F9C438"/>
<path d="M225.325 90.8514C225.467 91.765 224.846 92.5045 223.938 92.5045C223.029 92.5045 222.173 91.765 222.03 90.8514C221.887 89.9377 222.508 89.1982 223.417 89.1982C224.325 89.1982 225.182 89.9377 225.325 90.8514Z" fill="#F9C438"/>
<path d="M233.363 90.8514C233.505 91.765 232.885 92.5045 231.976 92.5045C231.067 92.5045 230.211 91.765 230.068 90.8514C229.925 89.9377 230.546 89.1982 231.455 89.1982C232.364 89.1982 233.22 89.9377 233.363 90.8514Z" fill="#F9C438"/>
<path d="M241.401 90.8514C241.544 91.765 240.923 92.5045 240.014 92.5045C239.105 92.5045 238.249 91.765 238.106 90.8514C237.963 89.9377 238.584 89.1982 239.493 89.1982C240.402 89.1982 241.258 89.9377 241.401 90.8514Z" fill="#F9C438"/>
<path d="M249.439 90.8514C249.582 91.765 248.961 92.5045 248.052 92.5045C247.144 92.5045 246.287 91.765 246.144 90.8514C246.002 89.9377 246.623 89.1982 247.531 89.1982C248.44 89.1982 249.296 89.9377 249.439 90.8514Z" fill="#F9C438"/>
<path d="M257.477 90.8514C257.62 91.765 256.999 92.5045 256.091 92.5045C255.182 92.5045 254.325 91.765 254.183 90.8514C254.04 89.9377 254.661 89.1982 255.57 89.1982C256.478 89.1982 257.335 89.9377 257.477 90.8514Z" fill="#F9C438"/>
<path d="M265.513 90.8514C265.656 91.765 265.035 92.5045 264.126 92.5045C263.218 92.5045 262.361 91.765 262.219 90.8514C262.076 89.9377 262.697 89.1982 263.605 89.1982C264.514 89.1982 265.371 89.9377 265.513 90.8514Z" fill="#F9C438"/>
<path d="M211.232 103.454C211.375 104.368 210.754 105.107 209.845 105.107C208.937 105.107 208.08 104.368 207.937 103.454C207.795 102.54 208.416 101.801 209.324 101.801C210.233 101.801 211.089 102.54 211.232 103.454Z" fill="#F9C438"/>
<path d="M219.27 103.454C219.413 104.368 218.792 105.107 217.883 105.107C216.975 105.107 216.118 104.368 215.976 103.454C215.833 102.54 216.454 101.801 217.362 101.801C218.271 101.801 219.128 102.54 219.27 103.454Z" fill="#F9C438"/>
<path d="M227.309 103.454C227.451 104.368 226.83 105.107 225.922 105.107C225.013 105.107 224.157 104.368 224.014 103.454C223.871 102.54 224.492 101.801 225.401 101.801C226.309 101.801 227.166 102.54 227.309 103.454Z" fill="#F9C438"/>
<path d="M235.347 103.454C235.49 104.368 234.869 105.107 233.96 105.107C233.051 105.107 232.195 104.368 232.052 103.454C231.909 102.54 232.53 101.801 233.439 101.801C234.348 101.801 235.204 102.54 235.347 103.454Z" fill="#F9C438"/>
<path d="M243.385 103.454C243.528 104.368 242.907 105.107 241.998 105.107C241.089 105.107 240.233 104.368 240.09 103.454C239.948 102.54 240.568 101.801 241.477 101.801C242.386 101.801 243.242 102.54 243.385 103.454Z" fill="#F9C438"/>
<path d="M251.423 103.454C251.566 104.368 250.945 105.107 250.036 105.107C249.128 105.107 248.271 104.368 248.129 103.454C247.986 102.54 248.607 101.801 249.515 101.801C250.424 101.801 251.281 102.54 251.423 103.454Z" fill="#F9C438"/>
<path d="M259.461 103.454C259.604 104.368 258.983 105.107 258.075 105.107C257.166 105.107 256.309 104.368 256.167 103.454C256.024 102.54 256.645 101.801 257.554 101.801C258.462 101.801 259.319 102.54 259.461 103.454Z" fill="#F9C438"/>
<path d="M267.497 103.454C267.64 104.368 267.019 105.107 266.11 105.107C265.202 105.107 264.345 104.368 264.203 103.454C264.06 102.54 264.681 101.801 265.589 101.801C266.498 101.801 267.355 102.54 267.497 103.454Z" fill="#F9C438"/>
<path d="M241.327 58.8334C241.018 58.5328 240.878 58.1034 240.951 57.6788C241.727 53.1416 247.574 29.1936 263.867 21.8964C279.116 15.0668 297.74 1.56488 300.323 0.0858811C302.904 -1.39312 307.617 16.7175 310.198 17.457C312.779 18.1965 324.286 25.3912 325.321 28.1917C326.358 30.9923 287.506 44.0886 284.28 51.1163C281.057 58.1439 276.313 74.4178 274.444 75.1596C272.574 75.9015 257.63 71.8319 254.958 70.7202C252.617 69.747 243.532 60.9827 241.325 58.8334H241.327Z" fill="#7DB9F9"/>
<path d="M243.211 56.944C243.211 56.944 249.037 35.3887 258.579 28.2895C268.121 21.1903 274.277 19.6469 281.254 15.3244C288.232 11.0019 300.031 2.35925 300.338 2.97709C300.645 3.59493 306.392 17.8959 307.315 18.4112C308.238 18.9265 323.115 27.3616 323.32 28.082C323.525 28.8024 286.074 41.3549 282.689 48.6592C279.304 55.9636 274.789 72.8386 273.866 73.2489C272.943 73.6615 255.998 69.0933 254.87 68.3729C253.743 67.6525 242.295 57.1492 243.211 56.9393V56.944Z" fill="#97C7FA"/>
<mask id="mask4_237_8715" style="mask-type:luminance" maskUnits="userSpaceOnUse" x="243" y="2" width="81" height="72">
<path d="M243.211 56.944C243.211 56.944 249.037 35.3887 258.579 28.2895C268.121 21.1903 274.277 19.6469 281.254 15.3244C288.232 11.0019 300.031 2.35925 300.338 2.97709C300.645 3.59493 306.392 17.8959 307.315 18.4112C308.238 18.9265 323.115 27.3616 323.32 28.082C323.525 28.8024 286.074 41.3549 282.689 48.6592C279.304 55.9636 274.789 72.8386 273.866 73.2489C272.943 73.6615 255.998 69.0933 254.87 68.3729C253.743 67.6525 242.295 57.1492 243.211 56.9393V56.944Z" fill="white"/>
</mask>
<g mask="url(#mask4_237_8715)">
<path opacity="0.24" d="M297.081 0.951813L306.73 42.457L289.009 54.6086L283.985 27.8864L284.283 59.184L279.361 75.2479L259.887 44.0528L269.129 77.1277L251.116 69.9139L244.275 40.3601L255.829 22.0634L270.411 40.1144L265.851 16.7867L283.241 5.70132L290.413 23.4708L288.308 2.94847L297.081 0.951813Z" fill="#F6F9FF"/>
</g>
<path d="M275.381 27.0562C275.157 27.1278 274.941 27.2017 274.734 27.2805C271.268 28.5639 269.377 31.7556 269.148 35.3768C269.044 37.0419 269.429 38.769 270.411 40.1168C271.594 41.7365 273.67 42.5858 275.643 42.4426C277.867 42.2804 279.544 40.3529 280.962 38.8382C282.32 37.383 284.473 36.5863 285.244 34.6302C286.117 32.414 285.696 29.5801 283.985 27.8888C281.69 25.6178 278.171 26.1664 275.381 27.0586V27.0562Z" fill="#68A9FD"/>
<path d="M110.694 287.962C116.287 287.962 120.821 283.415 120.821 277.807C120.821 272.199 116.287 267.652 110.694 267.652C105.101 267.652 100.567 272.199 100.567 277.807C100.567 283.415 105.101 287.962 110.694 287.962Z" fill="#D4DFFF"/>
<path d="M143.919 287.962C149.512 287.962 154.046 283.415 154.046 277.807C154.046 272.199 149.512 267.652 143.919 267.652C138.327 267.652 133.793 272.199 133.793 277.807C133.793 283.415 138.327 287.962 143.919 287.962Z" fill="#D4DFFF"/>
<path d="M177.145 287.962C182.738 287.962 187.272 283.415 187.272 277.807C187.272 272.199 182.738 267.652 177.145 267.652C171.552 267.652 167.018 272.199 167.018 277.807C167.018 283.415 171.552 287.962 177.145 287.962Z" fill="#D4DFFF"/>
<path d="M210.369 287.962C215.961 287.962 220.495 283.415 220.495 277.807C220.495 272.199 215.961 267.652 210.369 267.652C204.776 267.652 200.242 272.199 200.242 277.807C200.242 283.415 204.776 287.962 210.369 287.962Z" fill="#D4DFFF"/>
<path d="M322.076 49.6945C326.558 50.5557 336.765 52.7384 339.706 53.9908C340.89 54.4941 343.476 56.3739 349.076 62.4593C350.851 64.3891 355.763 70.3338 356.636 71.3476C357.714 72.5976 356.408 71.9989 352.58 75.5175C352.066 75.9898 351.276 76.4955 351.027 76.7675C350.786 77.9363 349.906 81.7221 349.866 81.8915L349.507 83.4349L348.167 82.5928C347.178 81.9702 345.453 80.6415 343.459 79.1052C339.756 76.2522 334.16 71.9392 332.279 71.5766C331.479 71.424 329.645 71.1329 327.523 70.799C323.981 70.2408 319.576 69.5442 316.321 68.9192C314.987 68.6639 313.98 68.4445 313.248 68.2536C312.215 67.9817 311.466 67.736 311.219 67.0323C311.076 66.6244 311.157 66.1854 311.437 65.8562C312.18 64.9808 315.463 60.5652 315.867 59.5848C315.967 59.2651 316.045 57.9459 316.11 56.8868C316.188 55.5843 316.276 54.1053 316.452 52.8362C316.697 51.0614 317.056 50.0834 317.656 49.5633C318.001 49.2651 318.429 49.1196 318.864 49.1554C319.419 49.2007 320.915 49.4775 322.076 49.6993V49.6945Z" fill="#7DB9F9"/>
<path d="M348.767 81.6315C345.838 79.7899 335.657 71.0709 332.49 70.4626C329.324 69.8543 311.63 67.371 312.296 66.5838C312.962 65.799 316.431 61.1974 316.916 59.9927C317.401 58.788 317.085 50.1358 318.772 50.279C320.458 50.4221 335.723 53.5232 339.263 55.0309C342.803 56.5385 354.452 69.9473 354.926 71.3071C355.399 72.6668 350.12 75.4912 349.951 76.3739C349.782 77.2565 348.764 81.6291 348.764 81.6291L348.767 81.6315Z" fill="#97C7FA"/>
<mask id="mask5_237_8715" style="mask-type:luminance" maskUnits="userSpaceOnUse" x="312" y="50" width="43" height="32">
<path d="M348.767 81.6315C345.838 79.7899 335.657 71.0709 332.49 70.4626C329.324 69.8543 311.63 67.371 312.296 66.5838C312.962 65.799 316.431 61.1974 316.916 59.9927C317.401 58.788 317.085 50.1358 318.772 50.279C320.458 50.4221 335.723 53.5232 339.263 55.0309C342.803 56.5385 354.452 69.9473 354.926 71.3071C355.399 72.6668 350.12 75.4912 349.951 76.3739C349.782 77.2565 348.764 81.6291 348.764 81.6291L348.767 81.6315Z" fill="white"/>
</mask>
<g mask="url(#mask5_237_8715)">
<path opacity="0.24" d="M343.488 78.3013C343.488 78.3013 356.367 71.0304 356.165 70.7918C355.965 70.5533 352.728 65.0094 351.517 65.2622C350.306 65.5151 341.573 69.4392 341.573 69.4392C341.573 69.4392 349.159 63.9788 349.116 63.2179C349.074 62.4569 344.016 56.8916 342.905 57.0395C341.794 57.1874 335.602 61.2403 335.602 61.2403C335.602 61.2403 338.973 53.2084 337.251 52.6072C335.528 52.0061 330.043 50.997 330.043 50.997C330.043 50.997 313.486 68.7856 313.921 69.0957C314.356 69.4058 322.523 71.0184 322.999 70.8848C323.475 70.7513 331.413 63.6425 331.413 63.6425C331.413 63.6425 326.945 71.4621 327.573 71.944C328.201 72.4259 334.874 74.0695 335.074 74.1983C335.274 74.3271 344.347 71.1878 344.347 71.1878C344.347 71.1878 339.434 75.4411 340.281 76.1926C341.131 76.944 343.483 78.2989 343.483 78.2989L343.488 78.3013Z" fill="#F6F9FF"/>
</g>
<path d="M330.399 63.0199C330.744 61.2117 332.916 60.1072 335.248 60.5557C337.579 61.0041 340.862 63.8381 339.161 66.0852C338.05 67.5523 335.778 66.3071 333.447 65.861C331.116 65.4125 330.055 64.8281 330.399 63.0199Z" fill="#7DB9F9"/>
</g>
<defs>
<clipPath id="clip0_237_8715">
<rect width="357" height="373" fill="white"/>
</clipPath>
</defs>
</svg>
