<svg width="21" height="21" viewBox="0 0 21 21" fill="none" xmlns="http://www.w3.org/2000/svg">
<path fill-rule="evenodd" clip-rule="evenodd" d="M18.9 10.4996C18.9 15.1388 15.1392 18.8996 10.5 18.8996C5.86081 18.8996 2.10001 15.1388 2.10001 10.4996C2.10001 5.86042 5.86081 2.09961 10.5 2.09961C15.1392 2.09961 18.9 5.86042 18.9 10.4996ZM10.5 7.34961C10.1127 7.34961 9.77298 7.55879 9.58985 7.87537C9.29948 8.37734 8.65716 8.54887 8.1552 8.2585C7.65324 7.96812 7.48171 7.32581 7.77208 6.82385C8.31514 5.88505 9.33275 5.24961 10.5 5.24961C12.2397 5.24961 13.65 6.65991 13.65 8.39961C13.65 9.77114 12.7735 10.9379 11.55 11.3704V11.5496C11.55 12.1295 11.0799 12.5996 10.5 12.5996C9.92012 12.5996 9.45002 12.1295 9.45002 11.5496V10.4996C9.45002 9.91971 9.92012 9.44961 10.5 9.44961C11.0799 9.44961 11.55 8.97951 11.55 8.39961C11.55 7.81971 11.0799 7.34961 10.5 7.34961ZM10.5 15.7496C11.0799 15.7496 11.55 15.2795 11.55 14.6996C11.55 14.1197 11.0799 13.6496 10.5 13.6496C9.92011 13.6496 9.45001 14.1197 9.45001 14.6996C9.45001 15.2795 9.92011 15.7496 10.5 15.7496Z" fill="#0065FF"/>
</svg>
