<?xml version="1.0" standalone="no"?>
<!DOCTYPE svg PUBLIC "-//W3C//DTD SVG 20010904//EN"
 "http://www.w3.org/TR/2001/REC-SVG-20010904/DTD/svg10.dtd">
<svg version="1.0" xmlns="http://www.w3.org/2000/svg"
 width="210.000000pt" height="73.000000pt" viewBox="0 0 210.000000 73.000000"
 preserveAspectRatio="xMidYMid meet">

<g transform="translate(0.000000,73.000000) scale(0.100000,-0.100000)"
fill="#000000" stroke="none">
<path d="M1940 478 c0 -234 2 -255 20 -285 21 -35 48 -46 101 -41 31 3 34 6
37 40 3 34 1 37 -25 40 l-28 3 -3 248 -2 247 -50 0 -50 0 0 -252z"/>
<path d="M198 707 c-49 -14 -62 -22 -117 -71 -78 -71 -106 -216 -60 -316 32
-71 131 -160 179 -160 5 0 10 22 10 49 0 45 -3 51 -33 70 -66 40 -98 133 -73
209 55 165 274 175 347 17 24 -51 24 -99 0 -150 -17 -37 -64 -88 -91 -97 -7
-2 -10 -24 -8 -56 l3 -52 50 24 c60 28 127 98 146 152 21 62 17 160 -10 221
-56 126 -209 197 -343 160z"/>
<path d="M1295 546 c-50 -21 -101 -87 -114 -144 -28 -133 67 -251 202 -252 50
0 109 20 139 47 18 16 17 18 -13 49 l-31 32 -35 -24 c-43 -29 -68 -30 -110 -4
-69 41 -82 134 -27 191 43 45 99 48 156 7 15 -10 22 -8 47 16 35 34 31 46 -30
77 -45 22 -138 25 -184 5z"/>
<path d="M1611 534 l-55 -25 30 -30 c29 -29 31 -29 60 -14 16 8 43 15 60 15
37 0 84 -34 84 -61 0 -16 -7 -19 -47 -19 -71 0 -123 -18 -160 -55 -28 -28 -33
-40 -33 -79 0 -36 6 -52 29 -78 24 -27 36 -32 89 -36 42 -3 70 0 91 11 17 9
31 11 31 6 0 -5 23 -9 51 -9 l51 0 -4 149 c-3 133 -5 153 -24 178 -58 78 -151
95 -253 47z m179 -244 c0 -34 -4 -42 -26 -50 -56 -22 -124 -2 -124 36 0 27 51
54 101 54 l49 0 0 -40z"/>
<path d="M610 405 c0 -156 5 -179 54 -224 34 -32 107 -39 161 -17 25 11 41 13
43 6 2 -5 24 -10 48 -10 l44 0 0 195 0 195 -45 0 -45 0 0 -145 0 -144 -30 -16
c-35 -18 -79 -19 -102 -1 -30 22 -38 64 -38 187 l0 119 -45 0 -45 0 0 -145z"/>
<path d="M1020 355 l0 -195 50 0 50 0 0 195 0 195 -50 0 -50 0 0 -195z"/>
<path d="M240 180 l0 -140 80 0 80 0 0 40 0 40 -40 0 -40 0 0 100 0 100 -40 0
-40 0 0 -140z"/>
<path d="M470 60 c0 -25 4 -30 23 -29 16 1 18 2 5 6 -10 2 -18 13 -18 23 0 10
8 21 18 23 13 4 11 5 -5 6 -19 1 -23 -4 -23 -29z"/>
<path d="M1030 60 c0 -27 3 -31 23 -28 16 2 22 10 22 28 0 18 -6 26 -22 28
-20 3 -23 -1 -23 -28z m40 0 c0 -11 -7 -20 -15 -20 -8 0 -15 9 -15 20 0 11 7
20 15 20 8 0 15 -9 15 -20z"/>
<path d="M1432 60 c0 -19 2 -27 5 -17 2 9 2 25 0 35 -3 9 -5 1 -5 -18z"/>
<path d="M1600 80 c0 -5 -7 -10 -15 -10 -8 0 -15 -9 -15 -20 0 -13 7 -20 20
-20 16 0 20 7 20 30 0 17 -2 30 -5 30 -3 0 -5 -4 -5 -10z m0 -30 c0 -5 -4 -10
-10 -10 -5 0 -10 5 -10 10 0 6 5 10 10 10 6 0 10 -4 10 -10z"/>
<path d="M1650 58 c0 -18 4 -28 8 -22 4 6 15 14 25 17 24 9 17 31 -11 35 -19
3 -22 -1 -22 -30z m40 12 c0 -5 -7 -10 -15 -10 -8 0 -15 5 -15 10 0 6 7 10 15
10 8 0 15 -4 15 -10z"/>
<path d="M1300 57 c0 -15 4 -27 8 -27 10 0 9 36 -1 46 -4 4 -7 -5 -7 -19z"/>
<path d="M2000 70 c0 -5 5 -10 10 -10 6 0 10 5 10 10 0 6 -4 10 -10 10 -5 0
-10 -4 -10 -10z"/>
<path d="M521 48 c1 -17 2 -19 6 -5 2 9 8 17 13 17 5 0 11 -8 13 -17 4 -17 5
-17 6 0 0 9 5 17 10 17 5 0 12 -8 14 -17 4 -14 5 -12 6 5 1 19 -4 22 -34 22
-30 0 -35 -3 -34 -22z"/>
<path d="M600 38 c0 -18 4 -28 8 -22 4 6 15 14 25 17 24 9 17 31 -11 35 -19 3
-22 -1 -22 -30z m40 12 c0 -5 -7 -10 -15 -10 -8 0 -15 5 -15 10 0 6 7 10 15
10 8 0 15 -4 15 -10z"/>
<path d="M660 50 c0 -13 7 -20 20 -20 13 0 20 7 20 20 0 13 -7 20 -20 20 -13
0 -20 -7 -20 -20z m30 0 c0 -5 -4 -10 -10 -10 -5 0 -10 5 -10 10 0 6 5 10 10
10 6 0 10 -4 10 -10z"/>
<path d="M717 52 c1 -8 3 -16 3 -19 0 -3 7 0 15 7 8 7 15 17 15 22 0 6 -6 6
-14 -1 -8 -7 -16 -8 -18 -4 -3 4 -3 2 -1 -5z"/>
<path d="M760 56 c-13 -13 -13 -26 0 -26 6 0 10 8 10 17 0 15 1 15 13 -1 8
-11 20 -16 28 -13 10 4 9 6 -4 6 -10 1 -15 6 -12 11 4 6 11 8 16 5 5 -4 9 -1
9 4 0 13 -47 10 -60 -3z"/>
<path d="M840 50 c0 -26 6 -26 13 0 3 11 1 20 -4 20 -5 0 -9 -9 -9 -20z"/>
<path d="M882 50 c0 -14 2 -19 5 -12 2 6 2 18 0 25 -3 6 -5 1 -5 -13z"/>
<path d="M901 48 c1 -17 2 -19 6 -5 2 9 8 17 13 17 5 0 11 -8 13 -17 4 -14 5
-12 6 5 1 16 -5 22 -19 22 -14 0 -20 -6 -19 -22z"/>
<path d="M954 59 c-4 -7 3 -20 17 -31 l24 -20 -24 6 c-17 3 -21 2 -13 -6 18
-18 38 -2 37 28 0 30 -27 45 -41 23z m36 -9 c0 -5 -7 -10 -15 -10 -8 0 -15 5
-15 10 0 6 7 10 15 10 8 0 15 -4 15 -10z"/>
<path d="M1095 60 c-9 -15 4 -30 23 -29 15 1 15 2 -1 6 -9 2 -15 8 -12 13 3 5
13 6 22 3 11 -4 14 -3 9 5 -9 15 -33 16 -41 2z"/>
<path d="M1158 63 c7 -3 16 -2 19 1 4 3 -2 6 -13 5 -11 0 -14 -3 -6 -6z"/>
<path d="M1195 60 c-9 -15 4 -30 23 -29 15 1 15 2 0 6 -10 2 -18 9 -18 15 0 5
7 8 15 4 8 -3 15 -1 15 4 0 13 -27 13 -35 0z"/>
<path d="M1241 48 c1 -17 3 -18 6 -5 2 9 11 17 18 17 7 0 16 -8 19 -17 4 -14
4 -14 3 2 -1 12 -11 21 -25 23 -18 3 -22 -1 -21 -20z"/>
<path d="M1331 48 c0 -16 2 -18 6 -8 3 8 11 18 17 22 7 5 4 8 -6 8 -12 0 -18
-7 -17 -22z"/>
<path d="M1372 53 c2 -10 13 -19 26 -21 17 -3 22 2 22 17 0 16 -6 21 -26 21
-19 0 -25 -5 -22 -17z m33 -3 c-3 -5 -10 -10 -16 -10 -5 0 -9 5 -9 10 0 6 7
10 16 10 8 0 12 -4 9 -10z"/>
<path d="M1452 50 c0 -14 2 -19 5 -12 2 6 2 18 0 25 -3 6 -5 1 -5 -13z"/>
<path d="M1478 63 c10 -4 10 -8 1 -19 -9 -11 -8 -14 3 -14 7 0 14 9 15 20 1
13 -4 20 -15 19 -11 0 -13 -2 -4 -6z"/>
<path d="M1520 50 c0 -13 6 -20 18 -19 10 0 12 3 5 6 -7 2 -13 9 -13 15 0 6 7
7 16 4 8 -3 12 -2 9 4 -11 18 -35 11 -35 -10z"/>
<path d="M1723 63 c9 -2 17 -9 17 -15 0 -5 -7 -8 -15 -4 -8 3 -15 1 -15 -4 0
-6 9 -10 20 -10 13 0 20 7 20 20 0 14 -6 20 -22 19 -17 -1 -19 -2 -5 -6z"/>
<path d="M1769 52 c6 -12 9 -28 5 -35 -5 -8 -4 -9 3 -2 6 6 13 21 17 35 3 14
3 19 0 12 -5 -10 -9 -10 -22 0 -14 12 -14 10 -3 -10z"/>
<path d="M1811 48 c1 -17 2 -19 6 -5 2 9 8 17 13 17 5 0 11 -8 13 -17 4 -17 5
-17 6 0 0 9 5 17 10 17 5 0 12 -8 14 -17 4 -14 5 -12 6 5 1 19 -4 22 -34 22
-30 0 -35 -3 -34 -22z"/>
<path d="M1895 60 c-9 -14 3 -30 23 -29 11 0 12 3 5 6 -7 2 -13 9 -13 14 0 4
7 5 17 2 11 -4 14 -3 9 5 -9 15 -33 16 -41 2z"/>
<path d="M1951 48 c1 -17 2 -19 6 -5 2 9 8 17 13 17 5 0 11 -8 13 -17 4 -14 5
-12 6 5 1 16 -5 22 -19 22 -14 0 -20 -6 -19 -22z"/>
<path d="M2040 60 c0 -5 7 -7 15 -4 8 4 15 8 15 10 0 2 -7 4 -15 4 -8 0 -15
-4 -15 -10z"/>
<path d="M1150 40 c0 -6 7 -10 15 -10 8 0 15 2 15 4 0 2 -7 6 -15 10 -8 3 -15
1 -15 -4z"/>
<path d="M2050 40 c-13 -8 -12 -10 3 -10 9 0 17 5 17 10 0 12 -1 12 -20 0z"/>
</g>
</svg>
