<svg width="15" height="17" viewBox="0 0 15 17" fill="none" xmlns="http://www.w3.org/2000/svg">
<path fill-rule="evenodd" clip-rule="evenodd" d="M2.16172 3.46C3.47946 1.91429 5.40723 0.939453 7.55492 0.939453C11.118 0.939453 14.0759 3.62258 14.6464 7.14403H12.8145C12.2698 4.65761 10.1215 2.80101 7.55492 2.80101C5.68468 2.80101 4.03735 3.78578 3.07017 5.28309H5.75719V7.14403H0.363983V6.21325V1.55935H2.16172V3.46Z" fill="#0065FF"/>
<path fill-rule="evenodd" clip-rule="evenodd" d="M3.63526 15.1387C2.64051 15.1387 1.83153 14.301 1.83153 13.271C1.83153 12.2409 2.64051 11.4026 3.63526 11.4026C4.63001 11.4026 5.43959 12.2409 5.43959 13.271C5.43959 14.301 4.63001 15.1387 3.63526 15.1387ZM7.015 11.9921C6.51044 10.563 5.1903 9.54102 3.63526 9.54102C1.64637 9.54102 0.0337982 11.2108 0.0337982 13.271C0.0337982 15.3305 1.64637 17.0003 3.63526 17.0003C5.43239 17.0003 6.91792 15.6358 7.18878 13.8536H12.8486V15.5061H14.6464V11.9921H7.015Z" fill="#0065FF"/>
</svg>
