<svg width="21" height="21" viewBox="0 0 21 21" fill="none" xmlns="http://www.w3.org/2000/svg">
<path d="M20.9999 4.20026C20.9999 3.08636 20.5574 2.01808 19.7698 1.23043C18.9821 0.442779 17.9138 0.000283027 16.7999 0.000283027H15.4594C15.103 -0.00677653 14.7566 0.118444 14.4871 0.351777C14.2175 0.58511 14.044 0.910013 13.9999 1.26378C13.9808 1.45877 14.0029 1.65559 14.0646 1.84153C14.1264 2.02747 14.2265 2.19838 14.3584 2.3432C14.4904 2.48802 14.6513 2.60354 14.8307 2.68227C15.0101 2.761 15.204 2.8012 15.3999 2.80027H16.7999C17.1712 2.80027 17.5273 2.94777 17.7899 3.21032C18.0524 3.47287 18.1999 3.82896 18.1999 4.20026V5.54075C18.1929 5.89718 18.3181 6.24359 18.5514 6.51311C18.7847 6.78264 19.1096 6.95618 19.4634 7.00024C19.6584 7.01935 19.8552 6.99731 20.0412 6.93556C20.2271 6.87381 20.398 6.77372 20.5428 6.64177C20.6877 6.50981 20.8032 6.34892 20.8819 6.16952C20.9606 5.99011 21.0008 5.79617 20.9999 5.60025V4.20026Z" fill="#0065FF"/>
<path d="M5.59998 1.58993e-05H4.19999C3.08609 1.58993e-05 2.01781 0.442512 1.23016 1.23016C0.442512 2.01781 1.58993e-05 3.08609 1.58993e-05 4.19999V5.59998C-0.000917792 5.79591 0.0392817 5.98984 0.118015 6.16925C0.196747 6.34866 0.31226 6.50954 0.457082 6.6415C0.601905 6.77346 0.772812 6.87355 0.95875 6.9353C1.14469 6.99705 1.34152 7.01908 1.53651 6.99998C1.89027 6.95592 2.21517 6.78237 2.44851 6.51285C2.68184 6.24332 2.80706 5.89691 2.8 5.54048V4.19999C2.8 3.82869 2.9475 3.4726 3.21005 3.21005C3.4726 2.9475 3.82869 2.8 4.19999 2.8H5.54048C5.89691 2.80706 6.24332 2.68184 6.51285 2.44851C6.78237 2.21517 6.95592 1.89027 6.99998 1.53651C7.01908 1.34152 6.99705 1.14469 6.9353 0.95875C6.87355 0.772812 6.77346 0.601905 6.6415 0.457082C6.50954 0.31226 6.34866 0.196747 6.16925 0.118015C5.98984 0.0392817 5.79591 -0.000917792 5.59998 1.58993e-05Z" fill="#0065FF"/>
<path d="M1.58993e-05 16.7988C1.58993e-05 17.9127 0.442512 18.981 1.23016 19.7687C2.01781 20.5563 3.08609 20.9988 4.19999 20.9988H5.54048C5.89691 21.0059 6.24332 20.8807 6.51285 20.6473C6.78237 20.414 6.95592 20.0891 6.99998 19.7353C7.01908 19.5403 6.99705 19.3435 6.9353 19.1576C6.87355 18.9716 6.77346 18.8007 6.6415 18.6559C6.50954 18.5111 6.34866 18.3956 6.16925 18.3168C5.98984 18.2381 5.79591 18.1979 5.59998 18.1988H4.19999C3.82869 18.1988 3.4726 18.0513 3.21005 17.7888C2.9475 17.5262 2.8 17.1701 2.8 16.7988V15.4584C2.80706 15.1019 2.68184 14.7555 2.44851 14.486C2.21517 14.2165 1.89027 14.0429 1.53651 13.9989C1.34152 13.9798 1.14469 14.0018 0.95875 14.0635C0.772812 14.1253 0.601905 14.2254 0.457082 14.3573C0.31226 14.4893 0.196747 14.6502 0.118015 14.8296C0.0392817 15.009 -0.000917792 15.2029 1.58993e-05 15.3989V16.7988Z" fill="#0065FF"/>
<path d="M19.4634 13.9989C19.1096 14.0429 18.7847 14.2165 18.5514 14.486C18.3181 14.7555 18.1929 15.1019 18.1999 15.4584V16.7988C18.1999 17.1701 18.0524 17.5262 17.7899 17.7888C17.5273 18.0513 17.1712 18.1988 16.7999 18.1988H15.4594C15.103 18.1918 14.7566 18.317 14.4871 18.5503C14.2175 18.7837 14.044 19.1086 13.9999 19.4623C13.9808 19.6573 14.0029 19.8541 14.0646 20.0401C14.1264 20.226 14.2265 20.3969 14.3584 20.5418C14.4904 20.6866 14.6513 20.8021 14.8307 20.8808C15.0101 20.9596 15.204 20.9998 15.3999 20.9988H16.7999C17.9138 20.9988 18.9821 20.5563 19.7698 19.7687C20.5574 18.981 20.9999 17.9127 20.9999 16.7988V15.3989C21.0008 15.2029 20.9606 15.009 20.8819 14.8296C20.8032 14.6502 20.6877 14.4893 20.5428 14.3573C20.398 14.2254 20.2271 14.1253 20.0412 14.0635C19.8552 14.0018 19.6584 13.9798 19.4634 13.9989Z" fill="#0065FF"/>
<path d="M11.6969 12.6728C11.5625 12.8656 11.3834 13.0231 11.175 13.1318C10.9666 13.2405 10.735 13.2973 10.5 13.2973C10.2649 13.2973 10.0333 13.2405 9.82492 13.1318C9.61651 13.0231 9.43745 12.8656 9.30296 12.6728C9.13681 12.3405 8.84544 12.0878 8.49297 11.9703C8.1405 11.8528 7.75579 11.8802 7.42347 12.0463C7.09116 12.2125 6.83846 12.5039 6.72097 12.8563C6.60348 13.2088 6.63082 13.5935 6.79698 13.9258C7.16438 14.5856 7.70136 15.1351 8.35238 15.5178C9.0034 15.9004 9.74482 16.1021 10.5 16.1021C11.2551 16.1021 11.9965 15.9004 12.6475 15.5178C13.2985 15.1351 13.8355 14.5856 14.2029 13.9258C14.2852 13.7613 14.3343 13.5821 14.3473 13.3986C14.3603 13.2151 14.3371 13.0309 14.2789 12.8563C14.2208 12.6818 14.1288 12.5204 14.0082 12.3815C13.8877 12.2425 13.741 12.1286 13.5764 12.0463C13.4119 11.9641 13.2328 11.915 13.0492 11.902C12.8657 11.8889 12.6815 11.9122 12.5069 11.9703C12.3324 12.0285 12.1711 12.1205 12.0321 12.241C11.8931 12.3616 11.7792 12.5083 11.6969 12.6728Z" fill="#0065FF"/>
<path d="M6.99998 5.95117C6.62868 5.95117 6.27259 6.09867 6.01004 6.36122C5.74749 6.62377 5.59999 6.97986 5.59999 7.35116V8.40116C5.59999 8.77246 5.74749 9.12855 6.01004 9.3911C6.27259 9.65365 6.62868 9.80115 6.99998 9.80115C7.37128 9.80115 7.72738 9.65365 7.98993 9.3911C8.25248 9.12855 8.39998 8.77246 8.39998 8.40116V7.35116C8.39998 6.97986 8.25248 6.62377 7.98993 6.36122C7.72738 6.09867 7.37128 5.95117 6.99998 5.95117Z" fill="#0065FF"/>
<path d="M12.5999 7.35116V8.40116C12.5999 8.77246 12.7474 9.12855 13.01 9.3911C13.2725 9.65365 13.6286 9.80115 13.9999 9.80115C14.3712 9.80115 14.7273 9.65365 14.9899 9.3911C15.2524 9.12855 15.3999 8.77246 15.3999 8.40116V7.35116C15.3999 6.97986 15.2524 6.62377 14.9899 6.36122C14.7273 6.09867 14.3712 5.95117 13.9999 5.95117C13.6286 5.95117 13.2725 6.09867 13.01 6.36122C12.7474 6.62377 12.5999 6.97986 12.5999 7.35116Z" fill="#0065FF"/>
</svg>
