<svg width="21" height="21" viewBox="0 0 21 21" fill="none" xmlns="http://www.w3.org/2000/svg">
<path fill-rule="evenodd" clip-rule="evenodd" d="M18.9 8.39961C18.9 11.879 16.0794 14.6996 12.6 14.6996C11.9635 14.6996 11.3491 14.6052 10.7699 14.4297L8.40001 16.7996H6.30001V18.8996H2.10001V14.6996L6.56993 10.2297C6.39439 9.65053 6.30001 9.03609 6.30001 8.39961C6.30001 4.92022 9.12061 2.09961 12.6 2.09961C16.0794 2.09961 18.9 4.92022 18.9 8.39961ZM12.6 4.19961C12.0201 4.19961 11.55 4.66971 11.55 5.24961C11.55 5.82951 12.0201 6.29961 12.6 6.29961C13.7598 6.29961 14.7 7.23981 14.7 8.39961C14.7 8.97951 15.1701 9.44961 15.75 9.44961C16.3299 9.44961 16.8 8.97951 16.8 8.39961C16.8 6.08001 14.9196 4.19961 12.6 4.19961Z" fill="#0065FF"/>
</svg>
