<svg width="32" height="32" viewBox="0 0 32 32" fill="none" xmlns="http://www.w3.org/2000/svg">
<path d="M12.8 7.99922C11.9163 7.99922 11.2 8.71556 11.2 9.59922C11.2 10.4829 11.9163 11.1992 12.8 11.1992L21.7373 11.1992L19.6686 13.2678C19.0438 13.8927 19.0438 14.9058 19.6686 15.5306C20.2935 16.1554 21.3065 16.1554 21.9314 15.5306L26.7314 10.7306C27.0314 10.4305 27.2 10.0236 27.2 9.59922C27.2 9.17487 27.0314 8.76791 26.7314 8.46785L21.9314 3.66785C21.3065 3.04301 20.2935 3.04301 19.6686 3.66785C19.0438 4.29269 19.0438 5.30575 19.6686 5.93059L21.7373 7.99922L12.8 7.99922Z" fill="#0065FF"/>
<path d="M19.2 23.9992C20.0837 23.9992 20.8 23.2829 20.8 22.3992C20.8 21.5156 20.0837 20.7992 19.2 20.7992L10.2627 20.7992L12.3314 18.7306C12.9562 18.1058 12.9562 17.0927 12.3314 16.4678C11.7065 15.843 10.6935 15.843 10.0686 16.4678L5.26863 21.2678C4.96857 21.5679 4.8 21.9749 4.8 22.3992C4.8 22.8236 4.96857 23.2305 5.26863 23.5306L10.0686 28.3306C10.6935 28.9554 11.7065 28.9554 12.3314 28.3306C12.9562 27.7057 12.9562 26.6927 12.3314 26.0678L10.2627 23.9992H19.2Z" fill="#0065FF"/>
</svg>
