<svg width="29" height="21" viewBox="0 0 29 21" fill="none" xmlns="http://www.w3.org/2000/svg">
<path fill-rule="evenodd" clip-rule="evenodd" d="M25.6762 8.80353H10.8229V11.7119H25.6762V8.80353ZM6.46042 19.3982C6.46042 20.8523 4.1753 20.8523 4.1753 19.3982V14.2047L2.09792 15.7628C0.955355 16.6976 -0.498811 14.8279 0.747617 13.997L4.59077 11.0886C5.00625 10.6732 5.62946 10.6732 6.04494 11.0886L9.99196 13.997C11.1345 14.9318 9.78423 16.6976 8.5378 15.7628L6.46042 14.2047V19.3982ZM23.7027 3.29847H8.74553V0.390137H23.7027V3.29847ZM28.2729 7.5571H13.4196V4.5449H28.2729V7.5571ZM26.5071 17.2169H11.6539V20.1253H26.5071V17.2169ZM29 15.9705H14.1467V12.9583H29V15.9705Z" fill="#0065FF"/>
</svg>
