<svg width="41" height="29" viewBox="0 0 41 29" fill="none" xmlns="http://www.w3.org/2000/svg">
<path d="M37.0047 0C35.9444 0 34.9276 0.419124 34.1779 1.16517C33.4281 1.91121 33.007 2.92307 33.007 3.97814C33.007 5.0332 33.4281 6.04506 34.1779 6.7911C34.9276 7.53715 35.9444 7.95627 37.0047 7.95627C37.1195 7.95627 37.2323 7.95056 37.3438 7.94117H37.3553C38.3807 7.85082 39.3315 7.37028 40.0098 6.59966C40.688 5.82904 41.0413 4.82775 40.9961 3.80435C40.951 2.78096 40.5107 1.81436 39.7672 1.1059C39.0237 0.39744 38.0341 0.00174072 37.0047 0.00122415V0ZM39.5239 2.9989L36.5914 5.91579C36.528 5.97893 36.4528 6.02903 36.37 6.0632C36.2872 6.09738 36.1984 6.11497 36.1088 6.11497C36.0191 6.11497 35.9304 6.09738 35.8476 6.0632C35.7647 6.02903 35.6895 5.97893 35.6262 5.91579L34.4859 4.78111C34.42 4.7186 34.3674 4.64362 34.3311 4.56058C34.2947 4.47753 34.2755 4.3881 34.2744 4.29753C34.2733 4.20696 34.2904 4.1171 34.3248 4.03322C34.3591 3.94933 34.4099 3.87313 34.4743 3.80909C34.5387 3.74504 34.6152 3.69445 34.6995 3.66029C34.7838 3.62613 34.8741 3.60908 34.9651 3.61016C35.0562 3.61124 35.146 3.63041 35.2295 3.66656C35.3129 3.70271 35.3883 3.75509 35.4511 3.82064L36.1071 4.47346L38.557 2.03558C38.62 1.9702 38.6954 1.91799 38.7789 1.88201C38.8624 1.84603 38.9522 1.82701 39.0432 1.82606C39.1342 1.82511 39.2244 1.84226 39.3087 1.8765C39.3929 1.91073 39.4694 1.96137 39.5337 2.02542C39.598 2.08948 39.6488 2.16568 39.6831 2.24953C39.7174 2.33339 39.7345 2.42322 39.7334 2.51374C39.7323 2.60427 39.7131 2.69368 39.6768 2.77671C39.6406 2.85974 39.588 2.93473 39.5222 2.99727L39.5239 2.9989ZM3.12807 26.598H32.9249V29H0V8.41814H2.44538V25.9179C2.44533 26.0071 2.46295 26.0955 2.49723 26.178C2.5315 26.2605 2.58178 26.3355 2.64517 26.3986C2.70856 26.4618 2.78384 26.5119 2.86669 26.5461C2.94955 26.5803 3.03837 26.598 3.12807 26.598ZM31.6867 4.65789H3.81323V25.2389H36.7332V9.30843C35.4782 9.2432 34.2859 8.74212 33.3638 7.89239C32.4417 7.04266 31.8482 5.8981 31.6867 4.65789ZM33.9607 10.5925C34.0608 10.6529 34.1436 10.738 34.201 10.8396C34.2585 10.9411 34.2887 11.0557 34.2887 11.1722V18.7205C34.2888 18.8371 34.2587 18.9517 34.2014 19.0534C34.144 19.1551 34.0614 19.2404 33.9614 19.3012C33.8613 19.3619 33.7473 19.396 33.6302 19.4002C33.5131 19.4044 33.3969 19.3786 33.2927 19.3252C32.9265 19.136 32.5103 19.0646 32.1015 19.1207C31.6927 19.1769 31.3116 19.358 31.0106 19.6389C30.7096 19.9197 30.5036 20.2867 30.421 20.689C30.3385 21.0913 30.3834 21.5092 30.5497 21.8851C30.5954 21.9885 30.6145 22.1017 30.6052 22.2144C30.596 22.327 30.5586 22.4356 30.4965 22.5303C30.4344 22.625 30.3496 22.7027 30.2497 22.7566C30.1498 22.8104 30.038 22.8386 29.9244 22.8386H10.6196C10.5057 22.8385 10.3935 22.8101 10.2934 22.7559C10.1933 22.7017 10.1084 22.6235 10.0464 22.5283C9.98447 22.4332 9.94739 22.3241 9.93857 22.211C9.92976 22.098 9.94949 21.9845 9.99598 21.881C10.1084 21.6313 10.1659 21.3606 10.1645 21.087C10.1642 20.5616 9.95446 20.0578 9.58136 19.686C9.20825 19.3143 8.70222 19.105 8.17424 19.104C7.85469 19.1028 7.53967 19.1792 7.25661 19.3268C7.15247 19.3807 7.03612 19.4069 6.91881 19.403C6.80151 19.3991 6.68719 19.3651 6.58691 19.3044C6.48663 19.2437 6.40378 19.1583 6.34634 19.0565C6.2889 18.9546 6.25883 18.8397 6.25902 18.7229V11.1747C6.25843 11.0576 6.28826 10.9424 6.34562 10.8402C6.40298 10.738 6.48593 10.6523 6.5864 10.5914C6.68687 10.5305 6.80146 10.4965 6.91903 10.4927C7.03661 10.4889 7.15318 10.5154 7.25743 10.5696C7.54056 10.7169 7.85558 10.7931 8.17506 10.7916C8.70275 10.791 9.20866 10.5822 9.58179 10.2109C9.95492 9.83959 10.1648 9.33616 10.1653 8.81106C10.1667 8.53746 10.1093 8.26674 9.9968 8.01707C9.95032 7.91362 9.93057 7.80025 9.93934 7.68727C9.94811 7.57429 9.98512 7.46529 10.047 7.37017C10.1089 7.27505 10.1937 7.19684 10.2937 7.14264C10.3937 7.08845 10.5058 7.05999 10.6196 7.05986H29.9244C30.0379 7.05981 30.1497 7.08794 30.2495 7.1417C30.3494 7.19545 30.4342 7.27314 30.4963 7.36773C30.5584 7.46232 30.5958 7.57083 30.6051 7.68342C30.6144 7.79602 30.5954 7.90915 30.5497 8.01258C30.3845 8.38813 30.3403 8.8054 30.4233 9.20695C30.5063 9.6085 30.7124 9.97458 31.0131 10.2548C31.3138 10.535 31.6944 10.7155 32.1026 10.7715C32.5107 10.8275 32.9262 10.7563 33.2919 10.5676C33.3961 10.5141 33.5124 10.4883 33.6296 10.4926C33.7467 10.497 33.8608 10.5314 33.9607 10.5925ZM29.0166 8.81106C29.0166 8.67976 29.0243 8.54857 29.0396 8.41814H11.5073C11.5229 8.54854 11.5308 8.67974 11.5307 8.81106C11.5307 9.29576 11.4247 9.77466 11.22 10.2145C11.0153 10.6543 10.7168 11.0445 10.3453 11.358C9.97375 11.6714 9.53811 11.9007 9.0686 12.0297C8.5991 12.1588 8.10699 12.1846 7.62645 12.1054V17.7886C7.80826 17.7581 7.99232 17.7428 8.1767 17.7429C9.06671 17.7445 9.91976 18.0972 10.5489 18.7237C11.178 19.3502 11.5318 20.1993 11.5328 21.0849C11.5328 21.2161 11.525 21.3472 11.5094 21.4774H29.0396C28.9845 21.009 29.0295 20.5342 29.1718 20.0843C29.3141 19.6344 29.5503 19.2196 29.8651 18.8669C30.1798 18.5142 30.5659 18.2318 30.9981 18.0381C31.4302 17.8444 31.8987 17.7438 32.3726 17.7429C32.557 17.7428 32.7411 17.7581 32.9229 17.7886V12.1054C32.4422 12.1849 31.9499 12.1594 31.4801 12.0305C31.0104 11.9015 30.5744 11.6724 30.2027 11.3589C29.8309 11.0454 29.5323 10.655 29.3274 10.2151C29.1226 9.77507 29.0165 9.29597 29.0166 8.81106ZM13.6636 11.741H24.3407L23.3738 11.1979C23.2162 11.1094 23.1003 10.9621 23.0517 10.7885C23.0032 10.6149 23.0259 10.4293 23.1149 10.2724C23.2039 10.1155 23.3519 10.0002 23.5264 9.95184C23.7008 9.90352 23.8874 9.92613 24.0451 10.0147L27.2195 11.7977C27.3238 11.8565 27.4108 11.9415 27.4717 12.0443C27.5325 12.1471 27.5652 12.264 27.5663 12.3833C27.5674 12.5026 27.537 12.6201 27.4781 12.724C27.4191 12.8279 27.3338 12.9146 27.2305 12.9753L24.093 14.817C23.9881 14.8793 23.8683 14.9122 23.7461 14.9121C23.5962 14.9124 23.4503 14.8636 23.3311 14.7732C23.2118 14.6828 23.1257 14.5559 23.0862 14.412C23.0466 14.2681 23.0558 14.1152 23.1122 13.977C23.1686 13.8388 23.2692 13.7229 23.3984 13.6472L24.3296 13.0997H13.6636C13.4854 13.0954 13.316 13.0218 13.1915 12.8949C13.067 12.7679 12.9973 12.5975 12.9973 12.4201C12.9973 12.2428 13.067 12.0724 13.1915 11.9454C13.316 11.8184 13.4854 11.7454 13.6636 11.741ZM26.8836 18.155H16.2074L17.1706 18.6956C17.324 18.7863 17.4356 18.9331 17.4816 19.1046C17.5275 19.2761 17.5042 19.4587 17.4166 19.6133C17.329 19.7679 17.1841 19.8823 17.0128 19.9319C16.8415 19.9816 16.6575 19.9625 16.5002 19.8788L13.3278 18.0987C13.2235 18.04 13.1366 17.955 13.0757 17.8523C13.0148 17.7496 12.9821 17.6328 12.9809 17.5135C12.9797 17.3943 13.01 17.2768 13.0688 17.1729C13.1276 17.069 13.2129 16.9824 13.3159 16.9216L16.4514 15.079C16.5286 15.0312 16.6147 14.9994 16.7044 14.9852C16.7942 14.971 16.886 14.9748 16.9742 14.9963C17.0625 15.0179 17.1456 15.0568 17.2186 15.1107C17.2916 15.1646 17.353 15.2325 17.3993 15.3104C17.4455 15.3883 17.4757 15.4746 17.488 15.5642C17.5003 15.6538 17.4944 15.745 17.4709 15.8324C17.4473 15.9198 17.4064 16.0015 17.3506 16.073C17.2948 16.1444 17.2252 16.204 17.146 16.2483L16.2148 16.7959H26.8836C26.9747 16.7937 27.0653 16.8096 27.1502 16.8428C27.235 16.8759 27.3122 16.9256 27.3775 16.9889C27.4427 17.0523 27.4945 17.1279 27.5299 17.2115C27.5653 17.295 27.5835 17.3848 27.5835 17.4754C27.5835 17.5661 27.5653 17.6559 27.5299 17.7394C27.4945 17.823 27.4427 17.8986 27.3775 17.9619C27.3122 18.0253 27.235 18.075 27.1502 18.1081C27.0653 18.1413 26.9747 18.1572 26.8836 18.155Z" fill="#0065FF"/>
</svg>
