<svg width="60" height="57" viewBox="0 0 60 57" fill="none" xmlns="http://www.w3.org/2000/svg">
<path d="M37.3511 10.2432C36.8983 10.6959 36.2192 10.9223 35.7665 10.9223C35.3138 10.9223 34.6347 10.6959 34.1819 10.2432L31.2391 7.52676V15.676C31.2391 16.8079 30.3337 17.9397 28.9754 17.9397C27.6172 17.9397 26.7118 16.8079 26.7118 15.676V7.52676L23.769 10.0168C22.8635 10.9223 21.5053 10.9223 20.5998 9.79045C19.6943 8.88497 19.9207 7.52676 20.8262 6.62128L27.3909 0.50933C28.2963 -0.169777 29.6546 -0.169777 30.56 0.50933L37.3511 6.62128C38.0302 7.75313 38.2566 9.33771 37.3511 10.2432Z" fill="white"/>
<path d="M57.9504 18.845C57.2713 18.3923 50.4802 14.3177 33.0498 19.9769C15.8458 25.6361 3.39553 18.845 3.39553 18.6187C2.71642 18.1659 1.81095 18.1659 1.13184 18.6187C0.452737 19.0714 0 19.7505 0 20.656V50.0839C0 50.763 0.452737 51.4421 1.13184 51.8949C1.58458 52.1212 9.05475 56.875 20.5996 56.875C24.9006 56.875 29.6543 56.1959 34.8608 54.6113C50.2539 49.6312 55.6867 52.8004 55.6867 52.8004C56.3658 53.2531 57.2713 53.2531 57.9504 53.0267C58.6295 52.574 59.0822 51.8949 59.0822 50.9894V20.656C58.8559 19.9769 58.6295 19.2978 57.9504 18.845ZM54.3285 47.8202C50.7066 46.9148 43.9155 46.6884 33.0498 50.3103C18.7886 55.064 7.69654 50.5367 4.52737 48.7257V24.2779C9.73385 26.3152 20.5996 29.0316 34.6344 24.2779C46.4056 20.4296 52.2912 21.3351 54.5549 22.2406L54.3285 47.8202Z" fill="white"/>
<path d="M29.4282 45.783C25.1272 45.783 21.7316 42.3874 21.7316 38.0864C21.7316 33.7854 25.1272 30.3899 29.4282 30.3899C33.7292 30.3899 37.1247 33.7854 37.1247 38.0864C37.1247 42.3874 33.7292 45.783 29.4282 45.783ZM29.4282 34.9173C27.6172 34.9173 26.259 36.2755 26.259 38.0864C26.259 39.8974 27.6172 41.2556 29.4282 41.2556C31.2391 41.2556 32.5973 39.8974 32.5973 38.0864C32.8237 36.2755 31.2391 34.9173 29.4282 34.9173Z" fill="white"/>
<path d="M12.9032 42.6138C14.7785 42.6138 16.2987 41.0936 16.2987 39.2183C16.2987 37.343 14.7785 35.8228 12.9032 35.8228C11.0279 35.8228 9.50763 37.343 9.50763 39.2183C9.50763 41.0936 11.0279 42.6138 12.9032 42.6138Z" fill="white"/>
<path d="M45.7266 39.2183C47.6019 39.2183 49.1222 37.6981 49.1222 35.8228C49.1222 33.9475 47.6019 32.4272 45.7266 32.4272C43.8513 32.4272 42.3311 33.9475 42.3311 35.8228C42.3311 37.6981 43.8513 39.2183 45.7266 39.2183Z" fill="white"/>
</svg>
