<svg width="28" height="28" viewBox="0 0 28 28" fill="none" xmlns="http://www.w3.org/2000/svg">
<circle cx="14" cy="14" r="14" fill="#0065FF"/>
<path d="M9 8C7.89543 8 7 8.89543 7 10V14C7 15.1046 7.89543 16 9 16L9 10H19C19 8.89543 18.1046 8 17 8H9Z" fill="#E6F0FF"/>
<path fill-rule="evenodd" clip-rule="evenodd" d="M11 14C11 12.8954 11.8954 12 13 12H21C22.1046 12 23 12.8954 23 14V18C23 19.1046 22.1046 20 21 20H13C11.8954 20 11 19.1046 11 18V14ZM17 18C18.1046 18 19 17.1046 19 16C19 14.8954 18.1046 14 17 14C15.8954 14 15 14.8954 15 16C15 17.1046 15.8954 18 17 18Z" fill="#E6F0FF"/>
</svg>
