<svg width="234" height="266" viewBox="0 0 234 266" fill="none" xmlns="http://www.w3.org/2000/svg">
<path d="M106.024 164.125C105.204 159.072 108.623 154.309 113.661 153.486C118.7 152.664 123.449 156.093 124.269 161.146C126.777 176.599 130.873 187.753 137.397 196.739C143.35 204.918 152.14 211.84 161.299 215.505C167.246 217.888 173.603 219.124 180.139 219.124C184.671 219.124 189.172 218.512 193.58 217.309C198.505 215.965 203.584 218.881 204.924 223.821C206.264 228.761 203.358 233.855 198.432 235.199C192.455 236.83 186.322 237.664 180.139 237.664C171.245 237.664 162.561 235.976 154.445 232.723C142.026 227.754 130.448 218.638 122.461 207.662C114.043 196.067 108.963 182.237 106.024 164.125Z" fill="#003E9C"/>
<path d="M42.2997 38.6233C37.8817 41.1877 32.2275 39.6743 29.6708 35.243C27.1141 30.8118 28.623 25.1408 33.041 22.5764C58.3886 7.86401 87.1727 0 116.976 0C146.944 0 175.619 7.95089 200.698 22.8483C205.09 25.4572 206.542 31.1432 203.941 35.5483C201.34 39.9535 195.671 41.4096 191.279 38.8007C169.038 25.5896 143.614 18.5402 116.976 18.5402C90.4474 18.5402 64.8532 25.5327 42.2997 38.6233Z" fill="#003E9C"/>
<path d="M17.2152 104.777C14.4891 109.106 8.78071 110.398 4.46513 107.664C0.149544 104.93 -1.13901 99.2044 1.58708 94.8759C26.909 54.6699 69.3517 30.186 116.976 30.186C165.059 30.186 207.996 54.8128 232.277 95.0215C234.921 99.4007 233.526 105.101 229.16 107.753C224.794 110.405 219.11 109.006 216.466 104.626C195.512 69.9269 158.548 48.7262 116.976 48.7262C75.8252 48.7262 39.2157 69.845 17.2152 104.777Z" fill="#003E9C"/>
<path d="M98.9856 247.175C102.541 250.848 102.455 256.717 98.7922 260.283C95.1297 263.849 89.2784 263.762 85.7227 260.089C58.9779 232.458 43.3817 197.667 43.3817 168.486C43.3817 124.681 74.4616 90.5562 116.967 90.5562C158.043 90.5562 187.89 121.724 192.309 165.318C192.825 170.411 189.127 174.96 184.049 175.478C178.97 175.996 174.435 172.287 173.919 167.193C170.407 132.55 147.947 109.096 116.967 109.096C85.0626 109.096 61.8667 134.565 61.8667 168.486C61.8667 192.576 75.4351 222.844 98.9856 247.175Z" fill="#003E9C"/>
<path d="M41.7958 212.776C44.1938 217.296 42.4848 222.91 37.9786 225.315C33.4725 227.72 27.8756 226.006 25.4776 221.486C17.5078 206.465 13.5454 188.055 13.5454 168.49C13.5454 107.987 58.1093 60.2662 116.992 60.3718C177.604 60.4803 224.62 112.198 222.548 168.83C221.658 193.143 204.178 205.335 182.067 205.685C161.745 206.007 144.362 191.284 140.846 169.939C137.316 148.511 128.597 139.581 114.82 140.52C100.537 141.494 93.3823 150.038 93.1467 166.39C92.8133 189.543 108.189 217.632 126.925 232.882C135.869 240.146 144.781 243.421 163.47 247.294C168.469 248.33 171.684 253.235 170.651 258.249C169.618 263.262 164.728 266.487 159.729 265.451C138.376 261.025 127.103 256.883 115.284 247.284C92.4328 228.685 74.2413 195.452 74.6637 166.123C75.0318 140.571 89.171 123.687 113.566 122.023C137.992 120.357 154.138 136.895 159.083 166.916C161.114 179.244 170.653 187.323 181.776 187.147C195.107 186.936 203.604 181.009 204.075 168.15C205.772 121.785 166.877 79.0013 116.959 78.9119C68.5865 78.8252 32.0304 117.971 32.0304 168.49C32.0304 185.19 35.3547 200.637 41.7958 212.776Z" fill="#003E9C"/>
</svg>
