<svg width="24" height="21" viewBox="0 0 24 21" fill="none" xmlns="http://www.w3.org/2000/svg">
<path d="M23.1374 14.6251V1.46774C23.1374 1.46026 23.1374 1.45279 23.1374 1.44282C23.1125 0.642915 22.4696 0.0124596 21.6702 0C21.6032 0 21.5386 0.00498395 21.4716 0.00498395H2.40559C2.10769 0.00498395 1.81226 0 1.51436 0C1.10225 0 0.695114 0.144531 0.407138 0.451038C0.124128 0.760035 0 1.1413 0 1.55247V14.8718C0 15.3876 0.22343 15.8411 0.640498 16.1451C0.9533 16.3719 1.32072 16.4068 1.69062 16.4068H6.72771V19.1728C6.72771 20.0026 7.28132 20.7926 8.12042 20.9545C8.42578 21.0144 8.74106 20.9919 9.0489 20.9919H14.0438C14.2995 20.9919 14.5626 21.0144 14.8183 20.9845C15.7369 20.8773 16.4072 20.1148 16.4097 19.1853C16.4097 18.804 16.4097 18.4277 16.4097 18.0465V16.4043H21.3077C21.5262 16.4043 21.7397 16.4068 21.9582 16.3694C22.6483 16.2548 23.1299 15.5994 23.1374 14.9166C23.1374 14.8219 23.1374 14.7223 23.1374 14.6251ZM0.995503 1.42039C0.995503 1.41292 0.995503 1.40793 0.995503 1.40046C0.995503 1.37803 1.00047 1.37056 1.00295 1.37056C1.00295 1.36806 1.00295 1.36806 1.00295 1.36557C1.00792 1.34314 1.01536 1.32321 1.02033 1.30078C1.02281 1.29081 1.02529 1.28334 1.02529 1.27586C1.03771 1.25344 1.0526 1.23101 1.05757 1.22353C1.0675 1.20609 1.08239 1.18865 1.09232 1.16871C1.09232 1.16622 1.0948 1.16622 1.0948 1.16373C1.12211 1.13632 1.15935 1.10392 1.16432 1.09894C1.1668 1.09644 1.17176 1.09395 1.17425 1.09146C1.17673 1.09146 1.17673 1.08897 1.17921 1.08897C1.21645 1.06903 1.25121 1.04661 1.28844 1.02667C1.29341 1.02418 1.30086 1.02418 1.31079 1.02169C1.33065 1.0167 1.35299 1.00923 1.37285 1.00424H1.38278C1.38526 1.00424 1.38775 1.00424 1.39023 1.00424C1.39271 1.00424 1.39271 1.00424 1.39519 1.00424C1.39768 1.00424 1.39768 1.00424 1.40016 1.00424H1.40264C1.40512 1.00424 1.40761 1.00424 1.41009 1.00424C1.41257 1.00424 1.41505 1.00424 1.41754 1.00424C1.4374 1.00424 1.44981 1.00175 1.46222 1.00175C1.48457 1.00175 1.50939 1.00424 1.53173 1.00424H20.9205C21.1637 1.00424 21.4095 0.996768 21.6528 0.99926C21.6578 0.99926 21.6627 0.996768 21.6677 0.996768C21.6925 0.996768 21.7298 1.00424 21.7571 1.00424C21.767 1.00674 21.7794 1.00923 21.7893 1.01172C21.8117 1.0167 21.8316 1.02667 21.8539 1.03165C21.8589 1.03165 21.8638 1.03415 21.8663 1.03415C21.8936 1.0491 21.9234 1.06903 21.9284 1.07153C21.9309 1.07402 21.9408 1.079 21.9532 1.08648C21.978 1.1114 22.0053 1.13133 22.0277 1.15874C22.0277 1.15874 22.0376 1.16871 22.0475 1.17868C22.05 1.18117 22.05 1.18366 22.0525 1.18615C22.0724 1.21855 22.0922 1.25094 22.1096 1.28583C22.1096 1.28832 22.1121 1.29081 22.1146 1.29331C22.1146 1.2958 22.117 1.30078 22.117 1.30577C22.1245 1.33318 22.1319 1.39547 22.1444 1.42538C22.1444 1.41292 22.1419 1.40046 22.1419 1.38551C22.1419 1.33567 22.1444 1.41292 22.1468 1.43036C22.1468 1.44282 22.1444 1.45777 22.1444 1.47023V3.49616H1.39768C1.26362 3.49616 1.12708 3.49367 0.99302 3.49118V1.56243C0.99302 1.53253 0.99302 1.50512 0.99302 1.47522V1.47023C0.99302 1.45528 0.99302 1.44033 0.995503 1.42289C0.99302 1.42538 0.99302 1.42787 0.990538 1.43036C0.99302 1.42787 0.99302 1.42538 0.995503 1.42039ZM12.5617 16.955C12.5369 17.3886 12.2415 17.7848 11.8169 17.8895C11.8169 18.2732 11.8169 18.7716 11.8169 18.7716C11.8169 19.0956 11.3204 19.0956 11.3204 18.7716V17.8845C11.0697 17.8197 10.8463 17.6602 10.7097 17.426C10.4962 17.0622 10.5434 16.5962 10.8115 16.2747C11.0672 15.9657 11.5166 15.8386 11.8939 15.9782C12.2837 16.1227 12.5394 16.4766 12.5617 16.8877C12.5617 16.8977 12.5642 16.9102 12.5617 16.9201C12.5642 16.9326 12.5642 16.945 12.5617 16.955ZM13.5299 12.7412H9.60747V12.2154C9.60747 12.0459 9.60995 11.8765 9.60995 11.707C9.60995 11.6248 9.61244 11.5426 9.61988 11.4603C9.62237 11.4254 9.62981 11.3931 9.6323 11.3582C9.62485 11.4977 9.6323 11.3756 9.63974 11.3382C9.65464 11.256 9.6745 11.1738 9.69933 11.094C9.71174 11.0517 9.73408 10.9221 9.76884 10.8822C9.74898 10.9071 9.73905 10.957 9.76635 10.9021C9.77629 10.8822 9.78373 10.8623 9.79366 10.8423C9.81352 10.8025 9.83338 10.7651 9.85573 10.7252C9.89297 10.6579 9.93269 10.5931 9.97737 10.5308C9.98234 10.5259 9.98978 10.5084 10.0022 10.491C10.0047 10.4885 10.0096 10.4835 10.0171 10.4735C10.0345 10.4536 10.0518 10.4312 10.0692 10.4112C10.1164 10.3589 10.1636 10.3066 10.2132 10.2567C10.2455 10.2268 10.2753 10.1969 10.3076 10.167C10.3274 10.1496 10.382 10.0873 10.4069 10.0823C10.4069 10.0848 10.3597 10.1172 10.3572 10.1197C10.3572 10.1197 10.3622 10.1172 10.3721 10.1122C10.3895 10.0997 10.4069 10.0873 10.4242 10.0748C10.4565 10.0524 10.4863 10.0325 10.5186 10.0125C10.5881 9.96768 10.6601 9.92781 10.7321 9.89292C10.7395 9.89043 10.7569 9.87797 10.7768 9.868C10.7792 9.868 10.7842 9.86551 10.7916 9.86302C10.8115 9.85554 10.8314 9.84557 10.8537 9.8381C10.9307 9.80819 11.0101 9.78327 11.092 9.76334C11.1615 9.7459 11.2534 9.7434 11.3204 9.71848C11.3279 9.71848 11.3353 9.71599 11.3453 9.71599C11.3899 9.71101 11.4371 9.70852 11.4818 9.70852C11.5712 9.70602 11.663 9.70603 11.7524 9.7135C11.7723 9.71599 11.7921 9.71599 11.8145 9.71848C11.8269 9.71848 11.8393 9.71848 11.8467 9.71599C11.8865 9.72098 11.9287 9.73842 11.9609 9.7434C12.0503 9.76334 12.1397 9.78826 12.2266 9.81816C12.239 9.82314 12.2886 9.84059 12.3135 9.85056C12.3085 9.84806 12.3035 9.84557 12.2986 9.84308C12.3035 9.84308 12.306 9.84557 12.3135 9.84806C12.3209 9.85056 12.3259 9.85305 12.3259 9.85305C12.3234 9.85305 12.3234 9.85305 12.3184 9.85056C12.3209 9.85056 12.3234 9.85305 12.3234 9.85305C12.3532 9.868 12.383 9.88046 12.4103 9.89541C12.5021 9.94276 12.5915 9.99509 12.6784 10.0524C12.7007 10.0674 12.7206 10.0823 12.7405 10.0973C12.7454 10.0997 12.7603 10.1122 12.7727 10.1222C12.7678 10.1172 12.7628 10.1147 12.7603 10.1097C12.7603 10.1097 12.7603 10.1097 12.7628 10.1097C12.7653 10.1122 12.7678 10.1122 12.7702 10.1147C12.7777 10.1222 12.7827 10.1247 12.7851 10.1272C12.7827 10.1247 12.7802 10.1222 12.7752 10.1197C12.7827 10.1272 12.7901 10.1321 12.7926 10.1346C12.8124 10.1521 12.8323 10.167 12.8497 10.1845C12.9316 10.2567 13.0086 10.3365 13.0781 10.4187C13.0905 10.4337 13.1029 10.4486 13.1153 10.4636L13.1178 10.4661L13.1203 10.4686C13.1501 10.5109 13.1799 10.5533 13.2072 10.5956C13.2618 10.6829 13.3139 10.7751 13.3561 10.8673C13.3611 10.8772 13.3685 10.8897 13.3735 10.9021C13.3685 10.8872 13.3809 10.9096 13.3884 10.937C13.3859 10.9271 13.3809 10.9146 13.3735 10.9021C13.376 10.9071 13.3785 10.9146 13.3809 10.9271C13.3983 10.9769 13.4157 11.0267 13.4331 11.0766C13.4654 11.1862 13.4877 11.2959 13.51 11.408C13.51 11.4155 13.5125 11.4205 13.5125 11.423C13.5125 11.418 13.5125 11.4155 13.5125 11.4105C13.515 11.423 13.515 11.4354 13.5125 11.423C13.5125 11.4404 13.515 11.4603 13.515 11.4753C13.52 11.5376 13.5225 11.5974 13.5225 11.6597C13.5225 11.6771 13.5249 11.6946 13.5274 11.712V12.7412H13.5299ZM22.1543 14.9889C22.1543 14.9914 22.1543 14.9939 22.1543 14.9964C22.1543 14.9964 22.1543 14.9989 22.1543 15.0014V15.0038C22.1543 15.0088 22.1543 15.0163 22.1518 15.0188C22.1493 15.0263 22.1493 15.0362 22.1468 15.0362C22.1468 15.0362 22.1444 15.0313 22.1444 15.0288C22.1444 15.0337 22.1419 15.0263 22.1419 14.9964C22.1419 14.9989 22.1419 14.9989 22.1419 15.0014C22.1369 15.0238 22.1319 15.0437 22.127 15.0661C22.127 15.0686 22.127 15.0736 22.1245 15.0761C22.1245 15.0786 22.1195 15.0836 22.1195 15.0985C22.1121 15.116 22.1071 15.1259 22.1071 15.1259C22.1071 15.1259 22.1071 15.1259 22.1071 15.1235C22.1071 15.121 22.1096 15.116 22.1121 15.111C22.1121 15.111 22.1121 15.1135 22.1096 15.1135C22.1021 15.1284 22.0947 15.1409 22.0873 15.1559C22.0748 15.1758 22.0252 15.2829 22.055 15.2132V15.2107C22.055 15.2132 22.0525 15.2132 22.0525 15.2132C22.0376 15.2281 22.0227 15.2456 22.0078 15.2605C21.9954 15.273 21.983 15.2829 21.9731 15.2929C21.9681 15.2979 21.9631 15.3029 21.9606 15.3054C21.9656 15.3004 21.9731 15.2979 21.9755 15.2954C21.9557 15.3128 21.9209 15.3452 21.9582 15.3054C21.9309 15.3228 21.8911 15.3452 21.8887 15.3452C21.8738 15.3527 21.8589 15.3602 21.844 15.3677C21.8142 15.3751 21.772 15.3876 21.762 15.3876C21.7496 15.3901 21.7248 15.3901 21.7124 15.3976C21.7248 15.3951 21.7372 15.3951 21.7471 15.3926C21.7397 15.3951 21.7347 15.3951 21.7273 15.3951C21.6752 15.3976 21.623 15.4001 21.5709 15.4001H16.4097V14.6699C16.4097 14.6201 16.4097 14.5727 16.4072 14.5229C16.4072 14.4955 16.4047 14.4706 16.4047 14.4432C16.4022 14.3983 16.3997 14.3559 16.3948 14.3111C16.3128 13.6482 15.866 13.0901 15.2677 12.8558H15.2652C15.2354 12.8458 15.2056 12.8359 15.1758 12.8259C15.1634 12.8234 15.1535 12.8184 15.1411 12.8159C15.1187 12.8085 15.0964 12.8035 15.0716 12.7985C15.0616 12.796 15.0517 12.7935 15.0443 12.791C15.0343 12.7885 15.0269 12.786 15.017 12.786C15.0095 12.7835 14.9996 12.7835 14.9921 12.7811H14.9896C14.9872 12.7811 14.9872 12.7811 14.9847 12.7811C14.9797 12.7811 14.9723 12.7786 14.9673 12.7786C14.9648 12.7786 14.9599 12.7811 14.9574 12.7811C14.9524 12.7811 14.9474 12.7835 14.9425 12.7835V12.7786L14.94 12.7811C14.94 12.7811 14.94 12.7811 14.94 12.7835L14.9375 12.7786C14.935 12.7786 14.9325 12.7761 14.9301 12.7761V12.7736C14.9276 12.7736 14.9251 12.7736 14.9226 12.7711H14.9201C14.9176 12.7711 14.9176 12.7711 14.9152 12.7711C14.9127 12.7711 14.9102 12.7711 14.9102 12.7711C14.9003 12.7686 14.8903 12.7686 14.8779 12.7661C14.8754 12.7661 14.8705 12.7661 14.868 12.7636C14.8605 12.7636 14.8556 12.7611 14.8481 12.7611C14.8481 12.7611 14.8457 12.7611 14.8432 12.7611H14.8382H14.8357C14.8283 12.7611 14.8233 12.7586 14.8159 12.7586C14.8134 12.7586 14.8109 12.7586 14.8084 12.7586C14.796 12.7561 14.7811 12.7511 14.7687 12.7487C14.7662 12.7487 14.7662 12.7487 14.7637 12.7487C14.7563 12.7487 14.7488 12.7512 14.7414 12.7536C14.7389 12.7536 14.7364 12.7536 14.7339 12.7536C14.7315 12.7536 14.7265 12.7512 14.724 12.7462C14.724 12.7462 14.7215 12.7437 14.7215 12.7412C14.7215 12.7412 14.7215 12.7387 14.719 12.7387H14.7166C14.7091 12.7387 14.6992 12.7387 14.6917 12.7387C14.6843 12.7387 14.6744 12.7387 14.6669 12.7387C14.657 12.7387 14.6495 12.7387 14.6396 12.7387C14.6322 12.7387 14.6247 12.7387 14.6173 12.7387C14.6073 12.7387 14.5949 12.7387 14.585 12.7387H14.5676H14.5229V11.6647C14.5229 11.6422 14.5204 11.6198 14.518 11.5999C14.4906 10.653 14.019 9.80072 13.2593 9.24502C12.5518 8.7267 11.5861 8.57469 10.7494 8.82139C9.99971 9.04317 9.33936 9.57146 8.97194 10.2642C8.77333 10.638 8.66162 11.0367 8.62438 11.4578C8.61197 11.6148 8.61445 11.7743 8.61445 11.9313V12.7412C8.42081 12.7462 8.23214 12.7611 8.04843 12.806C8.04595 12.806 8.04098 12.8085 8.0385 12.8085C7.51965 12.953 7.09761 13.3243 6.88163 13.8077C6.87667 13.8177 6.87418 13.8252 6.86922 13.8351C6.86425 13.8476 6.85681 13.8625 6.85184 13.875C6.84936 13.885 6.84439 13.8949 6.84191 13.9049C6.83446 13.9248 6.82701 13.9448 6.82205 13.9647C6.8146 13.9871 6.80715 14.0121 6.79971 14.0345C6.79722 14.042 6.79474 14.0494 6.79474 14.0569C6.78233 14.1018 6.7724 14.1466 6.76247 14.1915C6.75999 14.2064 6.7575 14.2214 6.75502 14.2363C6.75254 14.2488 6.75006 14.2613 6.74757 14.2737C6.74757 14.2812 6.74509 14.2912 6.74509 14.2986C6.74261 14.3186 6.74013 14.341 6.73764 14.3609C6.73764 14.3659 6.73764 14.3709 6.73516 14.3759C6.73516 14.3858 6.73268 14.3958 6.73268 14.4058C6.73268 14.4158 6.7302 14.4257 6.7302 14.4357C6.7302 14.4457 6.7302 14.4556 6.72771 14.4656C6.72771 14.4706 6.72771 14.4756 6.72771 14.4805C6.72771 14.488 6.72771 14.4955 6.72771 14.5005C6.72771 14.5055 6.72771 14.5129 6.72771 14.5179C6.72771 14.5553 6.72771 14.5952 6.72771 14.6325V14.7173C6.72771 14.9465 6.72771 15.1758 6.72771 15.4075H1.71544C1.63848 15.4075 1.56401 15.405 1.48705 15.4026C1.45726 15.4026 1.42995 15.4001 1.40016 15.3976C1.39519 15.3951 1.38526 15.3926 1.37533 15.3901C1.37285 15.3901 1.32568 15.3776 1.29341 15.3677C1.30334 15.3726 1.31079 15.3776 1.31327 15.3801C1.31079 15.3801 1.30334 15.3801 1.29341 15.3726V15.3776C1.27603 15.3527 1.26362 15.3627 1.26362 15.3602C1.26362 15.3577 1.27107 15.3577 1.281 15.3627C1.2661 15.3552 1.25121 15.3452 1.23631 15.3378C1.21645 15.3278 1.19907 15.3128 1.18169 15.3029C1.17673 15.3004 1.17425 15.2979 1.16928 15.2954C1.17176 15.2979 1.17673 15.3029 1.17921 15.3054C1.16928 15.2979 1.16183 15.2929 1.15687 15.2904C1.15687 15.2904 1.15687 15.2904 1.15439 15.2879C1.1519 15.2854 1.15439 15.2879 1.1668 15.2954C1.14197 15.2705 1.11218 15.2381 1.10722 15.2331C1.10474 15.2306 1.09977 15.2256 1.09232 15.2182C1.07494 15.1858 1.0526 15.1559 1.03522 15.1235C1.03522 15.1235 1.03026 15.1135 1.02281 15.101C1.02033 15.0936 1.01785 15.0861 1.01536 15.0736C1.0104 15.0587 1.00792 15.0362 1.00543 15.0138C1.00295 15.0263 0.995503 15.0213 0.99302 14.9889C0.99302 14.9814 0.99302 14.9739 0.99302 14.9665C0.99302 14.964 0.99302 14.964 0.990538 14.9615C0.990538 14.9615 0.990538 14.964 0.99302 14.964C0.99302 14.949 0.990538 14.9341 0.990538 14.9166V14.9116C0.990538 14.8842 0.990538 14.8568 0.990538 14.8294V6.98485H21.7372C21.8713 6.98485 22.0078 6.98485 22.1419 6.98485V14.7846C22.1419 14.8244 22.1419 14.8618 22.1419 14.9017V14.9241C22.1419 14.9415 22.1419 14.959 22.1394 14.9789V14.9814C22.1419 14.9739 22.1419 14.9739 22.1419 14.9789C22.1468 14.9739 22.1493 14.9714 22.1493 14.9739V14.9764V14.9789V14.9814C22.1493 14.9814 22.1568 14.9864 22.1543 14.9889Z" fill="#0065FF"/>
</svg>
