<svg width="21" height="17" viewBox="0 0 21 17" fill="none" xmlns="http://www.w3.org/2000/svg">
<path d="M20.1793 2.32461C19.5354 2.60199 18.8584 2.79514 18.1651 2.89929C18.4892 2.84368 18.9662 2.25973 19.156 2.02337C19.4444 1.66684 19.6642 1.25984 19.8043 0.823032C19.8043 0.79059 19.8367 0.744245 19.8043 0.721073C19.7879 0.712149 19.7696 0.707472 19.751 0.707472C19.7324 0.707472 19.7141 0.712149 19.6978 0.721073C18.945 1.1291 18.1438 1.44053 17.3131 1.64797C17.2842 1.65683 17.2534 1.65762 17.224 1.65027C17.1946 1.64292 17.1678 1.62771 17.1464 1.60626C17.0818 1.5292 17.0122 1.45644 16.9381 1.38844C16.5993 1.08463 16.2149 0.835966 15.799 0.651555C15.2376 0.421024 14.6312 0.321186 14.0255 0.359581C13.4379 0.396726 12.8642 0.554479 12.3401 0.823032C11.824 1.10616 11.3704 1.49081 11.0065 1.95385C10.6238 2.43044 10.3475 2.98353 10.1962 3.57593C10.0714 4.13942 10.0573 4.7218 10.1545 5.2907C10.1545 5.38802 10.1545 5.40192 10.0712 5.38802C6.76972 4.9014 4.06094 3.72887 1.84762 1.21233C1.75038 1.1011 1.69944 1.1011 1.62073 1.21233C0.657606 2.67683 1.12528 4.99409 2.32918 6.13881C2.49124 6.29175 2.65793 6.44005 2.83389 6.57909C2.28191 6.53987 1.74341 6.39015 1.2503 6.13881C1.15769 6.07856 1.10675 6.111 1.10212 6.22223C1.089 6.37644 1.089 6.53148 1.10212 6.68568C1.19874 7.4247 1.48972 8.12477 1.94532 8.71432C2.40091 9.30386 3.00477 9.76171 3.69514 10.0411C3.86344 10.1132 4.0388 10.1676 4.21838 10.2033C3.70738 10.304 3.18329 10.3196 2.6672 10.2496C2.55607 10.2264 2.51439 10.2867 2.55607 10.3933C3.23673 12.2471 4.71383 12.8125 5.79734 13.1276C5.94551 13.1508 6.09369 13.1508 6.26038 13.1879C6.26038 13.1879 6.26038 13.1879 6.2326 13.2157C5.9131 13.7996 4.62122 14.1936 4.02853 14.3975C2.94672 14.7864 1.79331 14.9351 0.648346 14.8331C0.46776 14.8053 0.426087 14.81 0.379783 14.8331C0.333479 14.8563 0.379783 14.9073 0.430717 14.9536C0.662237 15.1066 0.893756 15.241 1.13454 15.3707C1.85134 15.7621 2.60915 16.0729 3.39417 16.2976C7.45965 17.4192 12.0345 16.5943 15.0859 13.5587C17.4844 11.1765 18.3272 7.89065 18.3272 4.60015C18.3272 4.47502 18.48 4.40087 18.568 4.33599C19.1748 3.86275 19.7098 3.30388 20.1562 2.67683C20.2335 2.58336 20.2731 2.46436 20.2673 2.34315C20.2673 2.27363 20.2673 2.28754 20.1793 2.32461Z" fill="#0065FF"/>
</svg>
