<svg width="29" height="21" viewBox="0 0 29 21" fill="none" xmlns="http://www.w3.org/2000/svg">
<path fill-rule="evenodd" clip-rule="evenodd" d="M25.6762 8.80402H10.8229V11.7124H25.6762V8.80402ZM6.46042 19.3987C6.46042 20.8528 4.1753 20.8528 4.1753 19.3987V14.2052L2.09792 15.7632C0.955355 16.6981 -0.498811 14.8284 0.747617 13.9975L4.59077 11.0891C5.00625 10.6737 5.62946 10.6737 6.04494 11.0891L9.99196 13.9975C11.1345 14.9323 9.78423 16.6981 8.5378 15.7632L6.46042 14.2052V19.3987ZM23.7027 3.29896H8.74553V0.390625H23.7027V3.29896ZM28.2729 7.55759H13.4196V4.54539H28.2729V7.55759ZM26.5071 17.2174H11.6539V20.1257H26.5071V17.2174ZM29 15.971H14.1467V12.9588H29V15.971Z" fill="#5D6B82"/>
</svg>
