<svg width="32" height="32" viewBox="0 0 32 32" fill="none" xmlns="http://www.w3.org/2000/svg">
<path d="M12.8 8.00019C11.9163 8.00019 11.2 8.71654 11.2 9.60019C11.2 10.4838 11.9163 11.2002 12.8 11.2002L21.7373 11.2002L19.6686 13.2688C19.0438 13.8937 19.0438 14.9067 19.6686 15.5316C20.2935 16.1564 21.3065 16.1564 21.9314 15.5316L26.7314 10.7316C27.0314 10.4315 27.2 10.0245 27.2 9.6002C27.2 9.17585 27.0314 8.76888 26.7314 8.46883L21.9314 3.66882C21.3065 3.04399 20.2935 3.04399 19.6686 3.66882C19.0438 4.29366 19.0438 5.30673 19.6686 5.93157L21.7373 8.00019L12.8 8.00019Z" fill="#5D6B82"/>
<path d="M19.2 24.0002C20.0837 24.0002 20.8 23.2839 20.8 22.4002C20.8 21.5165 20.0837 20.8002 19.2 20.8002L10.2627 20.8002L12.3314 18.7316C12.9562 18.1067 12.9562 17.0937 12.3314 16.4688C11.7065 15.844 10.6935 15.844 10.0686 16.4688L5.26863 21.2688C4.96857 21.5689 4.8 21.9758 4.8 22.4002C4.8 22.8245 4.96857 23.2315 5.26863 23.5316L10.0686 28.3316C10.6935 28.9564 11.7065 28.9564 12.3314 28.3316C12.9562 27.7067 12.9562 26.6937 12.3314 26.0688L10.2627 24.0002H19.2Z" fill="#5D6B82"/>
</svg>
