<svg width="32" height="32" viewBox="0 0 32 32" fill="none" xmlns="http://www.w3.org/2000/svg">
<path d="M17.1314 3.66785C16.5065 3.04301 15.4935 3.04301 14.8686 3.66785L3.66864 14.8678C3.0438 15.4927 3.0438 16.5058 3.66864 17.1306C4.29348 17.7554 5.30654 17.7554 5.93138 17.1306L6.40001 16.662V27.1992C6.40001 28.0829 7.11636 28.7992 8.00001 28.7992H11.2C12.0837 28.7992 12.8 28.0829 12.8 27.1992V23.9992C12.8 23.1156 13.5164 22.3992 14.4 22.3992H17.6C18.4837 22.3992 19.2 23.1156 19.2 23.9992V27.1992C19.2 28.0829 19.9164 28.7992 20.8 28.7992H24C24.8837 28.7992 25.6 28.0829 25.6 27.1992V16.662L26.0686 17.1306C26.6935 17.7554 27.7065 17.7554 28.3314 17.1306C28.9562 16.5058 28.9562 15.4927 28.3314 14.8678L17.1314 3.66785Z" fill="#5D6B82"/>
</svg>
