<svg width="41" height="41" viewBox="0 0 41 41" fill="none" xmlns="http://www.w3.org/2000/svg">
<path fill-rule="evenodd" clip-rule="evenodd" d="M20.5 36.8996C29.5575 36.8996 36.9 29.5571 36.9 20.4996C36.9 11.4421 29.5575 4.09961 20.5 4.09961C11.4425 4.09961 4.10001 11.4421 4.10001 20.4996C4.10001 29.5571 11.4425 36.8996 20.5 36.8996ZM17.8496 14.95C17.049 14.1495 15.751 14.1495 14.9504 14.95C14.1499 15.7506 14.1499 17.0486 14.9504 17.8492L17.6009 20.4996L14.9504 23.15C14.1499 23.9506 14.1499 25.2486 14.9504 26.0492C15.751 26.8498 17.049 26.8498 17.8496 26.0492L20.5 23.3987L23.1504 26.0492C23.951 26.8498 25.249 26.8498 26.0496 26.0492C26.8502 25.2486 26.8502 23.9506 26.0496 23.15L23.3991 20.4996L26.0496 17.8492C26.8502 17.0486 26.8502 15.7506 26.0496 14.95C25.249 14.1495 23.951 14.1495 23.1504 14.95L20.5 17.6005L17.8496 14.95Z" fill="#0065FF"/>
</svg>
